<?xml version="1.0" encoding="UTF-8" standalone="no"?>
<!-- Created with Inkscape (http://www.inkscape.org/) -->

<svg
   version="1.1"
   id="svg1"
   width="138.64844"
   height="13.296875"
   viewBox="0 0 138.64844 13.296875"
   xmlns="http://www.w3.org/2000/svg"
   xmlns:svg="http://www.w3.org/2000/svg">
  <defs
     id="defs1" />
  <g
     id="g1"
     transform="translate(-6.0039063,-4.4218756)">
    <path
       id="path1"
       d="M -21.26009,0 H -35.43347"
       style="fill:none;stroke:#000000;stroke-width:0.79701;stroke-linecap:round;stroke-linejoin:miter;stroke-miterlimit:10;stroke-dasharray:none;stroke-opacity:1"
       transform="matrix(1.3333333,0,0,-1.3333333,75.278667,11.069333)" />
    <path
       id="path2"
       d="m -7.08669,0 h -14.1734"
       style="fill:none;stroke:#000000;stroke-width:0.79701;stroke-linecap:round;stroke-linejoin:miter;stroke-miterlimit:10;stroke-dasharray:none;stroke-opacity:1"
       transform="matrix(1.3333333,0,0,-1.3333333,75.278667,11.069333)" />
    <path
       id="path3"
       d="M 7.0867,0 H -7.08669"
       style="fill:none;stroke:#000000;stroke-width:0.79701;stroke-linecap:round;stroke-linejoin:miter;stroke-miterlimit:10;stroke-dasharray:none;stroke-opacity:1"
       transform="matrix(1.3333333,0,0,-1.3333333,75.278667,11.069333)" />
    <path
       id="path4"
       d="M 21.2601,0 H 7.0867"
       style="fill:none;stroke:#000000;stroke-width:0.79701;stroke-linecap:round;stroke-linejoin:miter;stroke-miterlimit:10;stroke-dasharray:none;stroke-opacity:1"
       transform="matrix(1.3333333,0,0,-1.3333333,75.278667,11.069333)" />
    <path
       id="path5"
       d="M 35.43349,0 H 21.2601"
       style="fill:none;stroke:#000000;stroke-width:0.79701;stroke-linecap:round;stroke-linejoin:miter;stroke-miterlimit:10;stroke-dasharray:none;stroke-opacity:1"
       transform="matrix(1.3333333,0,0,-1.3333333,75.278667,11.069333)" />
    <g
       id="g5"
       aria-label="|ψ⟩"
       transform="matrix(1.3333333,0,0,1.3333333,4.4266667,14.390667)">
      <path
         id="path6"
         d="m 1.5813672,-7.1133125 c 0,-0.1757812 0,-0.3632812 -0.1992188,-0.3632812 -0.1992187,0 -0.1992187,0.1875 -0.1992187,0.3632812 v 9.2460938 c 0,0.1757812 0,0.3632812 0.1992187,0.3632812 0.1992188,0 0.1992188,-0.1875 0.1992188,-0.3632812 z m 0,0"
         style="fill:#000000;fill-opacity:1;fill-rule:nonzero;stroke:none" />
      <path
         id="path7"
         d="m 7.5725781,-6.6562812 c 0.011719,-0.035156 0.023437,-0.09375 0.023437,-0.1523438 0,-0.09375 -0.070312,-0.1054687 -0.1171875,-0.1054687 -0.09375,0 -0.1054687,0.023437 -0.1523437,0.1992187 l -1.6523438,6.5859375 c -0.75,-0.09375 -1.1367187,-0.45703125 -1.1367187,-1.1132812 0,-0.1992188 0,-0.4570313 0.5390625,-1.8515625 0.046875,-0.1289063 0.1171875,-0.2929688 0.1171875,-0.4921875 0,-0.4453125 -0.328125,-0.8203125 -0.8203125,-0.8203125 -0.9492188,0 -1.3125,1.453125 -1.3125,1.5351562 0,0.1054688 0.09375,0.1054688 0.1171875,0.1054688 0.09375,0 0.1054687,-0.023437 0.1523437,-0.1875 0.2695313,-0.9375 0.6679688,-1.2304688 1.0078125,-1.2304688 0.082031,0 0.2578125,0 0.2578125,0.3164063 0,0.2578125 -0.1054687,0.515625 -0.234375,0.8554687 -0.4804687,1.2539063 -0.4804687,1.5117188 -0.4804687,1.6875 0,0.94921875 0.7851562,1.359375 1.734375,1.41796875 -0.082031,0.3515625 -0.082031,0.375 -0.2226563,0.90234375 -0.023437,0.1054688 -0.2226562,0.9140625 -0.2226562,0.9492188 0,0.011719 0,0.09375 0.1171875,0.09375 0.023437,0 0.070312,0 0.09375,-0.035156 0.023437,-0.023437 0.082031,-0.2695312 0.1171875,-0.4101562 l 0.375,-1.4882813 c 0.375,0 1.2421875,0 2.1796875,-1.06640625 C 8.4632031,-1.418 8.6741406,-1.8515937 8.7796094,-2.1562812 c 0.09375,-0.2460938 0.3164062,-1.1132813 0.3164062,-1.546875 0,-0.5625 -0.2695312,-0.703125 -0.4453125,-0.703125 -0.2460937,0 -0.4921875,0.2578125 -0.4921875,0.4804687 0,0.1289063 0.058594,0.1875 0.1523438,0.2695313 0.1054687,0.1054687 0.3515625,0.3632812 0.3515625,0.84375 0,0.6445312 -0.515625,1.453125 -0.8671875,1.8164062 -0.8789063,0.890625 -1.5117188,0.890625 -1.875,0.890625 z m 0,0"
         style="fill:#000000;fill-opacity:1;fill-rule:nonzero;stroke:none" />
      <path
         id="path8"
         d="m 12.33332,-2.3203437 c 0.04687,-0.1171875 0.04687,-0.140625 0.04687,-0.1757813 0,-0.023437 0,-0.046875 -0.04687,-0.1640625 l -1.746093,-4.5820312 c -0.05859,-0.1640625 -0.117188,-0.234375 -0.222657,-0.234375 -0.117187,0 -0.199218,0.09375 -0.199218,0.1992187 0,0.035156 0,0.058594 0.04687,0.1640625 l 1.757812,4.6171875 -1.757812,4.6054688 c -0.04687,0.1171875 -0.04687,0.1289062 -0.04687,0.1875 0,0.1054687 0.08203,0.1992187 0.199218,0.1992187 0.128907,0 0.164063,-0.1054687 0.210938,-0.1992187 z m 0,0"
         style="fill:#000000;fill-opacity:1;fill-rule:nonzero;stroke:none" />
    </g>
    <g
       id="g8"
       aria-label="|ψ⟩"
       transform="matrix(1.3333333,0,0,1.3333333,128.14667,14.390667)">
      <path
         id="path9"
         d="m 1.5833594,-7.1133125 c 0,-0.1757812 0,-0.3632812 -0.1992188,-0.3632812 -0.1992187,0 -0.1992187,0.1875 -0.1992187,0.3632812 v 9.2460938 c 0,0.1757812 0,0.3632812 0.1992187,0.3632812 0.1992188,0 0.1992188,-0.1875 0.1992188,-0.3632812 z m 0,0"
         style="fill:#000000;fill-opacity:1;fill-rule:nonzero;stroke:none" />
      <path
         id="path10"
         d="m 7.5716406,-6.6562812 c 0.011719,-0.035156 0.023437,-0.09375 0.023437,-0.1523438 0,-0.09375 -0.070312,-0.1054687 -0.1171875,-0.1054687 -0.09375,0 -0.1054687,0.023437 -0.1523437,0.1992187 l -1.6523438,6.5859375 c -0.75,-0.09375 -1.1367187,-0.45703125 -1.1367187,-1.1132812 0,-0.1992188 0,-0.4570313 0.5390625,-1.8515625 0.046875,-0.1289063 0.1171875,-0.2929688 0.1171875,-0.4921875 0,-0.4453125 -0.328125,-0.8203125 -0.8203125,-0.8203125 -0.9492188,0 -1.3125,1.453125 -1.3125,1.5351562 0,0.1054688 0.09375,0.1054688 0.1171875,0.1054688 0.09375,0 0.1054687,-0.023437 0.1523437,-0.1875 0.2695313,-0.9375 0.6679688,-1.2304688 1.0078125,-1.2304688 0.082031,0 0.2578125,0 0.2578125,0.3164063 0,0.2578125 -0.1054687,0.515625 -0.234375,0.8554687 -0.4804687,1.2539063 -0.4804687,1.5117188 -0.4804687,1.6875 0,0.94921875 0.7851562,1.359375 1.734375,1.41796875 -0.082031,0.3515625 -0.082031,0.375 -0.2226563,0.90234375 -0.023437,0.1054688 -0.2226562,0.9140625 -0.2226562,0.9492188 0,0.011719 0,0.09375 0.1171875,0.09375 0.023437,0 0.070312,0 0.09375,-0.035156 0.023437,-0.023437 0.082031,-0.2695312 0.1171875,-0.4101562 l 0.375,-1.4882813 c 0.375,0 1.2421875,0 2.1796875,-1.06640625 C 8.4622656,-1.418 8.6732031,-1.8515937 8.7786719,-2.1562812 c 0.09375,-0.2460938 0.3164062,-1.1132813 0.3164062,-1.546875 0,-0.5625 -0.2695312,-0.703125 -0.4453125,-0.703125 -0.2460937,0 -0.4921875,0.2578125 -0.4921875,0.4804687 0,0.1289063 0.058594,0.1875 0.1523438,0.2695313 0.1054687,0.1054687 0.3515625,0.3632812 0.3515625,0.84375 0,0.6445312 -0.515625,1.453125 -0.8671875,1.8164062 -0.8789063,0.890625 -1.5117188,0.890625 -1.875,0.890625 z m 0,0"
         style="fill:#000000;fill-opacity:1;fill-rule:nonzero;stroke:none" />
      <path
         id="path11"
         d="m 12.332383,-2.3203437 c 0.04687,-0.1171875 0.04687,-0.140625 0.04687,-0.1757813 0,-0.023437 0,-0.046875 -0.04687,-0.1640625 l -1.746094,-4.5820312 c -0.05859,-0.1640625 -0.117187,-0.234375 -0.222656,-0.234375 -0.117188,0 -0.199219,0.09375 -0.199219,0.1992187 0,0.035156 0,0.058594 0.04687,0.1640625 l 1.757813,4.6171875 -1.757813,4.6054688 c -0.04687,0.1171875 -0.04687,0.1289062 -0.04687,0.1875 0,0.1054687 0.08203,0.1992187 0.199219,0.1992187 0.128906,0 0.164062,-0.1054687 0.210937,-0.1992187 z m 0,0"
         style="fill:#000000;fill-opacity:1;fill-rule:nonzero;stroke:none" />
    </g>
  </g>
</svg>
