<?xml version="1.0" encoding="UTF-8" standalone="no"?>
<!-- Created with Inkscape (http://www.inkscape.org/) -->

<svg
   version="1.1"
   id="svg1"
   width="146.26953"
   height="20.766787"
   viewBox="0 0 146.26953 20.766786"
   xmlns="http://www.w3.org/2000/svg"
   xmlns:svg="http://www.w3.org/2000/svg">
  <defs
     id="defs1" />
  <g
     id="g1"
     transform="translate(-6.0039063,-3.8966069)">
    <path
       id="path1"
       d="m -21.50017,0 h -14.1734"
       style="fill:none;stroke:#000000;stroke-width:0.79701;stroke-linecap:round;stroke-linejoin:miter;stroke-miterlimit:10;stroke-dasharray:none;stroke-opacity:1"
       transform="matrix(1.3333333,0,0,-1.3333333,76.801333,14.28)" />
    <path
       id="path2"
       d="m -7.32677,0 h -14.1734"
       style="fill:none;stroke:#000000;stroke-width:0.79701;stroke-linecap:round;stroke-linejoin:miter;stroke-miterlimit:10;stroke-dasharray:none;stroke-opacity:1"
       transform="matrix(1.3333333,0,0,-1.3333333,76.801333,14.28)" />
    <path
       id="path3"
       d="M 21.50017,0 H 7.32677"
       style="fill:none;stroke:#000000;stroke-width:0.79701;stroke-linecap:round;stroke-linejoin:miter;stroke-miterlimit:10;stroke-dasharray:none;stroke-opacity:1"
       transform="matrix(1.3333333,0,0,-1.3333333,76.801333,14.28)" />
    <path
       id="path4"
       d="M 35.67357,0 H 21.50017"
       style="fill:none;stroke:#000000;stroke-width:0.79701;stroke-linecap:round;stroke-linejoin:miter;stroke-miterlimit:10;stroke-dasharray:none;stroke-opacity:1"
       transform="matrix(1.3333333,0,0,-1.3333333,76.801333,14.28)" />
    <g
       id="g4"
       aria-label="|+⟩"
       transform="matrix(1.3333333,0,0,1.3333333,4.4266667,17.6)">
      <path
         id="path5"
         d="m 1.5813672,-7.1121094 c 0,-0.1757812 0,-0.3632812 -0.1992188,-0.3632812 -0.1992187,0 -0.1992187,0.1875 -0.1992187,0.3632812 v 9.2460938 c 0,0.1757812 0,0.3632812 0.1992187,0.3632812 0.1992188,0 0.1992188,-0.1875 0.1992188,-0.3632812 z m 0,0"
         style="fill:#000000;fill-opacity:1;fill-rule:nonzero;stroke:none" />
      <path
         id="path6"
         d="m 6.8460156,-2.2957031 h 2.7773438 c 0.140625,0 0.328125,0 0.328125,-0.1992188 0,-0.1992187 -0.1875,-0.1992187 -0.328125,-0.1992187 H 6.8460156 v -2.7890625 c 0,-0.1289063 0,-0.328125 -0.1992187,-0.328125 -0.1992188,0 -0.1992188,0.1992187 -0.1992188,0.328125 v 2.7890625 H 3.6585156 c -0.140625,0 -0.328125,0 -0.328125,0.1992187 0,0.1992188 0.1875,0.1992188 0.328125,0.1992188 h 2.7890625 v 2.80078122 c 0,0.12890625 0,0.328125 0.1992188,0.328125 0.1992187,0 0.1992187,-0.19921875 0.1992187,-0.328125 z m 0,0"
         style="fill:#000000;fill-opacity:1;fill-rule:nonzero;stroke:none" />
      <path
         id="path7"
         d="m 13.235664,-2.3191406 c 0.04687,-0.1171875 0.04687,-0.140625 0.04687,-0.1757813 0,-0.023437 0,-0.046875 -0.04687,-0.1640625 L 11.48957,-7.2410156 c -0.05859,-0.1640625 -0.117187,-0.234375 -0.222656,-0.234375 -0.117187,0 -0.199219,0.09375 -0.199219,0.1992187 0,0.035156 0,0.058594 0.04687,0.1640625 l 1.757813,4.6171875 -1.757813,4.6054688 c -0.04687,0.1171875 -0.04687,0.1289062 -0.04687,0.1875 0,0.1054687 0.08203,0.1992187 0.199219,0.1992187 0.128906,0 0.164063,-0.1054687 0.210938,-0.1992187 z m 0,0"
         style="fill:#000000;fill-opacity:1;fill-rule:nonzero;stroke:none" />
    </g>
    <path
       id="path8"
       d="M -7.32677,-7.38904 H 7.32678 V 7.38904 H -7.32677 Z"
       style="fill:#ffffff;fill-opacity:1;fill-rule:nonzero;stroke:#000000;stroke-width:0.79701;stroke-linecap:butt;stroke-linejoin:miter;stroke-miterlimit:10;stroke-dasharray:none;stroke-opacity:1"
       transform="matrix(1.3333333,0,0,-1.3333333,76.801333,14.28)" />
    <path
       id="path9"
       d="m 6.4226172,-6.9264766 c 0,-0.023437 -0.011719,-0.09375 -0.1054688,-0.09375 -0.046875,0 -0.058594,0.011719 -0.1757812,0.140625 l -0.4804688,0.5742188 c -0.2578125,-0.46875 -0.7734375,-0.7148438 -1.4296875,-0.7148438 -1.265625,0 -2.4609375,1.1367188 -2.4609375,2.34375 0,0.8085938 0.5273438,1.265625 1.0429688,1.4179688 l 1.0664062,0.28125 c 0.3632813,0.082031 0.9140625,0.234375 0.9140625,1.0546875 0,0.890625 -0.8203125,1.82812499 -1.7929687,1.82812499 -0.6445313,0 -1.7460938,-0.2109375 -1.7460938,-1.45312499 0,-0.234375 0.046875,-0.4804688 0.058594,-0.5390625 0.011719,-0.035156 0.023437,-0.046875 0.023437,-0.070312 0,-0.09375 -0.070312,-0.1054688 -0.1171875,-0.1054688 -0.058594,0 -0.070312,0.011719 -0.1054688,0.035156 -0.035156,0.046875 -0.59765621,2.32031249 -0.59765621,2.34374999 0,0.0585938 0.046875,0.10546875 0.1171875,0.10546875 0.046875,0 0.0585938,-0.0117188 0.17578125,-0.15234375 L 1.3015234,-0.50460156 c 0.421875,0.5859375 1.1015625,0.7265625 1.6757813,0.7265625 1.359375,0 2.53125,-1.32421874 2.53125,-2.56640624 0,-0.6796875 -0.3398438,-1.0195313 -0.4921875,-1.1601563 -0.2226563,-0.234375 -0.375,-0.2695312 -1.265625,-0.5039062 -0.2109375,-0.058594 -0.5742188,-0.1523438 -0.65625,-0.1757813 -0.2695313,-0.09375 -0.609375,-0.375 -0.609375,-0.9023437 0,-0.8085938 0.796875,-1.6523438 1.734375,-1.6523438 0.8320312,0 1.4414062,0.421875 1.4414062,1.5351563 0,0.3164062 -0.046875,0.5039062 -0.046875,0.5625 0,0.011719 0,0.09375 0.1289063,0.09375 0.09375,0 0.1054687,-0.023437 0.140625,-0.1992188 z m 0,0"
       style="fill:#000000;fill-opacity:1;fill-rule:nonzero;stroke:none"
       aria-label="S"
       transform="matrix(1.3333333,0,0,1.3333333,72.346667,18.817333)" />
    <g
       id="g9"
       aria-label="|+i⟩"
       transform="matrix(1.3333333,0,0,1.3333333,129.988,17.6)">
      <path
         id="path10"
         d="m 1.5822422,-7.1121094 c 0,-0.1757812 0,-0.3632812 -0.1992188,-0.3632812 -0.1992187,0 -0.1992187,0.1875 -0.1992187,0.3632812 v 9.2460938 c 0,0.1757812 0,0.3632812 0.1992187,0.3632812 0.1992188,0 0.1992188,-0.1875 0.1992188,-0.3632812 z m 0,0"
         style="fill:#000000;fill-opacity:1;fill-rule:nonzero;stroke:none" />
      <path
         id="path11"
         d="m 6.8468906,-2.2957031 h 2.7773438 c 0.140625,0 0.328125,0 0.328125,-0.1992188 0,-0.1992187 -0.1875,-0.1992187 -0.328125,-0.1992187 H 6.8468906 v -2.7890625 c 0,-0.1289063 0,-0.328125 -0.1992187,-0.328125 -0.1992188,0 -0.1992188,0.1992187 -0.1992188,0.328125 v 2.7890625 H 3.6593906 c -0.140625,0 -0.328125,0 -0.328125,0.1992187 0,0.1992188 0.1875,0.1992188 0.328125,0.1992188 h 2.7890625 v 2.80078122 c 0,0.12890625 0,0.328125 0.1992188,0.328125 0.1992187,0 0.1992187,-0.19921875 0.1992187,-0.328125 z m 0,0"
         style="fill:#000000;fill-opacity:1;fill-rule:nonzero;stroke:none" />
      <path
         id="path12"
         d="m 13.342008,-6.2214844 c 0,-0.1992187 -0.128906,-0.3632812 -0.363281,-0.3632812 -0.269532,0 -0.539063,0.2578125 -0.539063,0.5273437 0,0.1875 0.140625,0.3632813 0.375,0.3632813 0.234375,0 0.527344,-0.234375 0.527344,-0.5273438 z m -0.75,3.7382813 c 0.117187,-0.28125 0.117187,-0.3046875 0.222656,-0.5742188 0.07031,-0.1992187 0.128906,-0.3398437 0.128906,-0.5273437 0,-0.4453125 -0.328125,-0.8203125 -0.820312,-0.8203125 -0.9375,0 -1.3125,1.453125 -1.3125,1.5351562 0,0.1054688 0.09375,0.1054688 0.117187,0.1054688 0.09375,0 0.105469,-0.023437 0.152344,-0.1875 0.269531,-0.9375 0.667969,-1.2304688 1.007813,-1.2304688 0.08203,0 0.257812,0 0.257812,0.3164063 0,0.2109375 -0.07031,0.421875 -0.117187,0.515625 -0.08203,0.2578125 -0.527344,1.4179687 -0.679688,1.8515625 -0.105469,0.2578125 -0.234375,0.58593747 -0.234375,0.79687497 0,0.46875 0.339844,0.80859375 0.820313,0.80859375 0.9375,0 1.300781,-1.44140622 1.300781,-1.53515622 0,-0.09375 -0.09375,-0.09375 -0.117188,-0.09375 -0.105468,0 -0.105468,0.023437 -0.152343,0.1757812 -0.175782,0.63281252 -0.503907,1.24218752 -1.019532,1.24218752 -0.164062,0 -0.234375,-0.10546875 -0.234375,-0.328125 0,-0.2578125 0.05859,-0.3984375 0.292969,-0.99609372 z m 0,0"
         style="fill:#000000;fill-opacity:1;fill-rule:nonzero;stroke:none" />
      <path
         id="path13"
         d="m 16.667203,-2.3191406 c 0.04687,-0.1171875 0.04687,-0.140625 0.04687,-0.1757813 0,-0.023437 0,-0.046875 -0.04687,-0.1640625 l -1.746094,-4.5820312 c -0.05859,-0.1640625 -0.117187,-0.234375 -0.222656,-0.234375 -0.117187,0 -0.199219,0.09375 -0.199219,0.1992187 0,0.035156 0,0.058594 0.04687,0.1640625 l 1.757813,4.6171875 -1.757813,4.6054688 c -0.04687,0.1171875 -0.04687,0.1289062 -0.04687,0.1875 0,0.1054687 0.08203,0.1992187 0.199219,0.1992187 0.128906,0 0.164063,-0.1054687 0.210938,-0.1992187 z m 0,0"
         style="fill:#000000;fill-opacity:1;fill-rule:nonzero;stroke:none" />
    </g>
  </g>
</svg>
