<?xml version="1.0" encoding="UTF-8" standalone="no"?>
<!-- Created with Inkscape (http://www.inkscape.org/) -->

<svg
   version="1.1"
   id="svg1"
   width="168.59467"
   height="159.82422"
   viewBox="0 0 168.59467 159.82422"
   xmlns="http://www.w3.org/2000/svg"
   xmlns:svg="http://www.w3.org/2000/svg">
  <defs
     id="defs1" />
  <g
     id="g1"
     transform="translate(-19.924867,-4.4257814)">
    <path
       id="path1"
       d="M 0,0 H 85.04042 M 0,85.04042 H 85.04042 M 0,0 V 26.64601 M 0,58.3944 V 85.04042 M 85.04042,0 l -2e-5,38.55173 m 3.1749,-18.03571 c 17.99582,15.45616 17.99582,28.55218 0,44.00836 m -3.1749,-18.0357 2e-5,38.55174"
       style="fill:none;stroke:#000000;stroke-width:0.3985;stroke-linecap:butt;stroke-linejoin:miter;stroke-miterlimit:10;stroke-dasharray:none;stroke-opacity:1"
       transform="matrix(1.3333333,0,0,-1.3333333,28.393333,141.032)" />
    <path
       id="path2"
       d="M 5.95285,58.3944 V 26.64601 H -5.95285 V 58.3944 Z"
       style="fill:none;stroke:#000000;stroke-width:0.797;stroke-linecap:butt;stroke-linejoin:miter;stroke-miterlimit:10;stroke-dasharray:none;stroke-opacity:1"
       transform="matrix(1.3333333,0,0,-1.3333333,28.393333,141.032)" />
    <path
       id="path3"
       d="M -5.95285,26.64601 5.95285,58.3944 m -11.9057,0 11.9057,-31.74839"
       style="fill:none;stroke:#000000;stroke-width:0.797;stroke-linecap:butt;stroke-linejoin:miter;stroke-miterlimit:10;stroke-dasharray:none;stroke-opacity:1"
       transform="matrix(1.3333333,0,0,-1.3333333,28.393333,141.032)" />
    <path
       id="path4"
       d="M 73.13469,38.55173 H 96.94612 M 73.13469,46.48868 H 96.94612"
       style="fill:none;stroke:#ff0000;stroke-width:0.797;stroke-linecap:butt;stroke-linejoin:miter;stroke-miterlimit:10;stroke-dasharray:none;stroke-opacity:1"
       transform="matrix(1.3333333,0,0,-1.3333333,28.393333,141.032)" />
    <path
       id="path5"
       d="m 7.5711641,-6.9253672 c 0,-0.023437 -0.023437,-0.09375 -0.1054688,-0.09375 -0.035156,0 -0.046875,0.011719 -0.1523437,0.1171875 l -0.703125,0.7617188 c -0.082031,-0.140625 -0.5390625,-0.8789063 -1.6523438,-0.8789063 -2.2148437,0 -4.45312499,2.203125 -4.45312499,4.5117188 0,1.64062496 1.17187499,2.73046871 2.69531249,2.73046871 0.8671875,0 1.6171875,-0.3984375 2.1445313,-0.85546875 0.9375,-0.82031246 1.1015625,-1.72265626 1.1015625,-1.75781246 0,-0.1054688 -0.1054688,-0.1054688 -0.1171875,-0.1054688 -0.058594,0 -0.1171875,0.023437 -0.1289063,0.1054688 -0.09375,0.2929687 -0.3164062,0.9960937 -1.0078125,1.57031246 -0.6914062,0.5625 -1.3125,0.7265625 -1.8398437,0.7265625 -0.890625,0 -1.9453125,-0.515625 -1.9453125,-2.06249996 0,-0.5742188 0.2109375,-2.1914063 1.2070312,-3.3515625 0.609375,-0.703125 1.5351563,-1.2070313 2.4257813,-1.2070313 1.0195312,0 1.6054687,0.7734375 1.6054687,1.921875 0,0.3984375 -0.035156,0.4101563 -0.035156,0.5039063 0,0.1054687 0.1171875,0.1054687 0.1523437,0.1054687 0.1289063,0 0.1289063,-0.023437 0.1757813,-0.1992187 z m 0,0"
       style="fill:#000000;fill-opacity:1;fill-rule:nonzero;stroke:none"
       aria-label="C"
       transform="matrix(1.3333333,0,0,1.3333333,111.72933,87.198667)" />
    <path
       id="path6"
       d="m 91.41383,61.77724 1.29279,1.50518 -4.49132,1.24196 1.90576,-4.25235 z"
       style="fill:#ff0000;fill-opacity:1;fill-rule:nonzero;stroke:#ff0000;stroke-width:0.3985;stroke-linecap:butt;stroke-linejoin:miter;stroke-miterlimit:10;stroke-dasharray:none;stroke-opacity:1"
       transform="matrix(1.3333333,0,0,-1.3333333,28.393333,141.032)" />
    <g
       id="g6"
       aria-label="V&#10;C"
       transform="matrix(1.3333333,0,0,1.3333333,172.92933,87.881333)">
      <path
         id="path7"
         d="m 6.2580781,-5.6707656 c 0.4804688,-0.7734375 0.9023438,-0.8085938 1.2773438,-0.8203125 0.1171875,-0.011719 0.1289062,-0.1875 0.1289062,-0.1875 0,-0.082031 -0.058594,-0.1289063 -0.1289062,-0.1289063 -0.2578125,0 -0.5507813,0.035156 -0.8203125,0.035156 -0.328125,0 -0.6679688,-0.035156 -0.984375,-0.035156 -0.058594,0 -0.1875,0 -0.1875,0.1992188 0,0.1054687 0.082031,0.1171875 0.1523437,0.1171875 0.2695313,0.011719 0.4570313,0.1171875 0.4570313,0.328125 0,0.1523437 -0.140625,0.3632812 -0.140625,0.375 L 2.9533906,-0.92467187 2.2737031,-6.1981094 c 0,-0.1640625 0.2226563,-0.2929687 0.6796875,-0.2929687 0.140625,0 0.2578125,0 0.2578125,-0.1992188 0,-0.09375 -0.082031,-0.1171875 -0.140625,-0.1171875 -0.3984375,0 -0.8320312,0.035156 -1.2421875,0.035156 -0.1757812,0 -0.3632812,-0.011719 -0.5390625,-0.011719 -0.1875,0 -0.37499998,-0.023437 -0.53906248,-0.023437 -0.0703125,0 -0.1875,0 -0.1875,0.1992188 0,0.1171875 0.0820313,0.1171875 0.24609375,0.1171875 0.55078123,0 0.56250003,0.082031 0.59765623,0.3398437 l 0.7851563,6.14062503 c 0.035156,0.19921875 0.070312,0.234375 0.1992187,0.234375 0.1640625,0 0.1992188,-0.0585938 0.28125,-0.1875 z m 0,0"
         style="fill:#000000;fill-opacity:1;fill-rule:nonzero;stroke:none" />
      <path
         id="path8"
         d="m 11.692648,-3.3211562 c 0,-0.035156 -0.02344,-0.082031 -0.09375,-0.082031 -0.04687,0 -0.07031,0.011719 -0.128906,0.082031 l -0.503906,0.5390625 c -0.07031,-0.082031 -0.457031,-0.6210938 -1.3125001,-0.6210938 -1.6992187,0 -3.3515625,1.5 -3.3515625,3.0703125 0,1.13671875 0.890625,1.96875 2.1328125,1.96875 0.375,0 1.0546875,-0.082031 1.7695311,-0.6796875 0.550781,-0.46875 0.703125,-1.078125 0.703125,-1.13671875 0,-0.09375 -0.08203,-0.09375 -0.117187,-0.09375 -0.09375,0 -0.105469,0.0351562 -0.128907,0.1171875 C 10.380148,0.792125 9.3957734,1.3780625 8.5520234,1.3780625 c -0.7382812,0 -1.5585937,-0.38671875 -1.5585937,-1.48828125 0,-0.2109375 0.046875,-1.31249995 0.8554687,-2.19140625 0.4804688,-0.5273437 1.2070313,-0.8554687 1.875,-0.8554687 0.8085936,0 1.2773436,0.5859375 1.2773436,1.3710937 0,0.1875 -0.02344,0.2460938 -0.02344,0.28125 0,0.09375 0.09375,0.09375 0.128906,0.09375 0.117187,0 0.117187,-0.023437 0.152344,-0.1523437 z m 0,0"
         style="fill:#000000;fill-opacity:1;fill-rule:nonzero;stroke:none" />
    </g>
    <path
       id="path9"
       d="m 4.0775625,-2.2968125 h 2.7773437 c 0.140625,0 0.328125,0 0.328125,-0.1992187 0,-0.1992188 -0.1875,-0.1992188 -0.328125,-0.1992188 H 4.0775625 v -2.7890625 c 0,-0.1289062 0,-0.328125 -0.1992188,-0.328125 -0.1992187,0 -0.1992187,0.1992188 -0.1992187,0.328125 V -2.69525 H 0.8900625 c -0.140625,0 -0.328125,0 -0.328125,0.1992188 0,0.1992187 0.1875,0.1992187 0.328125,0.1992187 H 3.679125 v 2.80078125 c 0,0.12890625 0,0.328125 0.1992187,0.328125 0.1992188,0 0.1992188,-0.19921875 0.1992188,-0.328125 z m 0,0"
       style="fill:#000000;fill-opacity:1;fill-rule:nonzero;stroke:none"
       aria-label="+"
       transform="matrix(1.3333333,0,0,1.3333333,126.532,72.718667)" />
    <path
       id="path10"
       d="m 4.0786094,-2.2968125 h 2.7773437 c 0.140625,0 0.328125,0 0.328125,-0.1992187 0,-0.1992188 -0.1875,-0.1992188 -0.328125,-0.1992188 H 4.0786094 v -2.7890625 c 0,-0.1289062 0,-0.328125 -0.1992188,-0.328125 -0.1992187,0 -0.1992187,0.1992188 -0.1992187,0.328125 V -2.69525 H 0.89110938 c -0.140625,0 -0.328125,0 -0.328125,0.1992188 0,0.1992187 0.1875,0.1992187 0.328125,0.1992187 H 3.6801719 v 2.80078125 c 0,0.12890625 0,0.328125 0.1992187,0.328125 0.1992188,0 0.1992188,-0.19921875 0.1992188,-0.328125 z m 0,0"
       style="fill:#000000;fill-opacity:1;fill-rule:nonzero;stroke:none"
       aria-label="+"
       transform="matrix(1.3333333,0,0,1.3333333,146.69467,72.718667)" />
    <path
       id="path11"
       d="m 6.5619375,-2.2967031 c 0.1757812,0 0.3515625,0 0.3515625,-0.1992188 0,-0.1992187 -0.1757813,-0.1992187 -0.3515625,-0.1992187 h -5.390625 c -0.1640625,0 -0.33984375,0 -0.33984375,0.1992187 0,0.1992188 0.17578125,0.1992188 0.33984375,0.1992188 z m 0,0"
       style="fill:#000000;fill-opacity:1;fill-rule:nonzero;stroke:none"
       aria-label="−"
       transform="matrix(1.3333333,0,0,1.3333333,126.532,102.60133)" />
    <path
       id="path12"
       d="m 6.5629844,-2.2967031 c 0.1757812,0 0.3515625,0 0.3515625,-0.1992188 0,-0.1992187 -0.1757813,-0.1992187 -0.3515625,-0.1992187 h -5.390625 c -0.1640625,0 -0.33984377,0 -0.33984377,0.1992187 0,0.1992188 0.17578127,0.1992188 0.33984377,0.1992188 z m 0,0"
       style="fill:#000000;fill-opacity:1;fill-rule:nonzero;stroke:none"
       aria-label="−"
       transform="matrix(1.3333333,0,0,1.3333333,146.69467,102.60133)" />
    <path
       id="path13"
       d="M 28.3468,-7.08669 H 53.10707"
       style="fill:none;stroke:#000000;stroke-width:0.3985;stroke-linecap:butt;stroke-linejoin:miter;stroke-miterlimit:10;stroke-dasharray:none;stroke-opacity:1"
       transform="matrix(1.3333333,0,0,-1.3333333,28.393333,141.032)" />
    <path
       id="path14"
       d="M 3.58653,0 C 2.52383,0.19925 0.797,0.797 -0.3985,1.49438 V -1.49438 C 0.797,-0.797 2.52383,-0.19925 3.58653,0"
       style="fill:#000000;fill-opacity:1;fill-rule:nonzero;stroke:none"
       transform="matrix(1.3333333,0,0,-1.3333333,99.20276,150.48092)" />
    <path
       id="path15"
       d="m 3.7259609,-6.0356563 c 0.09375,-0.3632812 0.1171875,-0.4570312 0.9023438,-0.4570312 0.2460937,0 0.3164062,0 0.3164062,-0.1875 0,-0.1289063 -0.1054687,-0.1289063 -0.140625,-0.1289063 -0.2929687,0 -1.03125,0.035156 -1.3125,0.035156 -0.3046875,0 -1.03125,-0.035156 -1.3359375,-0.035156 -0.058594,0 -0.1992187,0 -0.1992187,0.1992188 0,0.1171875 0.09375,0.1171875 0.28125,0.1171875 0.421875,0 0.6914062,0 0.6914062,0.1875 0,0.046875 0,0.070312 -0.023437,0.1640625 l -1.3476562,5.3671875 c -0.082031,0.36328125 -0.1171875,0.46875 -0.90234376,0.46875 -0.22265625,0 -0.31640625,0 -0.31640625,0.19921875 C 0.33924219,-5e-4 0.45642969,-5e-4 0.49158594,-5e-4 c 0.28125,0 1.00781246,-0.03515625 1.30078126,-0.03515625 0.3046875,0 1.03125,0.03515625 1.3359375,0.03515625 0.082031,0 0.1992187,0 0.1992187,-0.1875 0,-0.1171875 -0.082031,-0.1171875 -0.3046875,-0.1171875 -0.1757812,0 -0.2226562,0 -0.421875,-0.0234375 -0.2109375,-0.0234375 -0.2460937,-0.0585938 -0.2460937,-0.17578125 0,-0.0703125 0.011719,-0.15234375 0.035156,-0.22265625 z m 0,0"
       style="fill:#000000;fill-opacity:1;fill-rule:nonzero;stroke:none"
       aria-label="I"
       transform="matrix(1.3333333,0,0,1.3333333,81.645333,164.25067)" />
    <path
       id="path16"
       d="M 31.93335,92.1271 H 56.69362"
       style="fill:none;stroke:#000000;stroke-width:0.3985;stroke-linecap:butt;stroke-linejoin:miter;stroke-miterlimit:10;stroke-dasharray:none;stroke-opacity:1"
       transform="matrix(1.3333333,0,0,-1.3333333,28.393333,141.032)" />
    <path
       id="path17"
       d="M 3.58653,0 C 2.52383,0.19925 0.797,0.797 -0.3985,1.49438 V -1.49438 C 0.797,-0.797 2.52383,-0.19925 3.58653,0"
       style="fill:#000000;fill-opacity:1;fill-rule:nonzero;stroke:none"
       transform="matrix(-1.3333333,0,0,1.3333333,70.971133,18.195867)" />
    <path
       id="path18"
       d="m 3.7259609,-6.0352266 c 0.09375,-0.3632812 0.1171875,-0.4570312 0.9023438,-0.4570312 0.2460937,0 0.3164062,0 0.3164062,-0.1875 0,-0.1289063 -0.1054687,-0.1289063 -0.140625,-0.1289063 -0.2929687,0 -1.03125,0.035156 -1.3125,0.035156 -0.3046875,0 -1.03125,-0.035156 -1.3359375,-0.035156 -0.058594,0 -0.1992187,0 -0.1992187,0.1992188 0,0.1171875 0.09375,0.1171875 0.28125,0.1171875 0.421875,0 0.6914062,0 0.6914062,0.1875 0,0.046875 0,0.070312 -0.023437,0.1640625 l -1.3476562,5.36718749 c -0.082031,0.36328125 -0.1171875,0.46875 -0.90234376,0.46875 -0.22265625,0 -0.31640625,0 -0.31640625,0.19921875 0,0.1054687475 0.1171875,0.1054687475 0.15234375,0.1054687475 0.28125,0 1.00781246,-0.0351562475 1.30078126,-0.0351562475 0.3046875,0 1.03125,0.0351562475 1.3359375,0.0351562475 0.082031,0 0.1992187,0 0.1992187,-0.1874999975 0,-0.1171875 -0.082031,-0.1171875 -0.3046875,-0.1171875 -0.1757812,0 -0.2226562,0 -0.421875,-0.0234375 -0.2109375,-0.0234375 -0.2460937,-0.0585938 -0.2460937,-0.17578125 0,-0.0703125 0.011719,-0.15234375 0.035156,-0.22265625 z m 0,0"
       style="fill:#000000;fill-opacity:1;fill-rule:nonzero;stroke:none"
       aria-label="I"
       transform="matrix(1.3333333,0,0,1.3333333,81.645333,13.504)" />
  </g>
</svg>
