<?xml version="1.0" encoding="UTF-8" standalone="no"?>
<!-- Created with Inkscape (http://www.inkscape.org/) -->

<svg
   width="205mm"
   height="180mm"
   viewBox="0 0 205 180"
   version="1.1"
   id="svg5"
   xml:space="preserve"
   sodipodi:docname="FET cross section.svg"
   inkscape:version="1.2.1 (9c6d41e410, 2022-07-14)"
   xmlns:inkscape="http://www.inkscape.org/namespaces/inkscape"
   xmlns:sodipodi="http://sodipodi.sourceforge.net/DTD/sodipodi-0.dtd"
   xmlns="http://www.w3.org/2000/svg"
   xmlns:svg="http://www.w3.org/2000/svg"><sodipodi:namedview
     id="namedview7"
     pagecolor="#ffffff"
     bordercolor="#000000"
     borderopacity="0.25"
     inkscape:showpageshadow="2"
     inkscape:pageopacity="0.0"
     inkscape:pagecheckerboard="0"
     inkscape:deskcolor="#d1d1d1"
     inkscape:document-units="mm"
     showgrid="false"
     inkscape:zoom="0.51783331"
     inkscape:cx="431.60607"
     inkscape:cy="496.2987"
     inkscape:window-width="1366"
     inkscape:window-height="695"
     inkscape:window-x="0"
     inkscape:window-y="0"
     inkscape:window-maximized="1"
     inkscape:current-layer="g2262" /><defs
     id="defs2"><rect
       x="310.59399"
       y="495.13174"
       width="216.44092"
       height="111.23529"
       id="rect2272" /><rect
       x="272.66254"
       y="490.10229"
       width="164.23279"
       height="115.43204"
       id="rect2266" /><rect
       x="135.1059"
       y="21.992081"
       width="662.39398"
       height="209.33365"
       id="rect1947" /><rect
       x="135.1059"
       y="21.992081"
       width="662.39398"
       height="209.33365"
       id="rect1947-2" /><rect
       x="135.1059"
       y="21.992081"
       width="662.39398"
       height="209.33365"
       id="rect1947-2-1" /><rect
       x="135.1059"
       y="21.992081"
       width="662.39398"
       height="209.33365"
       id="rect1947-2-1-7" /><rect
       x="310.59399"
       y="495.13174"
       width="216.44092"
       height="111.23529"
       id="rect2272-9" /><rect
       x="310.59399"
       y="495.13174"
       width="216.44092"
       height="111.23529"
       id="rect2272-9-6" /><rect
       x="310.59399"
       y="495.13174"
       width="289.67629"
       height="92.861845"
       id="rect2272-6" /></defs><g
     inkscape:label="Layer 1"
     inkscape:groupmode="layer"
     id="layer1"><g
       id="g2262"
       transform="translate(-5.1568703,-2.6428494)"><path
         id="path1602-5"
         style="fill:#cccccc;stroke:#000000;stroke-width:1;stroke-linecap:square;stroke-linejoin:miter;stroke-dasharray:none"
         d="M 172.04328,81.121927 V 59.360631 H 108.85805 45.672816 v 21.761297"
         sodipodi:nodetypes="ccccc" /><path
         id="rect1271"
         style="fill:#afc6e9;stroke:#000000;stroke-width:1;stroke-linecap:square;stroke-linejoin:miter;stroke-dasharray:none"
         d="M 13.632634,80.821297 H 203.45792 V 138.55899 H 13.632634 Z" /><path
         style="fill:#ff7f2a;stroke:#000000;stroke-width:1;stroke-linecap:square;stroke-linejoin:miter;stroke-dasharray:none"
         d="m 55.781916,80.915513 c 0,0 -0.408437,2.885881 -1.050964,4.16574 -0.866439,1.725871 -2.032707,3.449773 -3.658225,4.492384 -1.628203,1.044333 -4.074501,0.287895 -5.617958,1.453835 -1.374387,1.038223 -1.290938,3.353805 -2.6128,4.458126 -2.949145,2.463796 -7.077665,3.113866 -10.824679,3.966886 -6.003212,1.366656 -18.384656,1.777996 -18.384656,1.777996 V 80.822403 Z"
         id="path1375"
         sodipodi:nodetypes="csssssc" /><path
         style="fill:#ff7f2a;stroke:#000000;stroke-width:1;stroke-linecap:square;stroke-linejoin:miter;stroke-dasharray:none"
         d="m 161.30864,80.915513 c 0,0 0.40844,2.885881 1.05096,4.16574 0.86644,1.725871 2.03271,3.449771 3.65823,4.492381 1.6282,1.04434 4.0745,0.2879 5.61795,1.45384 1.37439,1.03822 1.29094,3.3538 2.6128,4.45812 2.94915,2.4638 7.07767,3.11387 10.82468,3.96689 6.00322,1.366656 18.38466,1.777996 18.38466,1.777996 V 80.822403 Z"
         id="path1375-5"
         sodipodi:nodetypes="csssssc" /><path
         id="path1512"
         style="fill:#ffdd55;stroke:#000000;stroke-linecap:square"
         d="m 113.413,165.35504 a 5.2584047,5.2584047 0 0 1 -5.2584,5.25841 5.2584047,5.2584047 0 0 1 -5.25841,-5.25841 5.2584047,5.2584047 0 0 1 5.25841,-5.2584 5.2584047,5.2584047 0 0 1 5.2584,5.2584 z m -5.25841,-26.4173 v 21.02862" /><path
         id="path1512-6"
         style="fill:#ffdd55;stroke:#000000;stroke-linecap:square"
         d="m 29.489599,53.403997 a 5.2584047,5.2584047 0 0 1 5.2584,-5.25841 5.2584047,5.2584047 0 0 1 5.25841,5.25841 5.2584047,5.2584047 0 0 1 -5.25841,5.2584 5.2584047,5.2584047 0 0 1 -5.2584,-5.2584 z m 5.25841,26.4173 v -21.02862" /><path
         id="path1512-6-3"
         style="fill:#ffdd55;stroke:#000000;stroke-linecap:square"
         d="m 103.59964,32.111819 a 5.2584047,5.2584047 0 0 1 5.2584,-5.25841 5.2584047,5.2584047 0 0 1 5.25841,5.25841 5.2584047,5.2584047 0 0 1 -5.25841,5.2584 5.2584047,5.2584047 0 0 1 -5.2584,-5.2584 z m 5.25841,26.4173 v -21.02862" /><path
         id="path1512-6-7"
         style="fill:#ffdd55;stroke:#000000;stroke-linecap:square"
         d="m 177.08414,53.403997 a 5.2584047,5.2584047 0 0 1 5.2584,-5.25841 5.2584047,5.2584047 0 0 1 5.25841,5.25841 5.2584047,5.2584047 0 0 1 -5.25841,5.2584 5.2584047,5.2584047 0 0 1 -5.2584,-5.2584 z m 5.25841,26.4173 v -21.02862" /><path
         id="path1602-5-6"
         style="fill:#333333;stroke:#000000;stroke-width:1;stroke-linecap:square;stroke-linejoin:miter;stroke-dasharray:none"
         d="M 172.04328,69.487611 V 59.360631 H 108.85805 45.672815 v 10.126981 z"
         sodipodi:nodetypes="ccccc" /><text
         xml:space="preserve"
         transform="matrix(0.26458333,0,0,0.26458333,-14.538556,3.6061438)"
         id="text1945"
         style="font-size:53.3333px;font-family:'DejaVu Serif';-inkscape-font-specification:'DejaVu Serif';text-align:center;white-space:pre;shape-inside:url(#rect1947);fill:#cccccc;stroke:#000000;stroke-width:3.77953;stroke-linecap:square;stroke-linejoin:miter;stroke-dasharray:none"><tspan
           x="402.43558"
           y="69.179659"
           id="tspan2675"><tspan
             style="font-family:sans-serif;-inkscape-font-specification:sans-serif;fill:#000000;stroke:none"
             id="tspan2673">Gate</tspan></tspan></text><text
         xml:space="preserve"
         transform="matrix(0.26458333,0,0,0.26458333,-88.717498,24.022093)"
         id="text1945-9"
         style="font-size:53.3333px;font-family:'DejaVu Serif';-inkscape-font-specification:'DejaVu Serif';text-align:center;white-space:pre;shape-inside:url(#rect1947-2);display:inline;fill:#cccccc;stroke:#000000;stroke-width:3.77953;stroke-linecap:square;stroke-linejoin:miter;stroke-dasharray:none"><tspan
           x="374.71425"
           y="69.179659"
           id="tspan2679"><tspan
             style="font-family:sans-serif;-inkscape-font-specification:sans-serif;fill:#000000;stroke:none"
             id="tspan2677">Source</tspan></tspan></text><text
         xml:space="preserve"
         transform="matrix(0.26458333,0,0,0.26458333,58.873597,24.146116)"
         id="text1945-9-2"
         style="font-size:53.3333px;font-family:'DejaVu Serif';-inkscape-font-specification:'DejaVu Serif';text-align:center;white-space:pre;shape-inside:url(#rect1947-2-1);display:inline;fill:#cccccc;stroke:#000000;stroke-width:3.77953;stroke-linecap:square;stroke-linejoin:miter;stroke-dasharray:none"><tspan
           x="394.15434"
           y="69.179659"
           id="tspan2683"><tspan
             style="font-family:sans-serif;-inkscape-font-specification:sans-serif;fill:#000000;stroke:none"
             id="tspan2681">Drain</tspan></tspan></text><text
         xml:space="preserve"
         transform="matrix(0.26458333,0,0,0.26458333,13.52537,152.60985)"
         id="text1945-9-2-0"
         style="font-size:53.3333px;font-family:'DejaVu Serif';-inkscape-font-specification:'DejaVu Serif';text-align:center;white-space:pre;shape-inside:url(#rect1947-2-1-7);display:inline;fill:#cccccc;stroke:#000000;stroke-width:3.77953;stroke-linecap:square;stroke-linejoin:miter;stroke-dasharray:none"><tspan
           x="398.98507"
           y="69.179659"
           id="tspan2687"><tspan
             style="font-family:sans-serif;-inkscape-font-specification:sans-serif;fill:#000000;stroke:none"
             id="tspan2685">Body</tspan></tspan></text><text
         xml:space="preserve"
         transform="matrix(0.26458333,0,0,0.26458333,-2.4572485,-12.501758)"
         id="text2270"
         style="font-style:normal;font-variant:normal;font-weight:normal;font-stretch:normal;font-size:40px;font-family:sans-serif;-inkscape-font-specification:sans-serif;text-align:center;white-space:pre;shape-inside:url(#rect2272);fill:#000000;stroke:none;stroke-width:3.77953;stroke-linecap:square;stroke-linejoin:miter;stroke-dasharray:none"><tspan
           x="406.11914"
           y="530.52148"
           id="tspan2689">p</tspan></text><text
         xml:space="preserve"
         transform="matrix(0.26458333,0,0,0.26458333,-11.657075,-61.347023)"
         id="text2270-2"
         style="font-style:normal;font-variant:normal;font-weight:normal;font-stretch:normal;font-size:40px;font-family:sans-serif;-inkscape-font-specification:sans-serif;text-align:center;white-space:pre;shape-inside:url(#rect2272-6);display:inline;fill:#000000;stroke:none;stroke-width:3.77953;stroke-linecap:square;stroke-linejoin:miter;stroke-dasharray:none"><tspan
           x="343.03906"
           y="530.52148"
           id="tspan2691">Gate Oxide</tspan></text><text
         xml:space="preserve"
         transform="matrix(0.26458333,0,0,0.26458333,-81.282783,-46.601147)"
         id="text2270-3"
         style="font-style:normal;font-variant:normal;font-weight:normal;font-stretch:normal;font-size:40px;font-family:sans-serif;-inkscape-font-specification:sans-serif;text-align:center;white-space:pre;shape-inside:url(#rect2272-9);display:inline;fill:#000000;stroke:none;stroke-width:3.77953;stroke-linecap:square;stroke-linejoin:miter;stroke-dasharray:none"><tspan
           x="389.38086"
           y="530.52148"
           id="tspan2693">n+</tspan></text><text
         xml:space="preserve"
         transform="matrix(0.26458333,0,0,0.26458333,76.910892,-46.601147)"
         id="text2270-3-0"
         style="font-style:normal;font-variant:normal;font-weight:normal;font-stretch:normal;font-size:40px;font-family:sans-serif;-inkscape-font-specification:sans-serif;text-align:center;white-space:pre;shape-inside:url(#rect2272-9-6);display:inline;fill:#000000;stroke:none;stroke-width:3.77953;stroke-linecap:square;stroke-linejoin:miter;stroke-dasharray:none"><tspan
           x="389.38086"
           y="530.52148"
           id="tspan2695">n+</tspan></text></g></g></svg>
