<?xml version="1.0" encoding="UTF-8" standalone="no"?>
<!-- Created with Inkscape (http://www.inkscape.org/) -->

<svg
   version="1.1"
   id="svg1"
   width="83.414146"
   height="75.576012"
   viewBox="0 0 83.414147 75.576011"
   xmlns="http://www.w3.org/2000/svg"
   xmlns:svg="http://www.w3.org/2000/svg">
  <defs
     id="defs1">
    <clipPath
       clipPathUnits="userSpaceOnUse"
       id="clipPath7">
      <path
         d="M -16.7084,-22.03084 H 16.70842 V 22.03084 H -16.7084 Z"
         id="path7" />
    </clipPath>
    <clipPath
       clipPathUnits="userSpaceOnUse"
       id="clipPath9">
      <path
         d="M -16.7084,-22.03084 H 16.70842 V 22.03084 H -16.7084 Z"
         id="path9" />
    </clipPath>
    <clipPath
       clipPathUnits="userSpaceOnUse"
       id="clipPath11">
      <path
         d="M -16.7084,-22.03084 H 16.70842 V 22.03084 H -16.7084 Z"
         transform="matrix(0.85262215,-0.52264263,0.52264263,0.85262215,-11.241112,2.4171755)"
         id="path11" />
    </clipPath>
  </defs>
  <g
     id="g1"
     transform="translate(-3.8955947,-4.4257811)">
    <path
       id="path1"
       d="M -9.96277,14.55878 H -30.8818"
       style="fill:none;stroke:#000000;stroke-width:0.79701;stroke-linecap:round;stroke-linejoin:miter;stroke-miterlimit:10;stroke-dasharray:none;stroke-opacity:1"
       transform="matrix(1.3333333,0,0,-1.3333333,45.602667,50.096)" />
    <path
       id="path2"
       d="M 30.8818,14.55878 H 9.96277"
       style="fill:none;stroke:#000000;stroke-width:0.79701;stroke-linecap:round;stroke-linejoin:miter;stroke-miterlimit:10;stroke-dasharray:none;stroke-opacity:1"
       transform="matrix(1.3333333,0,0,-1.3333333,45.602667,50.096)" />
    <path
       id="path3"
       d="M -16.7084,-14.55876 H -30.8818"
       style="fill:none;stroke:#000000;stroke-width:0.79701;stroke-linecap:round;stroke-linejoin:miter;stroke-miterlimit:10;stroke-dasharray:none;stroke-opacity:1"
       transform="matrix(1.3333333,0,0,-1.3333333,45.602667,50.096)" />
    <path
       id="path4"
       d="M 30.8818,-14.55876 H 16.7084"
       style="fill:none;stroke:#000000;stroke-width:0.79701;stroke-linecap:round;stroke-linejoin:miter;stroke-miterlimit:10;stroke-dasharray:none;stroke-opacity:1"
       transform="matrix(1.3333333,0,0,-1.3333333,45.602667,50.096)" />
    <path
       id="path5"
       d="M -16.7084,-22.03084 H 16.70842 V 22.03084 H -16.7084 Z"
       style="fill:#ffffff;fill-opacity:1;fill-rule:nonzero;stroke:none"
       transform="matrix(1.3333333,0,0,-1.3333333,45.602667,50.096)" />
    <path
       id="path6"
       d="m -13.87357,-1.70073 c 6.95537,8.28894 20.79177,8.28894 27.74714,0"
       style="fill:none;stroke:#000000;stroke-width:0.79701;stroke-linecap:butt;stroke-linejoin:miter;stroke-miterlimit:10;stroke-dasharray:none;stroke-opacity:1"
       transform="matrix(1.3333333,0,0,-1.3333333,45.602667,50.096)"
       clip-path="url(#clipPath7)" />
    <path
       id="path8"
       d="M 0,-2.83484 10.84645,3.81369"
       style="fill:none;stroke:#000000;stroke-width:0.79701;stroke-linecap:butt;stroke-linejoin:miter;stroke-miterlimit:10;stroke-dasharray:none;stroke-opacity:1"
       transform="matrix(1.3333333,0,0,-1.3333333,45.602667,50.096)"
       clip-path="url(#clipPath9)" />
    <path
       id="path10"
       d="M 1.92412,0 C 1.68782,0.06175 0.64917,0.41174 0,0.79262 V -0.79262 C 0.64917,-0.41174 1.68782,-0.06175 1.92412,0 Z"
       style="fill:#000000;fill-opacity:1;fill-rule:nonzero;stroke:#000000;stroke-width:0.78903;stroke-linecap:butt;stroke-linejoin:miter;stroke-miterlimit:10;stroke-dasharray:none;stroke-opacity:1"
       transform="matrix(1.1366933,-0.69677333,-0.69677333,-1.1366933,60.064587,45.01108)"
       clip-path="url(#clipPath11)" />
    <path
       id="path12"
       d="M -16.7084,-22.03084 H 16.70842 V 22.03084 H -16.7084 Z"
       style="fill:none;stroke:#000000;stroke-width:0.79701;stroke-linecap:butt;stroke-linejoin:miter;stroke-miterlimit:10;stroke-dasharray:none;stroke-opacity:1"
       transform="matrix(1.3333333,0,0,-1.3333333,45.602667,50.096)" />
    <g
       id="g12"
       aria-label="X&#10;1&#10;X&#10;2"
       transform="matrix(1.3333333,0,0,1.3333333,28.638667,13.505333)">
      <path
         id="path13"
         d="M 4.8266641,-4.0909141 3.9946328,-6.0831016 c -0.035156,-0.070312 -0.046875,-0.1171875 -0.046875,-0.1289062 0,-0.058594 0.1640625,-0.2460938 0.5859375,-0.28125 0.09375,-0.011719 0.1992188,-0.023437 0.1992188,-0.1875 0,-0.1289063 -0.1171875,-0.1289063 -0.1523438,-0.1289063 -0.4101562,0 -0.8320312,0.035156 -1.2539062,0.035156 -0.2460938,0 -0.8671875,-0.035156 -1.1132813,-0.035156 -0.058594,0 -0.1875,0 -0.1875,0.1992188 0,0.1171875 0.1054688,0.1171875 0.234375,0.1171875 0.5976563,0 0.65625,0.09375 0.75,0.3164062 l 1.171875,2.7773438 -2.0976562,2.2617187 -0.1289063,0.1054688 c -0.4921875,0.52734374 -0.96093749,0.69140624 -1.46484374,0.72656249 -0.12890625,0 -0.22265625,0 -0.22265625,0.19921875 0,0 0,0.10546875 0.12890625,0.10546875 0.3046875,0 0.63281254,-0.03515625 0.93750004,-0.03515625 0.3632812,0 0.7617187,0.03515625 1.1132812,0.03515625 0.058594,0 0.1757813,0 0.1757813,-0.19921875 0,-0.10546875 -0.09375,-0.10546875 -0.1171875,-0.10546875 -0.082031,-0.0117188 -0.3984375,-0.0351563 -0.3984375,-0.31640625 0,-0.15234375 0.1523437,-0.31640625 0.2695312,-0.44531254 l 1.0195313,-1.078125 0.890625,-0.9726562 1.0078125,2.37890624 c 0.046875,0.10546875 0.046875,0.1171875 0.046875,0.140625 0,0.0820313 -0.1875,0.24609375 -0.5742188,0.29296875 -0.1054687,0 -0.1992187,0.0117188 -0.1992187,0.1875 0,0.1171875 0.1171875,0.1171875 0.1523437,0.1171875 0.28125,0 0.9726563,-0.03515625 1.2539063,-0.03515625 0.2460937,0 0.8554687,0.03515625 1.1015625,0.03515625 0.070312,0 0.1992187,0 0.1992187,-0.1875 0,-0.1171875 -0.1054687,-0.1171875 -0.1875,-0.1171875 -0.6679687,-0.0117188 -0.6796875,-0.046875 -0.8554687,-0.4453125 C 5.8461953,-1.6768516 5.1782266,-3.2237266 4.9438516,-3.8213828 c 0.6796875,-0.703125 1.734375,-1.8867188 2.0507812,-2.1679688 0.28125,-0.234375 0.6679688,-0.4804687 1.265625,-0.5039062 0.1289063,-0.011719 0.2109375,-0.011719 0.2109375,-0.1992188 0,-0.011719 0,-0.1171875 -0.1289062,-0.1171875 -0.2929688,0 -0.6210938,0.035156 -0.9375,0.035156 -0.3632813,0 -0.7382813,-0.035156 -1.1015625,-0.035156 -0.058594,0 -0.1875,0 -0.1875,0.1992188 0,0.070312 0.046875,0.1054687 0.1171875,0.1171875 0.09375,0.011719 0.3984375,0.023437 0.3984375,0.3046875 0,0.140625 -0.1054688,0.2695312 -0.1875,0.3632812 z m 0,0"
         style="fill:#000000;fill-opacity:1;fill-rule:nonzero;stroke:none" />
      <path
         id="path14"
         d="m 10.58643,-2.9366172 c 0,-0.1875 -0.01172,-0.1992187 -0.210938,-0.1992187 -0.4453123,0.4335937 -1.0781248,0.4453125 -1.3593748,0.4453125 v 0.2460937 c 0.1640625,0 0.6210937,0 1.0078128,-0.1875 v 3.55078126 c 0,0.23437504 0,0.32812504 -0.6914066,0.32812504 H 9.0629922 v 0.2460937 c 0.1289062,-0.011719 0.9843748,-0.023437 1.2421878,-0.023437 0.210937,0 1.089843,0.011719 1.242187,0.023437 V 1.2469766 h -0.257812 c -0.703125,0 -0.703125,-0.09375 -0.703125,-0.32812504 z m 0,0"
         style="fill:#000000;fill-opacity:1;fill-rule:nonzero;stroke:none" />
      <path
         id="path15"
         d="m 17.550297,-4.0909141 -0.832031,-1.9921875 c -0.03516,-0.070312 -0.04687,-0.1171875 -0.04687,-0.1289062 0,-0.058594 0.164062,-0.2460938 0.585937,-0.28125 0.09375,-0.011719 0.199219,-0.023437 0.199219,-0.1875 0,-0.1289063 -0.117188,-0.1289063 -0.152344,-0.1289063 -0.410156,0 -0.832031,0.035156 -1.253906,0.035156 -0.246094,0 -0.867188,-0.035156 -1.113281,-0.035156 -0.05859,0 -0.1875,0 -0.1875,0.1992188 0,0.1171875 0.105468,0.1171875 0.234375,0.1171875 0.597656,0 0.65625,0.09375 0.75,0.3164062 l 1.171875,2.7773438 -2.097657,2.2617187 -0.128906,0.1054688 c -0.492187,0.52734374 -0.960937,0.69140624 -1.464844,0.72656249 -0.128906,0 -0.222656,0 -0.222656,0.19921875 0,0 0,0.10546875 0.128906,0.10546875 0.304688,0 0.632813,-0.03515625 0.9375,-0.03515625 0.363282,0 0.761719,0.03515625 1.113282,0.03515625 0.05859,0 0.175781,0 0.175781,-0.19921875 0,-0.10546875 -0.09375,-0.10546875 -0.117188,-0.10546875 -0.08203,-0.0117188 -0.398437,-0.0351563 -0.398437,-0.31640625 0,-0.15234375 0.152344,-0.31640625 0.269531,-0.44531254 l 1.019531,-1.078125 0.890625,-0.9726562 1.007813,2.37890624 c 0.04687,0.10546875 0.04687,0.1171875 0.04687,0.140625 0,0.0820313 -0.1875,0.24609375 -0.574219,0.29296875 -0.105469,0 -0.199219,0.0117188 -0.199219,0.1875 0,0.1171875 0.117188,0.1171875 0.152344,0.1171875 0.28125,0 0.972656,-0.03515625 1.253906,-0.03515625 0.246094,0 0.855469,0.03515625 1.101563,0.03515625 0.07031,0 0.199219,0 0.199219,-0.1875 0,-0.1171875 -0.105469,-0.1171875 -0.1875,-0.1171875 -0.667969,-0.0117188 -0.679688,-0.046875 -0.855469,-0.4453125 -0.386719,-0.92578129 -1.054688,-2.47265629 -1.289063,-3.07031249 0.679688,-0.703125 1.734375,-1.8867188 2.050782,-2.1679688 0.28125,-0.234375 0.667968,-0.4804687 1.265625,-0.5039062 0.128906,-0.011719 0.210937,-0.011719 0.210937,-0.1992188 0,-0.011719 0,-0.1171875 -0.128906,-0.1171875 -0.292969,0 -0.621094,0.035156 -0.9375,0.035156 -0.363281,0 -0.738281,-0.035156 -1.101563,-0.035156 -0.05859,0 -0.1875,0 -0.1875,0.1992188 0,0.070312 0.04687,0.1054687 0.117188,0.1171875 0.09375,0.011719 0.398437,0.023437 0.398437,0.3046875 0,0.140625 -0.105468,0.2695312 -0.1875,0.3632812 z m 0,0"
         style="fill:#000000;fill-opacity:1;fill-rule:nonzero;stroke:none" />
      <path
         id="path16"
         d="m 24.493656,0.22744531 h -0.234375 c -0.02344,0.15234375 -0.08203,0.5625 -0.175781,0.6328125 -0.05859,0.0351563 -0.597656,0.0351563 -0.691406,0.0351563 h -1.289063 c 0.738281,-0.64453125 0.984375,-0.84375 1.394531,-1.171875 0.515625,-0.41015625 0.996094,-0.84374991 0.996094,-1.49999991 0,-0.8437501 -0.738281,-1.3593751 -1.628906,-1.3593751 -0.867188,0 -1.453125,0.609375 -1.453125,1.2421876 0,0.3632812 0.304687,0.3984375 0.375,0.3984375 0.164062,0 0.375,-0.1171875 0.375,-0.375 0,-0.1289063 -0.05859,-0.3632814 -0.421875,-0.3632814 0.222656,-0.5039062 0.691406,-0.65625 1.019531,-0.65625 0.703125,0 1.066406,0.5507813 1.066406,1.1132813 0,0.609375 -0.433593,1.08984376 -0.65625,1.33593751 l -1.6875,1.66406249 c -0.07031,0.058594 -0.07031,0.070312 -0.07031,0.2695312 h 2.882812 z m 0,0"
         style="fill:#000000;fill-opacity:1;fill-rule:nonzero;stroke:none" />
    </g>
  </g>
</svg>
