<?xml version="1.0" encoding="UTF-8" standalone="no"?>
<!-- Created with Inkscape (http://www.inkscape.org/) -->

<svg
   version="1.1"
   id="svg1"
   width="113.18749"
   height="41.160156"
   viewBox="0 0 113.18749 41.160156"
   xmlns="http://www.w3.org/2000/svg"
   xmlns:svg="http://www.w3.org/2000/svg">
  <defs
     id="defs1">
    <clipPath
       clipPathUnits="userSpaceOnUse"
       id="clipPath12">
      <path
         d="M 4.22711,0 C 4.22711,2.3346 2.3346,4.22711 0,4.22711 -2.3346,4.22711 -4.22711,2.3346 -4.22711,0 c 0,-2.3346 1.89251,-4.22711 4.22711,-4.22711 2.3346,0 4.22711,1.89251 4.22711,4.22711 z"
         id="path12" />
    </clipPath>
  </defs>
  <g
     id="g1"
     transform="translate(-6.0039063,-4.4218755)">
    <path
       id="path1"
       d="M -7.08669,10.0116 V -4.9588"
       style="fill:none;stroke:#000000;stroke-width:0.79701;stroke-linecap:round;stroke-linejoin:miter;stroke-miterlimit:10;stroke-dasharray:none;stroke-opacity:1"
       transform="matrix(1.3333333,0,0,-1.3333333,62.549333,26.685333)" />
    <path
       id="path2"
       d="m -8.78741,11.71233 h -17.0983"
       style="fill:none;stroke:#000000;stroke-width:0.79701;stroke-linecap:round;stroke-linejoin:miter;stroke-miterlimit:10;stroke-dasharray:none;stroke-opacity:1"
       transform="matrix(1.3333333,0,0,-1.3333333,62.549333,26.685333)" />
    <path
       id="path3"
       d="M 11.71233,11.71233 H -5.38594"
       style="fill:none;stroke:#000000;stroke-width:0.79701;stroke-linecap:round;stroke-linejoin:miter;stroke-miterlimit:10;stroke-dasharray:none;stroke-opacity:1"
       transform="matrix(1.3333333,0,0,-1.3333333,62.549333,26.685333)" />
    <path
       id="path4"
       d="M 11.71233,11.71233 H -5.38594"
       style="fill:none;stroke:#000000;stroke-width:0.79701;stroke-linecap:round;stroke-linejoin:miter;stroke-miterlimit:10;stroke-dasharray:none;stroke-opacity:1"
       transform="matrix(1.3333333,0,0,-1.3333333,62.549333,26.685333)" />
    <path
       id="path5"
       d="M 25.88573,11.71233 H 11.71233"
       style="fill:none;stroke:#000000;stroke-width:0.79701;stroke-linecap:round;stroke-linejoin:miter;stroke-miterlimit:10;stroke-dasharray:none;stroke-opacity:1"
       transform="matrix(1.3333333,0,0,-1.3333333,62.549333,26.685333)" />
    <path
       id="path6"
       d="m -11.31381,-9.18593 h -14.5719"
       style="fill:none;stroke:#000000;stroke-width:0.79701;stroke-linecap:round;stroke-linejoin:miter;stroke-miterlimit:10;stroke-dasharray:none;stroke-opacity:1"
       transform="matrix(1.3333333,0,0,-1.3333333,62.549333,26.685333)" />
    <path
       id="path7"
       d="M 11.71233,-9.18593 H -2.85956"
       style="fill:none;stroke:#000000;stroke-width:0.79701;stroke-linecap:round;stroke-linejoin:miter;stroke-miterlimit:10;stroke-dasharray:none;stroke-opacity:1"
       transform="matrix(1.3333333,0,0,-1.3333333,62.549333,26.685333)" />
    <path
       id="path8"
       d="M 11.71233,-9.18593 H -2.85956"
       style="fill:none;stroke:#000000;stroke-width:0.79701;stroke-linecap:round;stroke-linejoin:miter;stroke-miterlimit:10;stroke-dasharray:none;stroke-opacity:1"
       transform="matrix(1.3333333,0,0,-1.3333333,62.549333,26.685333)" />
    <path
       id="path9"
       d="M 25.88573,-9.18593 H 11.71233"
       style="fill:none;stroke:#000000;stroke-width:0.79701;stroke-linecap:round;stroke-linejoin:miter;stroke-miterlimit:10;stroke-dasharray:none;stroke-opacity:1"
       transform="matrix(1.3333333,0,0,-1.3333333,62.549333,26.685333)" />
    <path
       id="path10"
       d="M 1.70073,0 C 1.70073,0.93929 0.93929,1.70073 0,1.70073 -0.93929,1.70073 -1.70073,0.93929 -1.70073,0 c 0,-0.93929 0.76144,-1.70073 1.70073,-1.70073 0.93929,0 1.70073,0.76144 1.70073,1.70073 z"
       style="fill:#000000;fill-opacity:1;fill-rule:nonzero;stroke:#000000;stroke-width:0.79701;stroke-linecap:butt;stroke-linejoin:miter;stroke-miterlimit:10;stroke-dasharray:none;stroke-opacity:1"
       transform="matrix(1.3333333,0,0,-1.3333333,53.1,11.069333)" />
    <path
       id="path11"
       d="M 0,4.22711 V -4.22711 M -4.22711,0 h 8.45422"
       style="fill:none;stroke:#000000;stroke-width:0.79701;stroke-linecap:butt;stroke-linejoin:miter;stroke-miterlimit:10;stroke-dasharray:none;stroke-opacity:1"
       transform="matrix(1.3333333,0,0,-1.3333333,53.1,38.933333)"
       clip-path="url(#clipPath12)" />
    <path
       id="path13"
       d="M 4.22711,0 C 4.22711,2.3346 2.3346,4.22711 0,4.22711 -2.3346,4.22711 -4.22711,2.3346 -4.22711,0 c 0,-2.3346 1.89251,-4.22711 4.22711,-4.22711 2.3346,0 4.22711,1.89251 4.22711,4.22711 z"
       style="fill:none;stroke:#000000;stroke-width:0.79701;stroke-linecap:butt;stroke-linejoin:miter;stroke-miterlimit:10;stroke-dasharray:none;stroke-opacity:1"
       transform="matrix(1.3333333,0,0,-1.3333333,53.1,38.933333)" />
    <g
       id="g13"
       aria-label="|0⟩"
       transform="matrix(1.3333333,0,0,1.3333333,6.9146667,14.390667)">
      <path
         id="path14"
         d="m 1.5815781,-7.1133125 c 0,-0.1757813 0,-0.3632813 -0.1992187,-0.3632813 -0.1992188,0 -0.1992188,0.1875 -0.1992188,0.3632813 v 9.2460937 c 0,0.1757813 0,0.3632813 0.1992188,0.3632813 0.1992187,0 0.1992187,-0.1875 0.1992187,-0.3632813 z m 0,0"
         style="fill:#000000;fill-opacity:1;fill-rule:nonzero;stroke:none" />
      <path
         id="path15"
         d="m 7.3501328,-3.1875313 c 0,-0.796875 -0.046875,-1.59375 -0.3984375,-2.3320312 -0.4570312,-0.9609375 -1.2773437,-1.1132813 -1.6875,-1.1132813 -0.5976562,0 -1.3359375,0.2578125 -1.734375,1.1835938 -0.328125,0.6914062 -0.375,1.4648437 -0.375,2.2617187 0,0.75 0.046875,1.640625 0.4453125,2.4023438 0.4335938,0.80859375 1.1601563,1.0078125 1.6523438,1.0078125 0.5390625,0 1.2890625,-0.2109375 1.734375,-1.16015625 C 7.3032578,-1.6289375 7.3501328,-2.402375 7.3501328,-3.1875313 Z M 5.2524766,-3.125e-5 c -0.3867188,0 -0.984375,-0.24609375 -1.1601563,-1.20703125 -0.1054687,-0.5976563 -0.1054687,-1.5117188 -0.1054687,-2.0976563 0,-0.6445312 0,-1.3007812 0.082031,-1.8398437 0.1875,-1.1835938 0.9257813,-1.265625 1.1835938,-1.265625 0.328125,0 0.984375,0.1757812 1.171875,1.1601562 0.09375,0.5625 0.09375,1.3125 0.09375,1.9453125 0,0.75 0,1.4179688 -0.1054688,2.0625 C 6.2602891,-0.30471875 5.6977891,-3.125e-5 5.2524766,-3.125e-5 Z m 0,0"
         style="fill:#000000;fill-opacity:1;fill-rule:nonzero;stroke:none" />
      <path
         id="path16"
         d="m 10.46732,-2.3203438 c 0.04687,-0.1171875 0.04687,-0.140625 0.04687,-0.1757812 0,-0.023437 0,-0.046875 -0.04687,-0.1640625 L 8.7212266,-7.2422188 c -0.058594,-0.1640625 -0.1171875,-0.234375 -0.2226563,-0.234375 -0.1171875,0 -0.1992187,0.09375 -0.1992187,0.1992188 0,0.035156 0,0.058594 0.046875,0.1640625 L 10.104039,-2.496125 8.3462266,2.1093437 c -0.046875,0.1171875 -0.046875,0.1289063 -0.046875,0.1875 0,0.1054688 0.082031,0.1992188 0.1992187,0.1992188 0.1289063,0 0.1640625,-0.1054688 0.2109375,-0.1992188 z m 0,0"
         style="fill:#000000;fill-opacity:1;fill-rule:nonzero;stroke:none" />
    </g>
    <g
       id="g16"
       aria-label="|0⟩"
       transform="matrix(1.3333333,0,0,1.3333333,102.68533,14.390667)">
      <path
         id="path17"
         d="m 1.5807266,-7.1133125 c 0,-0.1757813 0,-0.3632813 -0.1992188,-0.3632813 -0.1992187,0 -0.1992187,0.1875 -0.1992187,0.3632813 v 9.2460937 c 0,0.1757813 0,0.3632813 0.1992187,0.3632813 0.1992188,0 0.1992188,-0.1875 0.1992188,-0.3632813 z m 0,0"
         style="fill:#000000;fill-opacity:1;fill-rule:nonzero;stroke:none" />
      <path
         id="path18"
         d="m 7.3492813,-3.1875313 c 0,-0.796875 -0.046875,-1.59375 -0.3984375,-2.3320312 C 6.4938125,-6.4805 5.6735,-6.6328438 5.2633438,-6.6328438 c -0.5976563,0 -1.3359375,0.2578125 -1.734375,1.1835938 -0.328125,0.6914062 -0.375,1.4648437 -0.375,2.2617187 0,0.75 0.046875,1.640625 0.4453125,2.4023438 C 4.032875,0.02340625 4.7594375,0.222625 5.251625,0.222625 5.7906875,0.222625 6.5406875,0.0116875 6.986,-0.93753125 7.3024063,-1.6289375 7.3492813,-2.402375 7.3492813,-3.1875313 Z M 5.251625,-3.125e-5 C 4.8649063,-3.125e-5 4.26725,-0.246125 4.0914688,-1.2070625 3.986,-1.8047188 3.986,-2.7187813 3.986,-3.3047188 c 0,-0.6445312 0,-1.3007812 0.082031,-1.8398437 0.1875,-1.1835938 0.9257812,-1.265625 1.1835937,-1.265625 0.328125,0 0.984375,0.1757812 1.171875,1.1601562 0.09375,0.5625 0.09375,1.3125 0.09375,1.9453125 0,0.75 0,1.4179688 -0.1054687,2.0625 C 6.2594375,-0.30471875 5.6969375,-3.125e-5 5.251625,-3.125e-5 Z m 0,0"
         style="fill:#000000;fill-opacity:1;fill-rule:nonzero;stroke:none" />
      <path
         id="path19"
         d="m 10.466469,-2.3203438 c 0.04687,-0.1171875 0.04687,-0.140625 0.04687,-0.1757812 0,-0.023437 0,-0.046875 -0.04687,-0.1640625 L 8.720375,-7.2422188 c -0.058594,-0.1640625 -0.1171875,-0.234375 -0.2226562,-0.234375 -0.1171875,0 -0.1992188,0.09375 -0.1992188,0.1992188 0,0.035156 0,0.058594 0.046875,0.1640625 L 10.103188,-2.496125 8.345375,2.1093437 C 8.2985,2.2265312 8.2985,2.23825 8.2985,2.2968437 c 0,0.1054688 0.082031,0.1992188 0.1992188,0.1992188 0.1289062,0 0.1640625,-0.1054688 0.2109375,-0.1992188 z m 0,0"
         style="fill:#000000;fill-opacity:1;fill-rule:nonzero;stroke:none" />
    </g>
    <g
       id="g19"
       aria-label="|ψ⟩"
       transform="matrix(1.3333333,0,0,1.3333333,4.4266667,42.254667)">
      <path
         id="path20"
         d="m 1.5813672,-7.1138516 c 0,-0.1757812 0,-0.3632812 -0.1992188,-0.3632812 -0.1992187,0 -0.1992187,0.1875 -0.1992187,0.3632812 v 9.2460938 c 0,0.1757812 0,0.3632812 0.1992187,0.3632812 0.1992188,0 0.1992188,-0.1875 0.1992188,-0.3632812 z m 0,0"
         style="fill:#000000;fill-opacity:1;fill-rule:nonzero;stroke:none" />
      <path
         id="path21"
         d="m 7.5725781,-6.6568203 c 0.011719,-0.035156 0.023437,-0.09375 0.023437,-0.1523438 0,-0.09375 -0.070312,-0.1054687 -0.1171875,-0.1054687 -0.09375,0 -0.1054687,0.023437 -0.1523437,0.1992187 l -1.6523438,6.58593754 c -0.75,-0.09375 -1.1367187,-0.45703125 -1.1367187,-1.11328124 0,-0.1992188 0,-0.4570313 0.5390625,-1.8515625 0.046875,-0.1289063 0.1171875,-0.2929688 0.1171875,-0.4921875 0,-0.4453125 -0.328125,-0.8203125 -0.8203125,-0.8203125 -0.9492188,0 -1.3125,1.453125 -1.3125,1.5351562 0,0.1054688 0.09375,0.1054688 0.1171875,0.1054688 0.09375,0 0.1054687,-0.023437 0.1523437,-0.1875 0.2695313,-0.9375 0.6679688,-1.2304688 1.0078125,-1.2304688 0.082031,0 0.2578125,0 0.2578125,0.3164063 0,0.2578125 -0.1054687,0.515625 -0.234375,0.8554687 -0.4804687,1.2539063 -0.4804687,1.5117188 -0.4804687,1.6875 0,0.94921879 0.7851562,1.35937504 1.734375,1.41796879 -0.082031,0.3515625 -0.082031,0.375 -0.2226563,0.90234375 C 5.3694531,1.1009922 5.1702344,1.9095859 5.1702344,1.9447422 c 0,0.011719 0,0.09375 0.1171875,0.09375 0.023437,0 0.070312,0 0.09375,-0.035156 C 5.4046089,1.9798982 5.4632029,1.733805 5.4983594,1.59318 l 0.375,-1.48828126 c 0.375,0 1.2421875,0 2.1796875,-1.06640625 C 8.4632031,-1.4185388 8.6741406,-1.8521325 8.7796094,-2.15682 c 0.09375,-0.2460938 0.3164062,-1.1132813 0.3164062,-1.546875 0,-0.5625 -0.2695312,-0.703125 -0.4453125,-0.703125 -0.2460937,0 -0.4921875,0.2578125 -0.4921875,0.4804687 0,0.1289063 0.058594,0.1875 0.1523438,0.2695313 0.1054687,0.1054687 0.3515625,0.3632812 0.3515625,0.84375 0,0.6445312 -0.515625,1.453125 -0.8671875,1.81640624 -0.8789063,0.890625 -1.5117188,0.890625 -1.875,0.890625 z m 0,0"
         style="fill:#000000;fill-opacity:1;fill-rule:nonzero;stroke:none" />
      <path
         id="path22"
         d="m 12.33332,-2.3208828 c 0.04687,-0.1171875 0.04687,-0.140625 0.04687,-0.1757813 0,-0.023437 0,-0.046875 -0.04687,-0.1640625 l -1.746093,-4.5820312 c -0.05859,-0.1640625 -0.117188,-0.234375 -0.222657,-0.234375 -0.117187,0 -0.199218,0.09375 -0.199218,0.1992187 0,0.035156 0,0.058594 0.04687,0.1640625 l 1.757812,4.6171875 -1.757812,4.6054688 c -0.04687,0.1171875 -0.04687,0.1289062 -0.04687,0.1875 0,0.1054687 0.08203,0.1992187 0.199218,0.1992187 0.128907,0 0.164063,-0.1054687 0.210938,-0.1992187 z m 0,0"
         style="fill:#000000;fill-opacity:1;fill-rule:nonzero;stroke:none" />
    </g>
    <g
       id="g22"
       aria-label="|ψ⟩"
       transform="matrix(1.3333333,0,0,1.3333333,102.68533,42.254667)">
      <path
         id="path23"
         d="m 1.5807266,-7.1138516 c 0,-0.1757812 0,-0.3632812 -0.1992188,-0.3632812 -0.1992187,0 -0.1992187,0.1875 -0.1992187,0.3632812 v 9.2460938 c 0,0.1757812 0,0.3632812 0.1992187,0.3632812 0.1992188,0 0.1992188,-0.1875 0.1992188,-0.3632812 z m 0,0"
         style="fill:#000000;fill-opacity:1;fill-rule:nonzero;stroke:none" />
      <path
         id="path24"
         d="m 7.5719375,-6.6568203 c 0.011719,-0.035156 0.023437,-0.09375 0.023437,-0.1523438 0,-0.09375 -0.070312,-0.1054687 -0.1171875,-0.1054687 -0.09375,0 -0.1054687,0.023437 -0.1523437,0.1992187 L 5.6735,-0.12947656 c -0.75,-0.09375 -1.1367187,-0.45703125 -1.1367187,-1.11328124 0,-0.1992188 0,-0.4570313 0.5390625,-1.8515625 0.046875,-0.1289063 0.1171875,-0.2929688 0.1171875,-0.4921875 0,-0.4453125 -0.328125,-0.8203125 -0.8203125,-0.8203125 -0.9492188,0 -1.3125,1.453125 -1.3125,1.5351562 0,0.1054688 0.09375,0.1054688 0.1171875,0.1054688 0.09375,0 0.1054687,-0.023437 0.1523437,-0.1875 0.2695313,-0.9375 0.6679688,-1.2304688 1.0078125,-1.2304688 0.082031,0 0.2578125,0 0.2578125,0.3164063 0,0.2578125 -0.1054687,0.515625 -0.234375,0.8554687 -0.4804687,1.2539063 -0.4804687,1.5117188 -0.4804687,1.6875 0,0.94921879 0.7851562,1.35937504 1.734375,1.41796879 -0.082031,0.3515625 -0.082031,0.375 -0.2226563,0.90234375 C 5.3688125,1.1009922 5.1695938,1.9095859 5.1695938,1.9447422 c 0,0.011719 0,0.09375 0.1171875,0.09375 0.023437,0 0.070312,0 0.09375,-0.035156 C 5.4039683,1.9798982 5.4625623,1.733805 5.4977188,1.59318 l 0.375,-1.48828126 c 0.375,0 1.2421875,0 2.1796875,-1.06640625 C 8.4625625,-1.4185391 8.6735,-1.8521328 8.7789688,-2.1568203 c 0.09375,-0.2460938 0.3164062,-1.1132813 0.3164062,-1.546875 0,-0.5625 -0.2695312,-0.703125 -0.4453125,-0.703125 -0.2460937,0 -0.4921875,0.2578125 -0.4921875,0.4804687 0,0.1289063 0.058594,0.1875 0.1523438,0.2695313 0.1054687,0.1054687 0.3515625,0.3632812 0.3515625,0.84375 0,0.6445312 -0.515625,1.453125 -0.8671875,1.81640624 -0.8789063,0.890625 -1.5117188,0.890625 -1.875,0.890625 z m 0,0"
         style="fill:#000000;fill-opacity:1;fill-rule:nonzero;stroke:none" />
      <path
         id="path25"
         d="m 12.33268,-2.3208828 c 0.04687,-0.1171875 0.04687,-0.140625 0.04687,-0.1757813 0,-0.023437 0,-0.046875 -0.04687,-0.1640625 l -1.746094,-4.5820312 c -0.05859,-0.1640625 -0.117188,-0.234375 -0.222656,-0.234375 -0.117188,0 -0.199219,0.09375 -0.199219,0.1992187 0,0.035156 0,0.058594 0.04687,0.1640625 l 1.757812,4.6171875 -1.757812,4.6054688 c -0.04687,0.1171875 -0.04687,0.1289062 -0.04687,0.1875 0,0.1054687 0.08203,0.1992187 0.199219,0.1992187 0.128906,0 0.164062,-0.1054687 0.210937,-0.1992187 z m 0,0"
         style="fill:#000000;fill-opacity:1;fill-rule:nonzero;stroke:none" />
    </g>
  </g>
</svg>
