<?xml version="1.0" encoding="UTF-8" standalone="no"?>
<!-- Created with Inkscape (http://www.inkscape.org/) -->

<svg
   version="1.1"
   id="svg1"
   width="228.27344"
   height="51.947582"
   viewBox="0 0 228.27344 51.947582"
   xmlns="http://www.w3.org/2000/svg"
   xmlns:svg="http://www.w3.org/2000/svg">
  <defs
     id="defs1">
    <clipPath
       clipPathUnits="userSpaceOnUse"
       id="clipPath15">
      <path
         d="M 4.22711,0 C 4.22711,2.3346 2.3346,4.22711 0,4.22711 -2.3346,4.22711 -4.22711,2.3346 -4.22711,0 c 0,-2.3346 1.89251,-4.22711 4.22711,-4.22711 2.3346,0 4.22711,1.89251 4.22711,4.22711 z"
         id="path15" />
    </clipPath>
  </defs>
  <g
     id="g1"
     transform="translate(-6.0039063,-3.8961673)">
    <path
       id="path1"
       d="m -27.32962,11.71233 h -14.1734"
       style="fill:none;stroke:#000000;stroke-width:0.79701;stroke-linecap:round;stroke-linejoin:miter;stroke-miterlimit:10;stroke-dasharray:none;stroke-opacity:1"
       transform="matrix(1.3333333,0,0,-1.3333333,80.884,29.896)" />
    <path
       id="path2"
       d="M 8.5306,10.0116 V -10.2486"
       style="fill:none;stroke:#000000;stroke-width:0.79701;stroke-linecap:round;stroke-linejoin:miter;stroke-miterlimit:10;stroke-dasharray:none;stroke-opacity:1"
       transform="matrix(1.3333333,0,0,-1.3333333,80.884,29.896)" />
    <path
       id="path3"
       d="M 6.82986,11.71233 H -10.26842"
       style="fill:none;stroke:#000000;stroke-width:0.79701;stroke-linecap:round;stroke-linejoin:miter;stroke-miterlimit:10;stroke-dasharray:none;stroke-opacity:1"
       transform="matrix(1.3333333,0,0,-1.3333333,80.884,29.896)" />
    <path
       id="path4"
       d="M 27.32962,11.71233 H 10.23134"
       style="fill:none;stroke:#000000;stroke-width:0.79701;stroke-linecap:round;stroke-linejoin:miter;stroke-miterlimit:10;stroke-dasharray:none;stroke-opacity:1"
       transform="matrix(1.3333333,0,0,-1.3333333,80.884,29.896)" />
    <path
       id="path5"
       d="M 27.32962,11.71233 H 10.23134"
       style="fill:none;stroke:#000000;stroke-width:0.79701;stroke-linecap:round;stroke-linejoin:miter;stroke-miterlimit:10;stroke-dasharray:none;stroke-opacity:1"
       transform="matrix(1.3333333,0,0,-1.3333333,80.884,29.896)" />
    <path
       id="path6"
       d="M 41.50302,11.71233 H 27.32962"
       style="fill:none;stroke:#000000;stroke-width:0.79701;stroke-linecap:round;stroke-linejoin:miter;stroke-miterlimit:10;stroke-dasharray:none;stroke-opacity:1"
       transform="matrix(1.3333333,0,0,-1.3333333,80.884,29.896)" />
    <path
       id="path7"
       d="M -18.79901,-14.47572 H -41.50302"
       style="fill:none;stroke:#000000;stroke-width:0.79701;stroke-linecap:round;stroke-linejoin:miter;stroke-miterlimit:10;stroke-dasharray:none;stroke-opacity:1"
       transform="matrix(1.3333333,0,0,-1.3333333,80.884,29.896)" />
    <path
       id="path8"
       d="M -18.79901,-14.47572 H -41.50302"
       style="fill:none;stroke:#000000;stroke-width:0.79701;stroke-linecap:round;stroke-linejoin:miter;stroke-miterlimit:10;stroke-dasharray:none;stroke-opacity:1"
       transform="matrix(1.3333333,0,0,-1.3333333,80.884,29.896)" />
    <path
       id="path9"
       d="M 4.30348,-14.47572 H -18.79901"
       style="fill:none;stroke:#000000;stroke-width:0.79701;stroke-linecap:round;stroke-linejoin:miter;stroke-miterlimit:10;stroke-dasharray:none;stroke-opacity:1"
       transform="matrix(1.3333333,0,0,-1.3333333,80.884,29.896)" />
    <path
       id="path10"
       d="M 27.32962,-14.47572 H 12.75772"
       style="fill:none;stroke:#000000;stroke-width:0.79701;stroke-linecap:round;stroke-linejoin:miter;stroke-miterlimit:10;stroke-dasharray:none;stroke-opacity:1"
       transform="matrix(1.3333333,0,0,-1.3333333,80.884,29.896)" />
    <path
       id="path11"
       d="M 27.32962,-14.47572 H 12.75772"
       style="fill:none;stroke:#000000;stroke-width:0.79701;stroke-linecap:round;stroke-linejoin:miter;stroke-miterlimit:10;stroke-dasharray:none;stroke-opacity:1"
       transform="matrix(1.3333333,0,0,-1.3333333,80.884,29.896)" />
    <path
       id="path12"
       d="M 41.50302,-14.47572 H 27.32962"
       style="fill:none;stroke:#000000;stroke-width:0.79701;stroke-linecap:round;stroke-linejoin:miter;stroke-miterlimit:10;stroke-dasharray:none;stroke-opacity:1"
       transform="matrix(1.3333333,0,0,-1.3333333,80.884,29.896)" />
    <path
       id="path13"
       d="M 1.70073,0 C 1.70073,0.93929 0.93929,1.70073 0,1.70073 -0.93929,1.70073 -1.70073,0.93929 -1.70073,0 c 0,-0.93929 0.76144,-1.70073 1.70073,-1.70073 0.93929,0 1.70073,0.76144 1.70073,1.70073 z"
       style="fill:#000000;fill-opacity:1;fill-rule:nonzero;stroke:#000000;stroke-width:0.79701;stroke-linecap:butt;stroke-linejoin:miter;stroke-miterlimit:10;stroke-dasharray:none;stroke-opacity:1"
       transform="matrix(1.3333333,0,0,-1.3333333,92.258667,14.278667)" />
    <path
       id="path14"
       d="M 0,4.22711 V -4.22711 M -4.22711,0 h 8.45422"
       style="fill:none;stroke:#000000;stroke-width:0.79701;stroke-linecap:butt;stroke-linejoin:miter;stroke-miterlimit:10;stroke-dasharray:none;stroke-opacity:1"
       transform="matrix(1.3333333,0,0,-1.3333333,92.258667,49.196)"
       clip-path="url(#clipPath15)" />
    <path
       id="path16"
       d="M 4.22711,0 C 4.22711,2.3346 2.3346,4.22711 0,4.22711 -2.3346,4.22711 -4.22711,2.3346 -4.22711,0 c 0,-2.3346 1.89251,-4.22711 4.22711,-4.22711 2.3346,0 4.22711,1.89251 4.22711,4.22711 z"
       style="fill:none;stroke:#000000;stroke-width:0.79701;stroke-linecap:butt;stroke-linejoin:miter;stroke-miterlimit:10;stroke-dasharray:none;stroke-opacity:1"
       transform="matrix(1.3333333,0,0,-1.3333333,92.258667,49.196)" />
    <g
       id="g16"
       aria-label="|0⟩"
       transform="matrix(1.3333333,0,0,1.3333333,4.428,17.6)">
      <path
         id="path17"
         d="m 1.5832969,-7.1121094 c 0,-0.1757812 0,-0.3632812 -0.1992188,-0.3632812 -0.1992187,0 -0.1992187,0.1875 -0.1992187,0.3632812 v 9.2460938 c 0,0.1757812 0,0.3632812 0.1992187,0.3632812 0.1992188,0 0.1992188,-0.1875 0.1992188,-0.3632812 z m 0,0"
         style="fill:#000000;fill-opacity:1;fill-rule:nonzero;stroke:none" />
      <path
         id="path18"
         d="m 7.3489219,-3.1863281 c 0,-0.796875 -0.046875,-1.59375 -0.3984375,-2.3320313 -0.4570313,-0.9609375 -1.2773438,-1.1132812 -1.6875,-1.1132812 -0.5976563,0 -1.3359375,0.2578125 -1.734375,1.1835937 -0.328125,0.6914063 -0.375,1.4648438 -0.375,2.2617188 0,0.75 0.046875,1.640625 0.4453125,2.40234372 0.4335937,0.80859375 1.1601562,1.0078125 1.6523437,1.0078125 0.5390625,0 1.2890625,-0.2109375 1.734375,-1.16015625 C 7.3020469,-1.6277344 7.3489219,-2.4011719 7.3489219,-3.1863281 Z M 5.2512656,0.00117187 c -0.3867187,0 -0.984375,-0.24609375 -1.1601562,-1.20703127 -0.1054688,-0.5976562 -0.1054688,-1.5117187 -0.1054688,-2.0976562 0,-0.6445313 0,-1.3007813 0.082031,-1.8398438 0.1875,-1.1835937 0.9257812,-1.265625 1.1835937,-1.265625 0.328125,0 0.984375,0.1757813 1.171875,1.1601563 0.09375,0.5625 0.09375,1.3125 0.09375,1.9453125 0,0.75 0,1.4179687 -0.1054687,2.0625 -0.1523438,0.93749997 -0.7148438,1.24218747 -1.160156,1.24218747 z m 0,0"
         style="fill:#000000;fill-opacity:1;fill-rule:nonzero;stroke:none" />
      <path
         id="path19"
         d="m 10.466109,-2.3191406 c 0.04687,-0.1171875 0.04687,-0.140625 0.04687,-0.1757813 0,-0.023437 0,-0.046875 -0.04687,-0.1640625 L 8.7200156,-7.2410156 c -0.058594,-0.1640625 -0.1171875,-0.234375 -0.2226562,-0.234375 -0.1171875,0 -0.1992188,0.09375 -0.1992188,0.1992187 0,0.035156 0,0.058594 0.046875,0.1640625 l 1.7578124,4.6171875 -1.7578124,4.6054688 c -0.046875,0.1171875 -0.046875,0.1289062 -0.046875,0.1875 0,0.1054687 0.082031,0.1992187 0.1992188,0.1992187 0.1289062,0 0.1640625,-0.1054687 0.2109375,-0.1992187 z m 0,0"
         style="fill:#000000;fill-opacity:1;fill-rule:nonzero;stroke:none" />
    </g>
    <path
       id="path20"
       d="m -27.32962,4.32329 h 17.0612 v 14.77808 h -17.0612 z"
       style="fill:#ffffff;fill-opacity:1;fill-rule:nonzero;stroke:#000000;stroke-width:0.79701;stroke-linecap:butt;stroke-linejoin:miter;stroke-miterlimit:10;stroke-dasharray:none;stroke-opacity:1"
       transform="matrix(1.3333333,0,0,-1.3333333,80.884,29.896)" />
    <path
       id="path21"
       d="m 7.6048281,-6.0358516 c 0.082031,-0.3632812 0.1054688,-0.4570312 0.8320313,-0.4570312 0.2578125,0 0.3398437,0 0.3398437,-0.1992188 0,-0.1171875 -0.1054687,-0.1171875 -0.140625,-0.1171875 -0.28125,0 -0.9960937,0.035156 -1.2773437,0.035156 -0.28125,0 -0.9960938,-0.035156 -1.2773438,-0.035156 -0.082031,0 -0.1992187,0 -0.1992187,0.1992188 0,0.1171875 0.09375,0.1171875 0.28125,0.1171875 0.023437,0 0.2109375,0 0.375,0.011719 0.1875,0.023437 0.2695312,0.035156 0.2695312,0.1640625 0,0.035156 0,0.058594 -0.035156,0.1875 l -0.5976563,2.4375 H 3.1399844 l 0.5859375,-2.34375 c 0.09375,-0.3632812 0.1171875,-0.4570312 0.8320312,-0.4570312 0.2578125,0 0.3398438,0 0.3398438,-0.1992188 0,-0.1171875 -0.1054688,-0.1171875 -0.140625,-0.1171875 -0.2695313,0 -0.9960938,0.035156 -1.265625,0.035156 -0.2929688,0 -0.9960938,-0.035156 -1.2890625,-0.035156 -0.082031,0 -0.1875,0 -0.1875,0.1992188 0,0.1171875 0.082031,0.1171875 0.28125,0.1171875 0.011719,0 0.1992187,0 0.375,0.011719 0.1757812,0.023437 0.2695312,0.035156 0.2695312,0.1640625 0,0.035156 -0.011719,0.070312 -0.046875,0.1875 l -1.3359375,5.35546879 c -0.09375,0.38671875 -0.1171875,0.46875 -0.90234373,0.46875 -0.17578125,0 -0.26953125,0 -0.26953125,0.19921875 0,0.1054687475 0.1171875,0.1054687475 0.140625,0.1054687475 0.28125,0 0.98437498,-0.0351562475 1.26562498,-0.0351562475 0.2109375,0 0.4335938,0.01171875 0.6328125,0.01171875 0.2226563,0 0.4453125,0.0234374975 0.65625,0.0234374975 0.070312,0 0.1992188,0 0.1992188,-0.1992187475 0,-0.10546875 -0.09375,-0.10546875 -0.28125,-0.10546875 -0.375,0 -0.6445313,0 -0.6445313,-0.1875 0,-0.0585938 0.011719,-0.10546875 0.023437,-0.1640625 l 0.679688,-2.73046939 h 3.0351563 c -0.4101563,1.6523438 -0.6445313,2.60156254 -0.6796875,2.75390629 -0.1054688,0.31640625 -0.2929688,0.328125 -0.9140625,0.328125 -0.1523438,0 -0.234375,0 -0.234375,0.19921875 0,0.1054687475 0.1171875,0.1054687475 0.140625,0.1054687475 0.28125,0 0.984375,-0.0351562475 1.265625,-0.0351562475 0.2109375,0 0.421875,0.01171875 0.6328125,0.01171875 0.2226562,0 0.4335937,0.0234374975 0.6445312,0.0234374975 0.082031,0 0.1992188,0 0.1992188,-0.1992187475 0,-0.10546875 -0.082031,-0.10546875 -0.2695313,-0.10546875 -0.375,0 -0.65625,0 -0.65625,-0.1875 0,-0.0585938 0.023437,-0.10546875 0.035156,-0.1640625 z m 0,0"
       style="fill:#000000;fill-opacity:1;fill-rule:nonzero;stroke:none"
       aria-label="H"
       transform="matrix(1.3333333,0,0,1.3333333,49.758667,18.817333)" />
    <path
       id="path22"
       d="m 2.3320313,-4.4307578 c 0,-0.1875 -0.011719,-0.1992188 -0.2109375,-0.1992188 -0.4453125,0.4335938 -1.078125,0.4453125 -1.35937505,0.4453125 v 0.2460938 c 0.1640625,0 0.62109375,0 1.00781255,-0.1875 v 3.55078124 c 0,0.234375 0,0.328125 -0.6914063,0.328125 H 0.80859375 v 0.24609375 C 0.9375,-0.01278906 1.7929688,-0.02450781 2.0507813,-0.02450781 c 0.2109375,0 1.0898437,0.01171875 1.2421875,0.0234375 V -0.24716406 H 3.0351563 c -0.703125,0 -0.703125,-0.09375 -0.703125,-0.328125 z m 0,0"
       style="fill:#000000;fill-opacity:1;fill-rule:nonzero;stroke:none"
       aria-label="1"
       transform="matrix(1.3333333,0,0,1.3333333,153.5,28.505333)" />
    <path
       id="path23"
       d="M 0,0 H 10.516"
       style="fill:none;stroke:#000000;stroke-width:0.398;stroke-linecap:butt;stroke-linejoin:miter;stroke-miterlimit:10;stroke-dasharray:none;stroke-opacity:1"
       transform="matrix(1.3333333,0,0,-1.3333333,149.13733,30.414667)" />
    <path
       id="path24"
       d="M 3.0932891,5.8700547 1.7221953,3.1630234 C 1.6870391,3.0927109 1.6636016,3.0458359 1.6050078,3.0458359 c -0.023437,0 -0.035156,0 -0.1054687,0.058594 L 0.74953906,3.5966172 c -0.09375,0.058594 -0.09375,0.09375 -0.09375,0.1171875 0,0.046875 0.0351563,0.09375 0.09375,0.09375 0.0351563,0 0.046875,0 0.140625,-0.058594 C 0.96047656,3.6903672 1.1596953,3.5497422 1.2534453,3.5028672 l 1.5234375,3.0117187 c 0.046875,0.1054688 0.058594,0.1171875 0.1523438,0.1171875 0.070312,0 0.140625,0 0.2109375,-0.1289062 l 3.515625,-6.52734376 c 0.046875,-0.09375 0.046875,-0.10546875 0.046875,-0.140625 0,-0.1171875 -0.082031,-0.17578125 -0.1640625,-0.17578125 -0.1054688,0 -0.140625,0.0585938 -0.1757813,0.140625 z m 0,0"
       style="fill:#000000;fill-opacity:1;fill-rule:nonzero;stroke:none"
       aria-label="√"
       transform="matrix(1.3333333,0,0,1.3333333,149.13733,32.114667)" />
    <path
       id="path25"
       d="M 0,0 H 3.971"
       style="fill:none;stroke:#000000;stroke-width:0.339;stroke-linecap:butt;stroke-linejoin:miter;stroke-miterlimit:10;stroke-dasharray:none;stroke-opacity:1"
       transform="matrix(1.3333333,0,0,-1.3333333,157.864,31.889333)" />
    <g
       id="g25"
       aria-label="2&#10;(|00⟩+|11⟩)"
       transform="matrix(1.3333333,0,0,1.3333333,157.864,39.817333)">
      <path
         id="path26"
         d="m 3.5150859,-1.2663203 h -0.234375 c -0.023437,0.1523437 -0.082031,0.56249999 -0.1757812,0.63281249 -0.058594,0.0351563 -0.5976563,0.0351563 -0.6914063,0.0351563 H 1.1244609 c 0.7382813,-0.64453129 0.984375,-0.84374999 1.3945313,-1.17187499 0.515625,-0.4101563 0.9960937,-0.8437501 0.9960937,-1.5000001 0,-0.8437499 -0.7382812,-1.3593749 -1.6289062,-1.3593749 -0.8671875,0 -1.45312501,0.609375 -1.45312501,1.2421874 0,0.3632813 0.3046875,0.3984375 0.375,0.3984375 0.1640625,0 0.37500001,-0.1171875 0.37500001,-0.375 0,-0.1289062 -0.058594,-0.3632812 -0.42187501,-0.3632812 0.22265625,-0.5039062 0.69140621,-0.6562499 1.01953121,-0.6562499 0.703125,0 1.0664063,0.5507812 1.0664063,1.1132812 0,0.609375 -0.4335938,1.0898438 -0.65625,1.3359375 l -1.68750001,1.66406249 c -0.0703125,0.0585938 -0.0703125,0.0703125 -0.0703125,0.2695312475 H 3.3158672 Z m 0,0"
         style="fill:#000000;fill-opacity:1;fill-rule:nonzero;stroke:none" />
      <path
         id="path27"
         d="m 8.4603984,-2.1715938 c 0,-0.035156 0,-0.046875 -0.1640625,-0.2226562 -1.2421875,-1.2539063 -1.5703125,-3.1289063 -1.5703125,-4.6640625 0,-1.7226563 0.3867188,-3.4570315 1.6054688,-4.7109375 0.1289062,-0.117188 0.1289062,-0.128906 0.1289062,-0.164063 0,-0.07031 -0.035156,-0.105468 -0.09375,-0.105468 -0.1054687,0 -0.9960937,0.679687 -1.5820312,1.945312 -0.515625,1.1015627 -0.6328125,2.2031252 -0.6328125,3.0351565 0,0.7851562 0.1171875,1.9921875 0.65625,3.1171875 0.5976562,1.21875 1.453125,1.875 1.5585937,1.875 0.058594,0 0.09375,-0.035156 0.09375,-0.1054688 z m 0,0"
         style="fill:#000000;fill-opacity:1;fill-rule:nonzero;stroke:none" />
      <path
         id="path28"
         d="m 10.622508,-11.6755 c 0,-0.175781 0,-0.363281 -0.199219,-0.363281 -0.199219,0 -0.199219,0.1875 -0.199219,0.363281 v 9.2460937 c 0,0.1757813 0,0.3632813 0.199219,0.3632813 0.199219,0 0.199219,-0.1875 0.199219,-0.3632813 z m 0,0"
         style="fill:#000000;fill-opacity:1;fill-rule:nonzero;stroke:none" />
      <path
         id="path29"
         d="m 16.391063,-7.7497188 c 0,-0.796875 -0.04687,-1.59375 -0.398438,-2.3320312 -0.457031,-0.960938 -1.277344,-1.113281 -1.6875,-1.113281 -0.597656,0 -1.335937,0.257812 -1.734375,1.183593 -0.328125,0.6914067 -0.375,1.4648442 -0.375,2.2617192 0,0.75 0.04687,1.640625 0.445313,2.4023438 0.433593,0.8085937 1.160156,1.0078125 1.652343,1.0078125 0.539063,0 1.289063,-0.2109375 1.734375,-1.1601563 0.316407,-0.6914062 0.363282,-1.4648437 0.363282,-2.25 z m -2.097657,3.1875 c -0.386718,0 -0.984375,-0.2460937 -1.160156,-1.2070312 -0.105469,-0.5976563 -0.105469,-1.5117188 -0.105469,-2.0976563 0,-0.6445312 0,-1.3007812 0.08203,-1.8398437 0.1875,-1.183594 0.925781,-1.265625 1.183593,-1.265625 0.328125,0 0.984375,0.175781 1.171875,1.1601562 0.09375,0.5625 0.09375,1.3125 0.09375,1.9453125 0,0.75 0,1.4179688 -0.105468,2.0625 -0.152344,0.9375 -0.714844,1.2421875 -1.160157,1.2421875 z m 7.078125,-3.1875 c 0,-0.796875 -0.04687,-1.59375 -0.398437,-2.3320312 -0.457031,-0.960938 -1.277344,-1.113281 -1.6875,-1.113281 -0.597656,0 -1.335938,0.257812 -1.734375,1.183593 -0.328125,0.6914067 -0.375,1.4648442 -0.375,2.2617192 0,0.75 0.04687,1.640625 0.445312,2.4023438 0.433594,0.8085937 1.160157,1.0078125 1.652344,1.0078125 0.539063,0 1.289063,-0.2109375 1.734375,-1.1601563 0.316406,-0.6914062 0.363281,-1.4648437 0.363281,-2.25 z m -2.097656,3.1875 c -0.386719,0 -0.984375,-0.2460937 -1.160156,-1.2070312 -0.105469,-0.5976563 -0.105469,-1.5117188 -0.105469,-2.0976563 0,-0.6445312 0,-1.3007812 0.08203,-1.8398437 0.1875,-1.183594 0.925782,-1.265625 1.183594,-1.265625 0.328125,0 0.984375,0.175781 1.171875,1.1601562 0.09375,0.5625 0.09375,1.3125 0.09375,1.9453125 0,0.75 0,1.4179688 -0.105469,2.0625 -0.152343,0.9375 -0.714843,1.2421875 -1.160156,1.2421875 z m 0,0"
         style="fill:#000000;fill-opacity:1;fill-rule:nonzero;stroke:none" />
      <path
         id="path30"
         d="m 24.488719,-6.8825313 c 0.04687,-0.1171875 0.04687,-0.140625 0.04687,-0.1757812 0,-0.023437 0,-0.046875 -0.04687,-0.1640625 l -1.746094,-4.582031 c -0.05859,-0.164063 -0.117187,-0.234375 -0.222656,-0.234375 -0.117188,0 -0.199219,0.09375 -0.199219,0.199218 0,0.03516 0,0.05859 0.04687,0.164063 l 1.757813,4.6171875 -1.757813,4.6054687 c -0.04687,0.1171875 -0.04687,0.1289063 -0.04687,0.1875 0,0.1054688 0.08203,0.1992188 0.199219,0.1992188 0.128906,0 0.164062,-0.1054688 0.210937,-0.1992188 z m 0,0"
         style="fill:#000000;fill-opacity:1;fill-rule:nonzero;stroke:none" />
      <path
         id="path31"
         d="m 31.935984,-6.8590938 h 2.777344 c 0.140625,0 0.328125,0 0.328125,-0.1992187 0,-0.1992188 -0.1875,-0.1992188 -0.328125,-0.1992188 h -2.777344 v -2.7890627 c 0,-0.128906 0,-0.328125 -0.199218,-0.328125 -0.199219,0 -0.199219,0.199219 -0.199219,0.328125 v 2.7890627 h -2.789063 c -0.140625,0 -0.328125,0 -0.328125,0.1992188 0,0.1992187 0.1875,0.1992187 0.328125,0.1992187 h 2.789063 v 2.8007813 c 0,0.1289062 0,0.328125 0.199219,0.328125 0.199218,0 0.199218,-0.1992188 0.199218,-0.328125 z m 0,0"
         style="fill:#000000;fill-opacity:1;fill-rule:nonzero;stroke:none" />
      <path
         id="path32"
         d="m 39.403758,-11.6755 c 0,-0.175781 0,-0.363281 -0.199219,-0.363281 -0.199219,0 -0.199219,0.1875 -0.199219,0.363281 v 9.2460937 c 0,0.1757813 0,0.3632813 0.199219,0.3632813 0.199219,0 0.199219,-0.1875 0.199219,-0.3632813 z m 0,0"
         style="fill:#000000;fill-opacity:1;fill-rule:nonzero;stroke:none" />
      <path
         id="path33"
         d="m 43.519969,-10.937219 c 0,-0.234375 0,-0.257812 -0.234375,-0.257812 -0.609375,0.632812 -1.488281,0.632812 -1.804688,0.632812 v 0.316406 c 0.199219,0 0.785157,0 1.300782,-0.257812 v 5.15625 c 0,0.3515625 -0.03516,0.4804687 -0.925782,0.4804687 H 41.5395 v 0.3046875 c 0.351563,-0.035156 1.207031,-0.035156 1.605469,-0.035156 0.398437,0 1.265625,0 1.617187,0.035156 V -4.8669063 H 44.44575 c -0.902344,0 -0.925781,-0.1171875 -0.925781,-0.4804687 z m 4.980469,0 c 0,-0.234375 0,-0.257812 -0.234375,-0.257812 -0.609375,0.632812 -1.488282,0.632812 -1.804688,0.632812 v 0.316406 c 0.199219,0 0.785156,0 1.300781,-0.257812 v 5.15625 c 0,0.3515625 -0.03516,0.4804687 -0.925781,0.4804687 h -0.316406 v 0.3046875 c 0.351562,-0.035156 1.207031,-0.035156 1.605469,-0.035156 0.398437,0 1.265625,0 1.617187,0.035156 v -0.3046875 h -0.316406 c -0.902344,0 -0.925781,-0.1171875 -0.925781,-0.4804687 z m 0,0"
         style="fill:#000000;fill-opacity:1;fill-rule:nonzero;stroke:none" />
      <path
         id="path34"
         d="m 53.269969,-6.8825313 c 0.04687,-0.1171875 0.04687,-0.140625 0.04687,-0.1757812 0,-0.023437 0,-0.046875 -0.04687,-0.1640625 l -1.746094,-4.582031 c -0.05859,-0.164063 -0.117187,-0.234375 -0.222656,-0.234375 -0.117188,0 -0.199219,0.09375 -0.199219,0.199218 0,0.03516 0,0.05859 0.04687,0.164063 l 1.757813,4.6171875 -1.757813,4.6054687 c -0.04687,0.1171875 -0.04687,0.1289063 -0.04687,0.1875 0,0.1054688 0.08203,0.1992188 0.199219,0.1992188 0.128906,0 0.164062,-0.1054688 0.210937,-0.1992188 z m 0,0"
         style="fill:#000000;fill-opacity:1;fill-rule:nonzero;stroke:none" />
      <path
         id="path35"
         d="m 57.310008,-7.0583125 c 0,-0.7734375 -0.117188,-1.9804688 -0.65625,-3.1054685 -0.597656,-1.21875 -1.464844,-1.875 -1.558594,-1.875 -0.05859,0 -0.105469,0.04687 -0.105469,0.105468 0,0.03516 0,0.04687 0.199219,0.234375 0.972656,0.984375 1.535156,2.5664067 1.535156,4.6406255 0,1.7109375 -0.363281,3.4570312 -1.59375,4.7226562 -0.140625,0.1171875 -0.140625,0.1289063 -0.140625,0.1640625 0,0.058594 0.04687,0.1054688 0.105469,0.1054688 0.09375,0 0.996094,-0.6796875 1.582031,-1.9453125 0.503907,-1.1015625 0.632813,-2.203125 0.632813,-3.046875 z m 0,0"
         style="fill:#000000;fill-opacity:1;fill-rule:nonzero;stroke:none" />
    </g>
    <path
       id="path36"
       d="m 45.03526,14.74641 c 0.74721,-0.37359 1.24535,-1.24534 1.24535,-2.49069 V 1.10898 c 0,-1.24533 0.49812,-2.1171 1.24535,-2.49068 -0.74723,-0.3736 -1.24535,-1.24534 -1.24535,-2.49069 v -11.14674 c 0,-1.24535 -0.49814,-2.11712 -1.24535,-2.4907"
       style="fill:none;stroke:#000000;stroke-width:0.79701;stroke-linecap:butt;stroke-linejoin:miter;stroke-miterlimit:10;stroke-dasharray:none;stroke-opacity:1"
       transform="matrix(1.3333333,0,0,-1.3333333,80.884,29.896)" />
    <g
       id="g36"
       aria-label="|0⟩"
       transform="matrix(1.3333333,0,0,1.3333333,4.4266667,52.517333)">
      <path
         id="path37"
         d="m 1.5813672,-7.1145625 c 0,-0.1757812 0,-0.3632812 -0.1992188,-0.3632812 -0.1992187,0 -0.1992187,0.1875 -0.1992187,0.3632812 v 9.2460938 c 0,0.1757812 0,0.3632812 0.1992187,0.3632812 0.1992188,0 0.1992188,-0.1875 0.1992188,-0.3632812 z m 0,0"
         style="fill:#000000;fill-opacity:1;fill-rule:nonzero;stroke:none" />
      <path
         id="path38"
         d="m 7.3499219,-3.1887812 c 0,-0.796875 -0.046875,-1.59375 -0.3984375,-2.3320313 -0.4570313,-0.9609375 -1.2773438,-1.1132812 -1.6875,-1.1132812 -0.5976563,0 -1.3359375,0.2578125 -1.734375,1.1835937 -0.328125,0.6914063 -0.375,1.4648438 -0.375,2.2617188 0,0.75 0.046875,1.640625 0.4453125,2.4023437 0.4335937,0.80859375 1.1601562,1.0078125 1.6523437,1.0078125 0.5390625,0 1.2890625,-0.2109375 1.734375,-1.16015625 C 7.3030469,-1.6301875 7.3499219,-2.403625 7.3499219,-3.1887812 Z m -2.0976563,3.18749995 c -0.3867187,0 -0.984375,-0.24609375 -1.1601562,-1.20703125 -0.1054688,-0.5976562 -0.1054688,-1.5117187 -0.1054688,-2.0976562 0,-0.6445313 0,-1.3007813 0.082031,-1.8398438 0.1875,-1.1835937 0.9257812,-1.265625 1.1835937,-1.265625 0.328125,0 0.984375,0.1757813 1.171875,1.1601563 0.09375,0.5625 0.09375,1.3125 0.09375,1.9453125 0,0.75 0,1.4179687 -0.1054687,2.0625 -0.1523438,0.93749995 -0.7148438,1.24218745 -1.160156,1.24218745 z m 0,0"
         style="fill:#000000;fill-opacity:1;fill-rule:nonzero;stroke:none" />
      <path
         id="path39"
         d="m 10.467109,-2.3215937 c 0.04687,-0.1171875 0.04687,-0.140625 0.04687,-0.1757813 0,-0.023437 0,-0.046875 -0.04687,-0.1640625 L 8.7210156,-7.2434687 c -0.058594,-0.1640625 -0.1171875,-0.234375 -0.2226562,-0.234375 -0.1171875,0 -0.1992188,0.09375 -0.1992188,0.1992187 0,0.035156 0,0.058594 0.046875,0.1640625 L 10.103828,-2.497375 8.3460156,2.1080938 c -0.046875,0.1171875 -0.046875,0.1289062 -0.046875,0.1875 0,0.1054687 0.082031,0.1992187 0.1992188,0.1992187 0.1289062,0 0.1640625,-0.1054687 0.2109375,-0.1992187 z m 0,0"
         style="fill:#000000;fill-opacity:1;fill-rule:nonzero;stroke:none" />
    </g>
  </g>
</svg>
