<?xml version="1.0" encoding="UTF-8" standalone="no"?>
<!-- Created with Inkscape (http://www.inkscape.org/) -->

<svg
   version="1.1"
   id="svg1"
   width="134.48569"
   height="44.731613"
   viewBox="0 0 134.48569 44.731613"
   xmlns="http://www.w3.org/2000/svg"
   xmlns:svg="http://www.w3.org/2000/svg">
  <defs
     id="defs1">
    <clipPath
       clipPathUnits="userSpaceOnUse"
       id="clipPath12">
      <path
         d="M 4.22711,0 C 4.22711,2.3346 2.3346,4.22711 0,4.22711 -2.3346,4.22711 -4.22711,2.3346 -4.22711,0 c 0,-2.3346 1.89251,-4.22711 4.22711,-4.22711 2.3346,0 4.22711,1.89251 4.22711,4.22711 z"
         id="path12" />
    </clipPath>
  </defs>
  <g
     id="g1"
     transform="translate(-3.894488,-3.8956868)">
    <path
       id="path1"
       d="M -27.32962,14.47574 H -50.03363"
       style="fill:none;stroke:#000000;stroke-width:0.79701;stroke-linecap:round;stroke-linejoin:miter;stroke-miterlimit:10;stroke-dasharray:none;stroke-opacity:1"
       transform="matrix(1.3333333,0,0,-1.3333333,71.137333,25.996)" />
    <path
       id="path2"
       d="M 0,12.77501 V -4.9588"
       style="fill:none;stroke:#000000;stroke-width:0.79701;stroke-linecap:round;stroke-linejoin:miter;stroke-miterlimit:10;stroke-dasharray:none;stroke-opacity:1"
       transform="matrix(1.3333333,0,0,-1.3333333,71.137333,25.996)" />
    <path
       id="path3"
       d="M -1.70073,14.47574 H -27.32962"
       style="fill:none;stroke:#000000;stroke-width:0.79701;stroke-linecap:round;stroke-linejoin:miter;stroke-miterlimit:10;stroke-dasharray:none;stroke-opacity:1"
       transform="matrix(1.3333333,0,0,-1.3333333,71.137333,25.996)" />
    <path
       id="path4"
       d="M 27.32962,14.47574 H 1.70073"
       style="fill:none;stroke:#000000;stroke-width:0.79701;stroke-linecap:round;stroke-linejoin:miter;stroke-miterlimit:10;stroke-dasharray:none;stroke-opacity:1"
       transform="matrix(1.3333333,0,0,-1.3333333,71.137333,25.996)" />
    <path
       id="path5"
       d="M 50.03363,14.47574 H 27.32962"
       style="fill:none;stroke:#000000;stroke-width:0.79701;stroke-linecap:round;stroke-linejoin:miter;stroke-miterlimit:10;stroke-dasharray:none;stroke-opacity:1"
       transform="matrix(1.3333333,0,0,-1.3333333,71.137333,25.996)" />
    <path
       id="path6"
       d="m -35.86023,-9.18593 h -14.1734"
       style="fill:none;stroke:#000000;stroke-width:0.79701;stroke-linecap:round;stroke-linejoin:miter;stroke-miterlimit:10;stroke-dasharray:none;stroke-opacity:1"
       transform="matrix(1.3333333,0,0,-1.3333333,71.137333,25.996)" />
    <path
       id="path7"
       d="m -4.22711,-9.18593 h -14.5719"
       style="fill:none;stroke:#000000;stroke-width:0.79701;stroke-linecap:round;stroke-linejoin:miter;stroke-miterlimit:10;stroke-dasharray:none;stroke-opacity:1"
       transform="matrix(1.3333333,0,0,-1.3333333,71.137333,25.996)" />
    <path
       id="path8"
       d="M 18.79901,-9.18593 H 4.22711"
       style="fill:none;stroke:#000000;stroke-width:0.79701;stroke-linecap:round;stroke-linejoin:miter;stroke-miterlimit:10;stroke-dasharray:none;stroke-opacity:1"
       transform="matrix(1.3333333,0,0,-1.3333333,71.137333,25.996)" />
    <path
       id="path9"
       d="M 50.03363,-9.18593 H 35.86023"
       style="fill:none;stroke:#000000;stroke-width:0.79701;stroke-linecap:round;stroke-linejoin:miter;stroke-miterlimit:10;stroke-dasharray:none;stroke-opacity:1"
       transform="matrix(1.3333333,0,0,-1.3333333,71.137333,25.996)" />
    <path
       id="path10"
       d="M 1.70073,0 C 1.70073,0.93929 0.93929,1.70073 0,1.70073 -0.93929,1.70073 -1.70073,0.93929 -1.70073,0 c 0,-0.93929 0.76144,-1.70073 1.70073,-1.70073 0.93929,0 1.70073,0.76144 1.70073,1.70073 z"
       style="fill:#000000;fill-opacity:1;fill-rule:nonzero;stroke:#000000;stroke-width:0.79701;stroke-linecap:butt;stroke-linejoin:miter;stroke-miterlimit:10;stroke-dasharray:none;stroke-opacity:1"
       transform="matrix(1.3333333,0,0,-1.3333333,71.137333,6.6946667)" />
    <path
       id="path11"
       d="M 0,4.22711 V -4.22711 M -4.22711,0 h 8.45422"
       style="fill:none;stroke:#000000;stroke-width:0.79701;stroke-linecap:butt;stroke-linejoin:miter;stroke-miterlimit:10;stroke-dasharray:none;stroke-opacity:1"
       transform="matrix(1.3333333,0,0,-1.3333333,71.137333,38.244)"
       clip-path="url(#clipPath12)" />
    <path
       id="path13"
       d="M 4.22711,0 C 4.22711,2.3346 2.3346,4.22711 0,4.22711 -2.3346,4.22711 -4.22711,2.3346 -4.22711,0 c 0,-2.3346 1.89251,-4.22711 4.22711,-4.22711 2.3346,0 4.22711,1.89251 4.22711,4.22711 z"
       style="fill:none;stroke:#000000;stroke-width:0.79701;stroke-linecap:butt;stroke-linejoin:miter;stroke-miterlimit:10;stroke-dasharray:none;stroke-opacity:1"
       transform="matrix(1.3333333,0,0,-1.3333333,71.137333,38.244)" />
    <path
       id="path14"
       d="m -35.86023,-16.57497 h 17.0612 v 14.77808 h -17.0612 z"
       style="fill:#ffffff;fill-opacity:1;fill-rule:nonzero;stroke:#000000;stroke-width:0.79701;stroke-linecap:butt;stroke-linejoin:miter;stroke-miterlimit:10;stroke-dasharray:none;stroke-opacity:1"
       transform="matrix(1.3333333,0,0,-1.3333333,71.137333,25.996)" />
    <path
       id="path15"
       d="M 7.6040078,-6.0352187 C 7.6860391,-6.3985 7.7094766,-6.49225 8.4360391,-6.49225 c 0.2578125,0 0.3398437,0 0.3398437,-0.1992187 0,-0.1171875 -0.1054687,-0.1171875 -0.140625,-0.1171875 -0.28125,0 -0.9960937,0.035156 -1.2773437,0.035156 -0.28125,0 -0.9960938,-0.035156 -1.2773438,-0.035156 -0.082031,0 -0.1992187,0 -0.1992187,0.1992187 0,0.1171875 0.09375,0.1171875 0.28125,0.1171875 0.023437,0 0.2109375,0 0.375,0.011719 0.1875,0.023437 0.2695312,0.035156 0.2695312,0.1640625 0,0.035156 0,0.058594 -0.035156,0.1875 l -0.5976563,2.4375 H 3.1391641 l 0.5859375,-2.34375 C 3.8188516,-6.3985 3.8422891,-6.49225 4.5571328,-6.49225 c 0.2578125,0 0.3398438,0 0.3398438,-0.1992187 0,-0.1171875 -0.1054688,-0.1171875 -0.140625,-0.1171875 -0.2695313,0 -0.9960938,0.035156 -1.265625,0.035156 -0.2929688,0 -0.9960938,-0.035156 -1.2890625,-0.035156 -0.082031,0 -0.1875,0 -0.1875,0.1992187 0,0.1171875 0.082031,0.1171875 0.28125,0.1171875 0.011719,0 0.1992187,0 0.375,0.011719 0.1757812,0.023437 0.2695312,0.035156 0.2695312,0.1640625 0,0.035156 -0.011719,0.070312 -0.046875,0.1875 L 1.5571328,-0.7735 c -0.09375,0.38671875 -0.1171875,0.46875 -0.90234374,0.46875 -0.17578125,0 -0.26953125,0 -0.26953125,0.19921875 0,0.10546875 0.1171875,0.10546875 0.140625,0.10546875 0.28125,0 0.98437499,-0.03515625 1.26562499,-0.03515625 0.2109375,0 0.4335938,0.01171875 0.6328125,0.01171875 0.2226563,0 0.4453125,0.0234375 0.65625,0.0234375 0.070312,0 0.1992188,0 0.1992188,-0.19921875 0,-0.10546875 -0.09375,-0.10546875 -0.28125,-0.10546875 -0.375,0 -0.6445313,0 -0.6445313,-0.1875 0,-0.0585937 0.011719,-0.10546875 0.023437,-0.1640625 l 0.679688,-2.7304687 H 6.0922891 C 5.6821328,-1.7344375 5.4477578,-0.78521875 5.4126016,-0.632875 5.3071328,-0.31646875 5.1196328,-0.30475 4.4985391,-0.30475 c -0.1523438,0 -0.234375,0 -0.234375,0.19921875 0,0.10546875 0.1171875,0.10546875 0.140625,0.10546875 0.28125,0 0.984375,-0.03515625 1.265625,-0.03515625 0.2109375,0 0.421875,0.01171875 0.6328125,0.01171875 0.2226562,0 0.4335937,0.0234375 0.6445312,0.0234375 0.082031,0 0.1992188,0 0.1992188,-0.19921875 0,-0.10546875 -0.082031,-0.10546875 -0.2695313,-0.10546875 -0.375,0 -0.65625,0 -0.65625,-0.1875 0,-0.0585937 0.023437,-0.10546875 0.035156,-0.1640625 z m 0,0"
       style="fill:#000000;fill-opacity:1;fill-rule:nonzero;stroke:none"
       aria-label="H"
       transform="matrix(1.3333333,0,0,1.3333333,28.638667,42.781333)" />
    <path
       id="path16"
       d="m 18.79901,-16.57497 h 17.0612 v 14.77808 h -17.0612 z"
       style="fill:#ffffff;fill-opacity:1;fill-rule:nonzero;stroke:#000000;stroke-width:0.79701;stroke-linecap:butt;stroke-linejoin:miter;stroke-miterlimit:10;stroke-dasharray:none;stroke-opacity:1"
       transform="matrix(1.3333333,0,0,-1.3333333,71.137333,25.996)" />
    <path
       id="path17"
       d="M 7.6051875,-6.0352187 C 7.6872188,-6.3985 7.7106563,-6.49225 8.4372188,-6.49225 c 0.2578125,0 0.3398437,0 0.3398437,-0.1992187 0,-0.1171875 -0.1054687,-0.1171875 -0.140625,-0.1171875 -0.28125,0 -0.9960937,0.035156 -1.2773437,0.035156 -0.28125,0 -0.9960938,-0.035156 -1.2773438,-0.035156 -0.082031,0 -0.1992187,0 -0.1992187,0.1992187 0,0.1171875 0.09375,0.1171875 0.28125,0.1171875 0.023437,0 0.2109375,0 0.375,0.011719 0.1875,0.023437 0.2695312,0.035156 0.2695312,0.1640625 0,0.035156 0,0.058594 -0.035156,0.1875 L 6.1755,-3.6914687 H 3.1403438 l 0.5859375,-2.34375 C 3.8200313,-6.3985 3.8434688,-6.49225 4.5583125,-6.49225 c 0.2578125,0 0.3398438,0 0.3398438,-0.1992187 0,-0.1171875 -0.1054688,-0.1171875 -0.140625,-0.1171875 -0.2695313,0 -0.9960938,0.035156 -1.265625,0.035156 -0.2929688,0 -0.9960938,-0.035156 -1.2890625,-0.035156 -0.082031,0 -0.1875,0 -0.1875,0.1992187 0,0.1171875 0.082031,0.1171875 0.28125,0.1171875 0.011719,0 0.1992187,0 0.375,0.011719 0.1757812,0.023437 0.2695312,0.035156 0.2695312,0.1640625 0,0.035156 -0.011719,0.070312 -0.046875,0.1875 L 1.5583125,-0.7735 c -0.09375,0.38671875 -0.1171875,0.46875 -0.90234375,0.46875 -0.17578125,0 -0.26953125,0 -0.26953125,0.19921875 0,0.10546875 0.1171875,0.10546875 0.140625,0.10546875 0.28125,0 0.984375,-0.03515625 1.265625,-0.03515625 0.2109375,0 0.4335938,0.01171875 0.6328125,0.01171875 0.2226563,0 0.4453125,0.0234375 0.65625,0.0234375 0.070312,0 0.1992188,0 0.1992188,-0.19921875 0,-0.10546875 -0.09375,-0.10546875 -0.28125,-0.10546875 -0.375,0 -0.6445313,0 -0.6445313,-0.1875 0,-0.0585937 0.011719,-0.10546875 0.023437,-0.1640625 l 0.679688,-2.7304687 H 6.0934688 C 5.6833125,-1.7344375 5.4489375,-0.78521875 5.4137813,-0.632875 5.3083125,-0.31646875 5.1208125,-0.30475 4.4997188,-0.30475 c -0.1523438,0 -0.234375,0 -0.234375,0.19921875 0,0.10546875 0.1171875,0.10546875 0.140625,0.10546875 0.28125,0 0.984375,-0.03515625 1.265625,-0.03515625 0.2109375,0 0.421875,0.01171875 0.6328125,0.01171875 0.2226562,0 0.4335937,0.0234375 0.6445312,0.0234375 0.082031,0 0.1992188,0 0.1992188,-0.19921875 0,-0.10546875 -0.082031,-0.10546875 -0.2695313,-0.10546875 -0.375,0 -0.65625,0 -0.65625,-0.1875 0,-0.0585937 0.023437,-0.10546875 0.035156,-0.1640625 z m 0,0"
       style="fill:#000000;fill-opacity:1;fill-rule:nonzero;stroke:none"
       aria-label="H"
       transform="matrix(1.3333333,0,0,1.3333333,101.516,42.781333)" />
  </g>
</svg>
