<?xml version="1.0" encoding="UTF-8" standalone="no"?>
<!-- Created with Inkscape (http://www.inkscape.org/) -->

<svg
   version="1.1"
   id="svg1"
   width="164.34552"
   height="59.368759"
   viewBox="0 0 164.34552 59.368759"
   xmlns="http://www.w3.org/2000/svg"
   xmlns:svg="http://www.w3.org/2000/svg">
  <defs
     id="defs1" />
  <g
     id="g1"
     transform="translate(-6.0078125,-4.3649537)">
    <path
       id="path1"
       d="m -24.80324,14.47574 h -14.1734"
       style="fill:none;stroke:#000000;stroke-width:0.79701;stroke-linecap:round;stroke-linejoin:miter;stroke-miterlimit:10;stroke-dasharray:none;stroke-opacity:1"
       transform="matrix(1.3333333,0,0,-1.3333333,77.516,34.049333)" />
    <path
       id="path2"
       d="M 8.5306,12.77501 V -12.775"
       style="fill:none;stroke:#000000;stroke-width:0.79701;stroke-linecap:round;stroke-linejoin:miter;stroke-miterlimit:10;stroke-dasharray:none;stroke-opacity:1"
       transform="matrix(1.3333333,0,0,-1.3333333,77.516,34.049333)" />
    <path
       id="path3"
       d="M 6.82986,14.47574 H -7.74202"
       style="fill:none;stroke:#000000;stroke-width:0.79701;stroke-linecap:round;stroke-linejoin:miter;stroke-miterlimit:10;stroke-dasharray:none;stroke-opacity:1"
       transform="matrix(1.3333333,0,0,-1.3333333,77.516,34.049333)" />
    <path
       id="path4"
       d="M 24.80324,14.47574 H 10.23134"
       style="fill:none;stroke:#000000;stroke-width:0.79701;stroke-linecap:round;stroke-linejoin:miter;stroke-miterlimit:10;stroke-dasharray:none;stroke-opacity:1"
       transform="matrix(1.3333333,0,0,-1.3333333,77.516,34.049333)" />
    <path
       id="path5"
       d="M 24.80324,14.47574 H 10.23134"
       style="fill:none;stroke:#000000;stroke-width:0.79701;stroke-linecap:round;stroke-linejoin:miter;stroke-miterlimit:10;stroke-dasharray:none;stroke-opacity:1"
       transform="matrix(1.3333333,0,0,-1.3333333,77.516,34.049333)" />
    <path
       id="path6"
       d="M 38.97664,14.47574 H 24.80324"
       style="fill:none;stroke:#000000;stroke-width:0.79701;stroke-linecap:round;stroke-linejoin:miter;stroke-miterlimit:10;stroke-dasharray:none;stroke-opacity:1"
       transform="matrix(1.3333333,0,0,-1.3333333,77.516,34.049333)" />
    <path
       id="path7"
       d="m -24.80324,-14.47572 h -14.1734"
       style="fill:none;stroke:#000000;stroke-width:0.79701;stroke-linecap:round;stroke-linejoin:miter;stroke-miterlimit:10;stroke-dasharray:none;stroke-opacity:1"
       transform="matrix(1.3333333,0,0,-1.3333333,77.516,34.049333)" />
    <path
       id="path8"
       d="M 6.82986,-14.47572 H -7.74202"
       style="fill:none;stroke:#000000;stroke-width:0.79701;stroke-linecap:round;stroke-linejoin:miter;stroke-miterlimit:10;stroke-dasharray:none;stroke-opacity:1"
       transform="matrix(1.3333333,0,0,-1.3333333,77.516,34.049333)" />
    <path
       id="path9"
       d="M 24.80324,-14.47572 H 10.23134"
       style="fill:none;stroke:#000000;stroke-width:0.79701;stroke-linecap:round;stroke-linejoin:miter;stroke-miterlimit:10;stroke-dasharray:none;stroke-opacity:1"
       transform="matrix(1.3333333,0,0,-1.3333333,77.516,34.049333)" />
    <path
       id="path10"
       d="M 24.80324,-14.47572 H 10.23134"
       style="fill:none;stroke:#000000;stroke-width:0.79701;stroke-linecap:round;stroke-linejoin:miter;stroke-miterlimit:10;stroke-dasharray:none;stroke-opacity:1"
       transform="matrix(1.3333333,0,0,-1.3333333,77.516,34.049333)" />
    <path
       id="path11"
       d="M 38.97664,-14.47572 H 24.80324"
       style="fill:none;stroke:#000000;stroke-width:0.79701;stroke-linecap:round;stroke-linejoin:miter;stroke-miterlimit:10;stroke-dasharray:none;stroke-opacity:1"
       transform="matrix(1.3333333,0,0,-1.3333333,77.516,34.049333)" />
    <path
       id="path12"
       d="M 1.70073,0 C 1.70073,0.93929 0.93929,1.70073 0,1.70073 -0.93929,1.70073 -1.70073,0.93929 -1.70073,0 c 0,-0.93929 0.76144,-1.70073 1.70073,-1.70073 0.93929,0 1.70073,0.76144 1.70073,1.70073 z"
       style="fill:#000000;fill-opacity:1;fill-rule:nonzero;stroke:#000000;stroke-width:0.79701;stroke-linecap:butt;stroke-linejoin:miter;stroke-miterlimit:10;stroke-dasharray:none;stroke-opacity:1"
       transform="matrix(1.3333333,0,0,-1.3333333,88.889333,14.748)" />
    <path
       id="path13"
       d="M 1.70073,0 C 1.70073,0.93929 0.93929,1.70073 0,1.70073 -0.93929,1.70073 -1.70073,0.93929 -1.70073,0 c 0,-0.93929 0.76144,-1.70073 1.70073,-1.70073 0.93929,0 1.70073,0.76144 1.70073,1.70073 z"
       style="fill:#000000;fill-opacity:1;fill-rule:nonzero;stroke:#000000;stroke-width:0.79701;stroke-linecap:butt;stroke-linejoin:miter;stroke-miterlimit:10;stroke-dasharray:none;stroke-opacity:1"
       transform="matrix(1.3333333,0,0,-1.3333333,88.889333,53.350667)" />
    <g
       id="g13"
       aria-label="|0⟩"
       transform="matrix(1.3333333,0,0,1.3333333,4.428,18.069333)">
      <path
         id="path14"
         d="m 1.5832969,-7.1125469 c 0,-0.1757812 0,-0.3632812 -0.1992188,-0.3632812 -0.1992187,0 -0.1992187,0.1875 -0.1992187,0.3632812 v 9.2460938 c 0,0.1757812 0,0.3632812 0.1992187,0.3632812 0.1992188,0 0.1992188,-0.1875 0.1992188,-0.3632812 z m 0,0"
         style="fill:#000000;fill-opacity:1;fill-rule:nonzero;stroke:none" />
      <path
         id="path15"
         d="m 7.3489219,-3.1867656 c 0,-0.796875 -0.046875,-1.59375 -0.3984375,-2.3320313 -0.4570313,-0.9609375 -1.2773438,-1.1132812 -1.6875,-1.1132812 -0.5976563,0 -1.3359375,0.2578125 -1.734375,1.1835937 -0.328125,0.6914063 -0.375,1.4648438 -0.375,2.2617188 0,0.75 0.046875,1.640625 0.4453125,2.40234373 0.4335937,0.80859375 1.1601562,1.0078125 1.6523437,1.0078125 0.5390625,0 1.2890625,-0.2109375 1.734375,-1.16015625 C 7.3020469,-1.6281719 7.3489219,-2.4016094 7.3489219,-3.1867656 Z M 5.2512656,7.34375e-4 c -0.3867187,0 -0.984375,-0.246093745 -1.1601562,-1.207031275 -0.1054688,-0.5976562 -0.1054688,-1.5117187 -0.1054688,-2.0976562 0,-0.6445313 0,-1.3007813 0.082031,-1.8398438 0.1875,-1.1835937 0.9257812,-1.265625 1.1835937,-1.265625 0.328125,0 0.984375,0.1757813 1.171875,1.1601563 0.09375,0.5625 0.09375,1.3125 0.09375,1.9453125 0,0.75 0,1.4179687 -0.1054687,2.0625 C 6.2590781,-0.30395312 5.6965781,7.34375e-4 5.2512656,7.34375e-4 Z m 0,0"
         style="fill:#000000;fill-opacity:1;fill-rule:nonzero;stroke:none" />
      <path
         id="path16"
         d="m 10.466109,-2.3195781 c 0.04687,-0.1171875 0.04687,-0.140625 0.04687,-0.1757813 0,-0.023437 0,-0.046875 -0.04687,-0.1640625 L 8.7200156,-7.2414531 c -0.058594,-0.1640625 -0.1171875,-0.234375 -0.2226562,-0.234375 -0.1171875,0 -0.1992188,0.09375 -0.1992188,0.1992187 0,0.035156 0,0.058594 0.046875,0.1640625 l 1.7578124,4.6171875 -1.7578124,4.6054688 c -0.046875,0.1171875 -0.046875,0.1289062 -0.046875,0.1875 0,0.1054687 0.082031,0.1992187 0.1992188,0.1992187 0.1289062,0 0.1640625,-0.1054687 0.2109375,-0.1992187 z m 0,0"
         style="fill:#000000;fill-opacity:1;fill-rule:nonzero;stroke:none" />
    </g>
    <path
       id="path17"
       d="m -24.80324,7.0867 h 17.0612 v 14.77808 h -17.0612 z"
       style="fill:#ffffff;fill-opacity:1;fill-rule:nonzero;stroke:#000000;stroke-width:0.79701;stroke-linecap:butt;stroke-linejoin:miter;stroke-miterlimit:10;stroke-dasharray:none;stroke-opacity:1"
       transform="matrix(1.3333333,0,0,-1.3333333,77.516,34.049333)" />
    <path
       id="path18"
       d="m 7.6048281,-6.0362891 c 0.082031,-0.3632812 0.1054688,-0.4570312 0.8320313,-0.4570312 0.2578125,0 0.3398437,0 0.3398437,-0.1992188 0,-0.1171875 -0.1054687,-0.1171875 -0.140625,-0.1171875 -0.28125,0 -0.9960937,0.035156 -1.2773437,0.035156 -0.28125,0 -0.9960938,-0.035156 -1.2773438,-0.035156 -0.082031,0 -0.1992187,0 -0.1992187,0.1992188 0,0.1171875 0.09375,0.1171875 0.28125,0.1171875 0.023437,0 0.2109375,0 0.375,0.011719 0.1875,0.023437 0.2695312,0.035156 0.2695312,0.1640625 0,0.035156 0,0.058594 -0.035156,0.1875 l -0.5976563,2.4375 H 3.1399844 l 0.5859375,-2.34375 C 3.8196719,-6.39957 3.8431094,-6.49332 4.5579531,-6.49332 c 0.2578125,0 0.3398438,0 0.3398438,-0.1992188 0,-0.1171875 -0.1054688,-0.1171875 -0.140625,-0.1171875 -0.2695313,0 -0.9960938,0.035156 -1.265625,0.035156 -0.2929688,0 -0.9960938,-0.035156 -1.2890625,-0.035156 -0.082031,0 -0.1875,0 -0.1875,0.1992188 0,0.1171875 0.082031,0.1171875 0.28125,0.1171875 0.011719,0 0.1992187,0 0.375,0.011719 0.1757812,0.023437 0.2695312,0.035156 0.2695312,0.1640625 0,0.035156 -0.011719,0.070312 -0.046875,0.1875 l -1.3359375,5.35546879 c -0.09375,0.38671875 -0.1171875,0.46875 -0.90234372,0.46875 -0.17578125,0 -0.26953125,0 -0.26953125,0.19921875 0,0.10546875 0.1171875,0.10546875 0.140625,0.10546875 0.28125,0 0.98437497,-0.03515625 1.26562497,-0.03515625 0.2109375,0 0.4335938,0.01171875 0.6328125,0.01171875 0.2226563,0 0.4453125,0.0234375 0.65625,0.0234375 0.070312,0 0.1992188,0 0.1992188,-0.19921875 0,-0.10546875 -0.09375,-0.10546875 -0.28125,-0.10546875 -0.375,0 -0.6445313,0 -0.6445313,-0.1875 0,-0.0585938 0.011719,-0.10546875 0.023437,-0.1640625 l 0.679688,-2.73046939 h 3.0351563 c -0.4101563,1.6523438 -0.6445313,2.60156254 -0.6796875,2.75390629 -0.1054688,0.31640625 -0.2929688,0.328125 -0.9140625,0.328125 -0.1523438,0 -0.234375,0 -0.234375,0.19921875 0,0.10546875 0.1171875,0.10546875 0.140625,0.10546875 0.28125,0 0.984375,-0.03515625 1.265625,-0.03515625 0.2109375,0 0.421875,0.01171875 0.6328125,0.01171875 0.2226562,0 0.4335937,0.0234375 0.6445312,0.0234375 0.082031,0 0.1992188,0 0.1992188,-0.19921875 0,-0.10546875 -0.082031,-0.10546875 -0.2695313,-0.10546875 -0.375,0 -0.65625,0 -0.65625,-0.1875 0,-0.0585938 0.023437,-0.10546875 0.035156,-0.1640625 z m 0,0"
       style="fill:#000000;fill-opacity:1;fill-rule:nonzero;stroke:none"
       aria-label="H"
       transform="matrix(1.3333333,0,0,1.3333333,49.758667,19.286667)" />
    <g
       id="g18"
       aria-label="|0⟩+|1⟩"
       transform="matrix(1.3333333,0,0,1.3333333,136.70133,11.401333)">
      <path
         id="path19"
         d="m 1.349,-4.9562734 c 0,-0.1054688 0,-0.2695313 -0.1640625,-0.2695313 -0.1757812,0 -0.1757812,0.1523438 -0.1757812,0.2695313 v 6.4335937 c 0,0.09375 0,0.2695313 0.1757812,0.2695313 C 1.349,1.7468516 1.349,1.5827891 1.349,1.4773203 Z m 0,0"
         style="fill:#000000;fill-opacity:1;fill-rule:nonzero;stroke:none" />
      <path
         id="path20"
         d="m 5.9632578,-2.2258047 c 0,-0.7617187 -0.09375,-1.3125 -0.4101562,-1.8046875 -0.2226563,-0.3164062 -0.6445313,-0.5976562 -1.2070313,-0.5976562 -1.6171875,0 -1.6171875,1.8984375 -1.6171875,2.4023437 0,0.5039063 0,2.36718751 1.6171875,2.36718751 1.6171875,0 1.6171875,-1.86328121 1.6171875,-2.36718751 z m -1.6171875,2.16796876 c -0.3164062,0 -0.75,-0.1875 -0.890625,-0.76171875 -0.09375,-0.41015621 -0.09375,-0.98437501 -0.09375,-1.50000001 0,-0.5039062 0,-1.03125 0.1054688,-1.4179687 0.1523437,-0.5507813 0.5976562,-0.6914063 0.8789062,-0.6914063 0.375,0 0.7382813,0.2226563 0.8671875,0.6328125 0.1054688,0.375 0.1171875,0.8789063 0.1171875,1.4765625 0,0.515625 0,1.0429688 -0.09375,1.47656251 -0.140625,0.6328125 -0.609375,0.78515625 -0.890625,0.78515625 z m 0,0"
         style="fill:#000000;fill-opacity:1;fill-rule:nonzero;stroke:none" />
      <path
         id="path21"
         d="m 8.5531016,-1.6047109 c 0.035156,-0.1054688 0.035156,-0.1171875 0.035156,-0.140625 0,-0.035156 0,-0.035156 -0.035156,-0.140625 l -1.3125,-3.1640625 c -0.046875,-0.1054688 -0.082031,-0.1757813 -0.1992188,-0.1757813 -0.070312,0 -0.1640625,0.058594 -0.1640625,0.1757813 0,0.011719 0,0.035156 0.035156,0.1289062 L 8.236695,-1.7453359 6.9124763,1.4304453 c -0.035156,0.09375 -0.035156,0.1054688 -0.035156,0.1289063 0,0.1171875 0.09375,0.1757812 0.1640625,0.1757812 0.1171875,0 0.1523438,-0.070312 0.1875,-0.1757812 z m 0,0"
         style="fill:#000000;fill-opacity:1;fill-rule:nonzero;stroke:none" />
      <path
         id="path22"
         d="m 12.78357,-1.5695547 h 2.144532 c 0.08203,0 0.257812,0 0.257812,-0.1757812 0,-0.1757813 -0.164062,-0.1757813 -0.257812,-0.1757813 H 12.78357 v -2.1328125 c 0,-0.09375 0,-0.2578125 -0.164062,-0.2578125 -0.175781,0 -0.175781,0.1523438 -0.175781,0.2578125 v 2.1328125 h -2.132813 c -0.09375,0 -0.257812,0 -0.257812,0.1757813 0,0.1757812 0.152343,0.1757812 0.257812,0.1757812 h 2.132813 v 2.13281251 c 0,0.09375 0,0.2578125 0.175781,0.2578125 0.164062,0 0.164062,-0.15234375 0.164062,-0.2578125 z m 0,0"
         style="fill:#000000;fill-opacity:1;fill-rule:nonzero;stroke:none" />
      <path
         id="path23"
         d="m 17.025758,-4.9562734 c 0,-0.1054688 0,-0.2695313 -0.164063,-0.2695313 -0.175781,0 -0.175781,0.1523438 -0.175781,0.2695313 v 6.4335937 c 0,0.09375 0,0.2695313 0.175781,0.2695313 0.164063,0 0.164063,-0.1640625 0.164063,-0.2695313 z m 0,0"
         style="fill:#000000;fill-opacity:1;fill-rule:nonzero;stroke:none" />
      <path
         id="path24"
         d="m 20.374391,-4.4289297 c 0,-0.1875 -0.01172,-0.1992187 -0.210938,-0.1992187 -0.445312,0.4335937 -1.078125,0.4453125 -1.359375,0.4453125 v 0.2460937 c 0.164063,0 0.621094,0 1.007813,-0.1875 v 3.55078126 c 0,0.234375 0,0.328125 -0.691407,0.328125 H 18.850953 V 7.578125e-4 C 18.979859,-0.01096094 19.835328,-0.02267969 20.093141,-0.02267969 c 0.210937,0 1.089843,0.01171875 1.242187,0.0234375025 V -0.24533594 h -0.257812 c -0.703125,0 -0.703125,-0.09375 -0.703125,-0.328125 z m 0,0"
         style="fill:#000000;fill-opacity:1;fill-rule:nonzero;stroke:none" />
      <path
         id="path25"
         d="m 24.229859,-1.6047109 c 0.03516,-0.1054688 0.03516,-0.1171875 0.03516,-0.140625 0,-0.035156 0,-0.035156 -0.03516,-0.140625 l -1.3125,-3.1640625 c -0.04687,-0.1054688 -0.08203,-0.1757813 -0.199218,-0.1757813 -0.07031,0 -0.164063,0.058594 -0.164063,0.1757813 0,0.011719 0,0.035156 0.03516,0.1289062 l 1.324219,3.1757813 -1.324219,3.1757812 c -0.03516,0.09375 -0.03516,0.1054688 -0.03516,0.1289063 0,0.1171875 0.09375,0.1757812 0.164063,0.1757812 0.117187,0 0.152343,-0.070312 0.1875,-0.1757812 z m 0,0"
         style="fill:#000000;fill-opacity:1;fill-rule:nonzero;stroke:none" />
    </g>
    <path
       id="path26"
       d="M 0,0 H 25.239"
       style="fill:none;stroke:#000000;stroke-width:0.398;stroke-linecap:butt;stroke-linejoin:miter;stroke-miterlimit:10;stroke-dasharray:none;stroke-opacity:1"
       transform="matrix(1.3333333,0,0,-1.3333333,136.70133,14.522667)" />
    <path
       id="path27"
       d="M 3.0934687,5.8710859 1.722375,3.1640547 C 1.6872187,3.0937422 1.6637812,3.0468672 1.6051875,3.0468672 c -0.023437,0 -0.035156,0 -0.1054688,0.058594 L 0.74971875,3.5976484 c -0.09375,0.058594 -0.09375,0.09375 -0.09375,0.1171875 0,0.046875 0.0351563,0.09375 0.09375,0.09375 0.0351563,0 0.046875,0 0.140625,-0.058594 C 0.96065625,3.6913984 1.159875,3.5507734 1.253625,3.5038984 l 1.5234375,3.0117188 c 0.046875,0.1054687 0.058594,0.1171875 0.1523437,0.1171875 0.070312,0 0.140625,0 0.2109375,-0.1289063 l 3.515625,-6.52734371 c 0.046875,-0.09375 0.046875,-0.10546875 0.046875,-0.140625 0,-0.1171875 -0.082031,-0.17578125 -0.1640625,-0.17578125 -0.1054687,0 -0.140625,0.0585938 -0.1757812,0.140625 z m 0,0"
       style="fill:#000000;fill-opacity:1;fill-rule:nonzero;stroke:none"
       aria-label="√"
       transform="matrix(1.3333333,0,0,1.3333333,146.516,16.222667)" />
    <path
       id="path28"
       d="M 0,0 H 3.971"
       style="fill:none;stroke:#000000;stroke-width:0.339;stroke-linecap:butt;stroke-linejoin:miter;stroke-miterlimit:10;stroke-dasharray:none;stroke-opacity:1"
       transform="matrix(1.3333333,0,0,-1.3333333,155.24267,15.997333)" />
    <path
       id="path29"
       d="m 3.5152656,-1.2652891 h -0.234375 c -0.023437,0.1523438 -0.082031,0.56250004 -0.1757812,0.63281254 -0.058594,0.0351563 -0.5976563,0.0351563 -0.6914063,0.0351563 H 1.1246406 c 0.7382813,-0.64453124 0.984375,-0.84374994 1.3945313,-1.17187494 0.515625,-0.4101564 0.9960937,-0.8437501 0.9960937,-1.5000001 0,-0.8437499 -0.7382812,-1.3593749 -1.6289062,-1.3593749 -0.8671875,0 -1.45312502,0.609375 -1.45312502,1.2421874 0,0.3632812 0.3046875,0.3984375 0.375,0.3984375 0.1640625,0 0.37500002,-0.1171875 0.37500002,-0.375 0,-0.1289063 -0.058594,-0.3632813 -0.42187502,-0.3632813 0.22265625,-0.5039061 0.69140622,-0.6562499 1.01953122,-0.6562499 0.703125,0 1.0664063,0.5507813 1.0664063,1.1132812 0,0.609375 -0.4335938,1.0898438 -0.65625,1.3359376 l -1.68750002,1.66406244 c -0.0703125,0.0585938 -0.0703125,0.0703125 -0.0703125,0.2695312475 H 3.3160469 Z m 0,0"
       style="fill:#000000;fill-opacity:1;fill-rule:nonzero;stroke:none"
       aria-label="2"
       transform="matrix(1.3333333,0,0,1.3333333,155.24267,23.925333)" />
    <g
       id="g29"
       aria-label="|0⟩"
       transform="matrix(1.3333333,0,0,1.3333333,4.428,56.670667)">
      <path
         id="path30"
         d="m 1.5832969,-7.112375 c 0,-0.1757812 0,-0.3632812 -0.1992188,-0.3632812 -0.1992187,0 -0.1992187,0.1875 -0.1992187,0.3632812 v 9.2460938 c 0,0.1757812 0,0.3632812 0.1992187,0.3632812 0.1992188,0 0.1992188,-0.1875 0.1992188,-0.3632812 z m 0,0"
         style="fill:#000000;fill-opacity:1;fill-rule:nonzero;stroke:none" />
      <path
         id="path31"
         d="m 7.3489219,-3.1865937 c 0,-0.796875 -0.046875,-1.59375 -0.3984375,-2.3320313 -0.4570313,-0.9609375 -1.2773438,-1.1132812 -1.6875,-1.1132812 -0.5976563,0 -1.3359375,0.2578125 -1.734375,1.1835937 -0.328125,0.6914063 -0.375,1.4648438 -0.375,2.2617188 0,0.75 0.046875,1.640625 0.4453125,2.4023437 0.4335937,0.80859375 1.1601562,1.0078125 1.6523437,1.0078125 0.5390625,0 1.2890625,-0.2109375 1.734375,-1.16015625 C 7.3020469,-1.628 7.3489219,-2.4014375 7.3489219,-3.1865937 Z M 5.2512656,9.0625e-4 c -0.3867187,0 -0.984375,-0.24609375 -1.1601562,-1.20703125 -0.1054688,-0.5976562 -0.1054688,-1.5117187 -0.1054688,-2.0976562 0,-0.6445313 0,-1.3007813 0.082031,-1.8398438 0.1875,-1.1835937 0.9257812,-1.265625 1.1835937,-1.265625 0.328125,0 0.984375,0.1757813 1.171875,1.1601563 0.09375,0.5625 0.09375,1.3125 0.09375,1.9453125 0,0.75 0,1.4179687 -0.1054687,2.0625 C 6.2590781,-0.30378125 5.6965781,9.0625e-4 5.2512656,9.0625e-4 Z m 0,0"
         style="fill:#000000;fill-opacity:1;fill-rule:nonzero;stroke:none" />
      <path
         id="path32"
         d="m 10.466109,-2.3194062 c 0.04687,-0.1171875 0.04687,-0.140625 0.04687,-0.1757813 0,-0.023437 0,-0.046875 -0.04687,-0.1640625 L 8.7200156,-7.2412812 c -0.058594,-0.1640625 -0.1171875,-0.234375 -0.2226562,-0.234375 -0.1171875,0 -0.1992188,0.09375 -0.1992188,0.1992187 0,0.035156 0,0.058594 0.046875,0.1640625 l 1.7578124,4.6171875 -1.7578124,4.6054688 c -0.046875,0.1171875 -0.046875,0.1289062 -0.046875,0.1875 0,0.1054687 0.082031,0.1992187 0.1992188,0.1992187 0.1289062,0 0.1640625,-0.1054687 0.2109375,-0.1992187 z m 0,0"
         style="fill:#000000;fill-opacity:1;fill-rule:nonzero;stroke:none" />
    </g>
    <path
       id="path33"
       d="m -24.80324,-21.86478 h 17.0612 V -7.0867 h -17.0612 z"
       style="fill:#ffffff;fill-opacity:1;fill-rule:nonzero;stroke:#000000;stroke-width:0.79701;stroke-linecap:butt;stroke-linejoin:miter;stroke-miterlimit:10;stroke-dasharray:none;stroke-opacity:1"
       transform="matrix(1.3333333,0,0,-1.3333333,77.516,34.049333)" />
    <path
       id="path34"
       d="m 7.6048281,-6.0361172 c 0.082031,-0.3632812 0.1054688,-0.4570312 0.8320313,-0.4570312 0.2578125,0 0.3398437,0 0.3398437,-0.1992188 0,-0.1171875 -0.1054687,-0.1171875 -0.140625,-0.1171875 -0.28125,0 -0.9960937,0.035156 -1.2773437,0.035156 -0.28125,0 -0.9960938,-0.035156 -1.2773438,-0.035156 -0.082031,0 -0.1992187,0 -0.1992187,0.1992188 0,0.1171875 0.09375,0.1171875 0.28125,0.1171875 0.023437,0 0.2109375,0 0.375,0.011719 0.1875,0.023437 0.2695312,0.035156 0.2695312,0.1640625 0,0.035156 0,0.058594 -0.035156,0.1875 l -0.5976563,2.4375 H 3.1399844 l 0.5859375,-2.34375 c 0.09375,-0.3632812 0.1171875,-0.4570312 0.8320312,-0.4570312 0.2578125,0 0.3398438,0 0.3398438,-0.1992188 0,-0.1171875 -0.1054688,-0.1171875 -0.140625,-0.1171875 -0.2695313,0 -0.9960938,0.035156 -1.265625,0.035156 -0.2929688,0 -0.9960938,-0.035156 -1.2890625,-0.035156 -0.082031,0 -0.1875,0 -0.1875,0.1992188 0,0.1171875 0.082031,0.1171875 0.28125,0.1171875 0.011719,0 0.1992187,0 0.375,0.011719 0.1757812,0.023437 0.2695312,0.035156 0.2695312,0.1640625 0,0.035156 -0.011719,0.070312 -0.046875,0.1875 l -1.3359375,5.35546876 c -0.09375,0.38671875 -0.1171875,0.46875 -0.90234372,0.46875 -0.17578125,0 -0.26953125,0 -0.26953125,0.19921875 0,0.1054687525 0.1171875,0.1054687525 0.140625,0.1054687525 0.28125,0 0.98437497,-0.0351562525 1.26562497,-0.0351562525 0.2109375,0 0.4335938,0.01171875 0.6328125,0.01171875 0.2226563,0 0.4453125,0.0234375025 0.65625,0.0234375025 0.070312,0 0.1992188,0 0.1992188,-0.1992187525 0,-0.10546875 -0.09375,-0.10546875 -0.28125,-0.10546875 -0.375,0 -0.6445313,0 -0.6445313,-0.1875 0,-0.0585938 0.011719,-0.10546875 0.023437,-0.1640625 l 0.679688,-2.73046936 h 3.0351563 c -0.4101563,1.6523438 -0.6445313,2.60156251 -0.6796875,2.75390626 -0.1054688,0.31640625 -0.2929688,0.328125 -0.9140625,0.328125 -0.1523438,0 -0.234375,0 -0.234375,0.19921875 0,0.1054687525 0.1171875,0.1054687525 0.140625,0.1054687525 0.28125,0 0.984375,-0.0351562525 1.265625,-0.0351562525 0.2109375,0 0.421875,0.01171875 0.6328125,0.01171875 0.2226562,0 0.4335937,0.0234375025 0.6445312,0.0234375025 0.082031,0 0.1992188,0 0.1992188,-0.1992187525 0,-0.10546875 -0.082031,-0.10546875 -0.2695313,-0.10546875 -0.375,0 -0.65625,0 -0.65625,-0.1875 0,-0.0585938 0.023437,-0.10546875 0.035156,-0.1640625 z m 0,0"
       style="fill:#000000;fill-opacity:1;fill-rule:nonzero;stroke:none"
       aria-label="H"
       transform="matrix(1.3333333,0,0,1.3333333,49.758667,57.888)" />
    <g
       id="g34"
       aria-label="|0⟩+|1⟩"
       transform="matrix(1.3333333,0,0,1.3333333,136.70133,50.002667)">
      <path
         id="path35"
         d="m 1.349,-4.9561016 c 0,-0.1054687 0,-0.2695312 -0.1640625,-0.2695312 -0.1757812,0 -0.1757812,0.1523437 -0.1757812,0.2695312 v 6.4335938 c 0,0.09375 0,0.2695312 0.1757812,0.2695312 C 1.349,1.7470234 1.349,1.5829609 1.349,1.4774922 Z m 0,0"
         style="fill:#000000;fill-opacity:1;fill-rule:nonzero;stroke:none" />
      <path
         id="path36"
         d="m 5.9632578,-2.2256328 c 0,-0.7617188 -0.09375,-1.3125 -0.4101562,-1.8046875 -0.2226563,-0.3164063 -0.6445313,-0.5976563 -1.2070313,-0.5976563 -1.6171875,0 -1.6171875,1.8984375 -1.6171875,2.4023438 0,0.5039062 0,2.36718749 1.6171875,2.36718749 1.6171875,0 1.6171875,-1.86328129 1.6171875,-2.36718749 z m -1.6171875,2.16796874 c -0.3164062,0 -0.75,-0.1875 -0.890625,-0.76171875 -0.09375,-0.41015629 -0.09375,-0.98437499 -0.09375,-1.49999999 0,-0.5039063 0,-1.03125 0.1054688,-1.4179688 0.1523437,-0.5507812 0.5976562,-0.6914062 0.8789062,-0.6914062 0.375,0 0.7382813,0.2226562 0.8671875,0.6328125 0.1054688,0.375 0.1171875,0.8789062 0.1171875,1.4765625 0,0.515625 0,1.0429687 -0.09375,1.47656249 -0.140625,0.6328125 -0.609375,0.78515625 -0.890625,0.78515625 z m 0,0"
         style="fill:#000000;fill-opacity:1;fill-rule:nonzero;stroke:none" />
      <path
         id="path37"
         d="m 8.5531016,-1.6045391 c 0.035156,-0.1054687 0.035156,-0.1171875 0.035156,-0.140625 0,-0.035156 0,-0.035156 -0.035156,-0.140625 l -1.3125,-3.1640625 c -0.046875,-0.1054687 -0.082031,-0.1757812 -0.1992188,-0.1757812 -0.070312,0 -0.1640625,0.058594 -0.1640625,0.1757812 0,0.011719 0,0.035156 0.035156,0.1289063 L 8.236695,-1.7451641 6.9124763,1.4306172 c -0.035156,0.09375 -0.035156,0.1054687 -0.035156,0.1289062 0,0.1171875 0.09375,0.1757813 0.1640625,0.1757813 0.1171875,0 0.1523438,-0.070312 0.1875,-0.1757813 z m 0,0"
         style="fill:#000000;fill-opacity:1;fill-rule:nonzero;stroke:none" />
      <path
         id="path38"
         d="m 12.78357,-1.5693828 h 2.144532 c 0.08203,0 0.257812,0 0.257812,-0.1757813 0,-0.1757812 -0.164062,-0.1757812 -0.257812,-0.1757812 H 12.78357 v -2.1328125 c 0,-0.09375 0,-0.2578125 -0.164062,-0.2578125 -0.175781,0 -0.175781,0.1523437 -0.175781,0.2578125 v 2.1328125 h -2.132813 c -0.09375,0 -0.257812,0 -0.257812,0.1757812 0,0.1757813 0.152343,0.1757813 0.257812,0.1757813 h 2.132813 v 2.13281249 c 0,0.09375 0,0.2578125 0.175781,0.2578125 0.164062,0 0.164062,-0.15234375 0.164062,-0.2578125 z m 0,0"
         style="fill:#000000;fill-opacity:1;fill-rule:nonzero;stroke:none" />
      <path
         id="path39"
         d="m 17.025758,-4.9561016 c 0,-0.1054687 0,-0.2695312 -0.164063,-0.2695312 -0.175781,0 -0.175781,0.1523437 -0.175781,0.2695312 v 6.4335938 c 0,0.09375 0,0.2695312 0.175781,0.2695312 0.164063,0 0.164063,-0.1640625 0.164063,-0.2695312 z m 0,0"
         style="fill:#000000;fill-opacity:1;fill-rule:nonzero;stroke:none" />
      <path
         id="path40"
         d="m 20.374391,-4.4287578 c 0,-0.1875 -0.01172,-0.1992188 -0.210938,-0.1992188 -0.445312,0.4335938 -1.078125,0.4453125 -1.359375,0.4453125 v 0.2460938 c 0.164063,0 0.621094,0 1.007813,-0.1875 v 3.55078124 c 0,0.234375 0,0.328125 -0.691407,0.328125 H 18.850953 V 9.296875e-4 C 18.979859,-0.01078906 19.835328,-0.02250781 20.093141,-0.02250781 c 0.210937,0 1.089843,0.01171875 1.242187,0.0234374975 V -0.24516406 h -0.257812 c -0.703125,0 -0.703125,-0.09375 -0.703125,-0.328125 z m 0,0"
         style="fill:#000000;fill-opacity:1;fill-rule:nonzero;stroke:none" />
      <path
         id="path41"
         d="m 24.229859,-1.6045391 c 0.03516,-0.1054687 0.03516,-0.1171875 0.03516,-0.140625 0,-0.035156 0,-0.035156 -0.03516,-0.140625 l -1.3125,-3.1640625 c -0.04687,-0.1054687 -0.08203,-0.1757812 -0.199218,-0.1757812 -0.07031,0 -0.164063,0.058594 -0.164063,0.1757812 0,0.011719 0,0.035156 0.03516,0.1289063 l 1.324219,3.1757812 -1.324219,3.1757813 c -0.03516,0.09375 -0.03516,0.1054687 -0.03516,0.1289062 0,0.1171875 0.09375,0.1757813 0.164063,0.1757813 0.117187,0 0.152343,-0.070312 0.1875,-0.1757813 z m 0,0"
         style="fill:#000000;fill-opacity:1;fill-rule:nonzero;stroke:none" />
    </g>
    <path
       id="path42"
       d="M 0,0 H 25.239"
       style="fill:none;stroke:#000000;stroke-width:0.398;stroke-linecap:butt;stroke-linejoin:miter;stroke-miterlimit:10;stroke-dasharray:none;stroke-opacity:1"
       transform="matrix(1.3333333,0,0,-1.3333333,136.70133,53.124)" />
    <path
       id="path43"
       d="M 3.0934687,5.8712578 1.722375,3.1642266 C 1.6872187,3.0939141 1.6637812,3.0470391 1.6051875,3.0470391 c -0.023437,0 -0.035156,0 -0.1054688,0.058594 L 0.74971875,3.5978203 c -0.09375,0.058594 -0.09375,0.09375 -0.09375,0.1171875 0,0.046875 0.0351563,0.09375 0.09375,0.09375 0.0351563,0 0.046875,0 0.140625,-0.058594 C 0.96065625,3.6915703 1.159875,3.5509453 1.253625,3.5040703 l 1.5234375,3.0117188 c 0.046875,0.1054687 0.058594,0.1171875 0.1523437,0.1171875 0.070312,0 0.140625,0 0.2109375,-0.1289063 l 3.515625,-6.52734374 c 0.046875,-0.09375 0.046875,-0.10546875 0.046875,-0.140625 0,-0.1171875 -0.082031,-0.17578125 -0.1640625,-0.17578125 -0.1054687,0 -0.140625,0.0585938 -0.1757812,0.140625 z m 0,0"
       style="fill:#000000;fill-opacity:1;fill-rule:nonzero;stroke:none"
       aria-label="√"
       transform="matrix(1.3333333,0,0,1.3333333,146.516,54.824)" />
    <path
       id="path44"
       d="M 0,0 H 3.971"
       style="fill:none;stroke:#000000;stroke-width:0.339;stroke-linecap:butt;stroke-linejoin:miter;stroke-miterlimit:10;stroke-dasharray:none;stroke-opacity:1"
       transform="matrix(1.3333333,0,0,-1.3333333,155.24267,54.598667)" />
    <path
       id="path45"
       d="m 3.5152656,-1.2651172 h -0.234375 c -0.023437,0.1523438 -0.082031,0.56250001 -0.1757812,0.63281251 -0.058594,0.0351563 -0.5976563,0.0351563 -0.6914063,0.0351563 H 1.1246406 c 0.7382813,-0.64453121 0.984375,-0.84374991 1.3945313,-1.17187491 0.515625,-0.4101564 0.9960937,-0.8437501 0.9960937,-1.5000001 0,-0.8437499 -0.7382812,-1.3593749 -1.6289062,-1.3593749 -0.8671875,0 -1.45312502,0.609375 -1.45312502,1.2421875 0,0.3632812 0.3046875,0.3984375 0.375,0.3984375 0.1640625,0 0.37500002,-0.1171875 0.37500002,-0.375 0,-0.1289063 -0.058594,-0.3632813 -0.42187502,-0.3632813 0.22265625,-0.5039062 0.69140622,-0.65625 1.01953122,-0.65625 0.703125,0 1.0664063,0.5507812 1.0664063,1.1132812 0,0.609375 -0.4335938,1.0898437 -0.65625,1.3359375 l -1.68750002,1.66406251 c -0.0703125,0.0585938 -0.0703125,0.0703125 -0.0703125,0.2695312525 H 3.3160469 Z m 0,0"
       style="fill:#000000;fill-opacity:1;fill-rule:nonzero;stroke:none"
       aria-label="2"
       transform="matrix(1.3333333,0,0,1.3333333,155.24267,62.526667)" />
  </g>
</svg>
