<?xml version="1.0" encoding="UTF-8" standalone="no"?>
<!-- Created with Inkscape (http://www.inkscape.org/) -->

<svg
   version="1.1"
   id="svg1"
   width="108.85546"
   height="37.792969"
   viewBox="0 0 108.85546 37.792969"
   xmlns="http://www.w3.org/2000/svg"
   xmlns:svg="http://www.w3.org/2000/svg">
  <defs
     id="defs1" />
  <g
     id="g1"
     transform="translate(-6.0039063,-4.4218748)">
    <path
       id="path1"
       d="M -7.08669,7.4852 V -7.48518"
       style="fill:none;stroke:#000000;stroke-width:0.79701;stroke-linecap:round;stroke-linejoin:miter;stroke-miterlimit:10;stroke-dasharray:none;stroke-opacity:1"
       transform="matrix(1.3333333,0,0,-1.3333333,60.382667,23.316)" />
    <path
       id="path2"
       d="M -8.78741,9.18594 H -23.35933"
       style="fill:none;stroke:#000000;stroke-width:0.79701;stroke-linecap:round;stroke-linejoin:miter;stroke-miterlimit:10;stroke-dasharray:none;stroke-opacity:1"
       transform="matrix(1.3333333,0,0,-1.3333333,60.382667,23.316)" />
    <path
       id="path3"
       d="M 9.18594,9.18594 H -5.38594"
       style="fill:none;stroke:#000000;stroke-width:0.79701;stroke-linecap:round;stroke-linejoin:miter;stroke-miterlimit:10;stroke-dasharray:none;stroke-opacity:1"
       transform="matrix(1.3333333,0,0,-1.3333333,60.382667,23.316)" />
    <path
       id="path4"
       d="M 9.18594,9.18594 H -5.38594"
       style="fill:none;stroke:#000000;stroke-width:0.79701;stroke-linecap:round;stroke-linejoin:miter;stroke-miterlimit:10;stroke-dasharray:none;stroke-opacity:1"
       transform="matrix(1.3333333,0,0,-1.3333333,60.382667,23.316)" />
    <path
       id="path5"
       d="M 23.35934,9.18594 H 9.18594"
       style="fill:none;stroke:#000000;stroke-width:0.79701;stroke-linecap:round;stroke-linejoin:miter;stroke-miterlimit:10;stroke-dasharray:none;stroke-opacity:1"
       transform="matrix(1.3333333,0,0,-1.3333333,60.382667,23.316)" />
    <path
       id="path6"
       d="M -8.78741,-9.18593 H -23.35933"
       style="fill:none;stroke:#000000;stroke-width:0.79701;stroke-linecap:round;stroke-linejoin:miter;stroke-miterlimit:10;stroke-dasharray:none;stroke-opacity:1"
       transform="matrix(1.3333333,0,0,-1.3333333,60.382667,23.316)" />
    <path
       id="path7"
       d="M 9.18594,-9.18593 H -5.38594"
       style="fill:none;stroke:#000000;stroke-width:0.79701;stroke-linecap:round;stroke-linejoin:miter;stroke-miterlimit:10;stroke-dasharray:none;stroke-opacity:1"
       transform="matrix(1.3333333,0,0,-1.3333333,60.382667,23.316)" />
    <path
       id="path8"
       d="M 9.18594,-9.18593 H -5.38594"
       style="fill:none;stroke:#000000;stroke-width:0.79701;stroke-linecap:round;stroke-linejoin:miter;stroke-miterlimit:10;stroke-dasharray:none;stroke-opacity:1"
       transform="matrix(1.3333333,0,0,-1.3333333,60.382667,23.316)" />
    <path
       id="path9"
       d="M 23.35934,-9.18593 H 9.18594"
       style="fill:none;stroke:#000000;stroke-width:0.79701;stroke-linecap:round;stroke-linejoin:miter;stroke-miterlimit:10;stroke-dasharray:none;stroke-opacity:1"
       transform="matrix(1.3333333,0,0,-1.3333333,60.382667,23.316)" />
    <path
       id="path10"
       d="M 1.70073,0 C 1.70073,0.93929 0.93929,1.70073 0,1.70073 -0.93929,1.70073 -1.70073,0.93929 -1.70073,0 c 0,-0.93929 0.76144,-1.70073 1.70073,-1.70073 0.93929,0 1.70073,0.76144 1.70073,1.70073 z"
       style="fill:#000000;fill-opacity:1;fill-rule:nonzero;stroke:#000000;stroke-width:0.79701;stroke-linecap:butt;stroke-linejoin:miter;stroke-miterlimit:10;stroke-dasharray:none;stroke-opacity:1"
       transform="matrix(1.3333333,0,0,-1.3333333,50.934667,11.068)" />
    <path
       id="path11"
       d="M 1.70073,0 C 1.70073,0.93929 0.93929,1.70073 0,1.70073 -0.93929,1.70073 -1.70073,0.93929 -1.70073,0 c 0,-0.93929 0.76144,-1.70073 1.70073,-1.70073 0.93929,0 1.70073,0.76144 1.70073,1.70073 z"
       style="fill:#000000;fill-opacity:1;fill-rule:nonzero;stroke:#000000;stroke-width:0.79701;stroke-linecap:butt;stroke-linejoin:miter;stroke-miterlimit:10;stroke-dasharray:none;stroke-opacity:1"
       transform="matrix(1.3333333,0,0,-1.3333333,50.934667,35.564)" />
    <g
       id="g11"
       aria-label="|+⟩"
       transform="matrix(1.3333333,0,0,1.3333333,4.4266667,14.389333)">
      <path
         id="path12"
         d="m 1.5813672,-7.1123125 c 0,-0.1757813 0,-0.3632813 -0.1992188,-0.3632813 -0.1992187,0 -0.1992187,0.1875 -0.1992187,0.3632813 v 9.2460937 c 0,0.1757813 0,0.3632813 0.1992187,0.3632813 0.1992188,0 0.1992188,-0.1875 0.1992188,-0.3632813 z m 0,0"
         style="fill:#000000;fill-opacity:1;fill-rule:nonzero;stroke:none" />
      <path
         id="path13"
         d="m 6.8460156,-2.2959063 h 2.7773438 c 0.140625,0 0.328125,0 0.328125,-0.1992187 0,-0.1992188 -0.1875,-0.1992188 -0.328125,-0.1992188 H 6.8460156 v -2.7890625 c 0,-0.1289062 0,-0.328125 -0.1992187,-0.328125 -0.1992188,0 -0.1992188,0.1992188 -0.1992188,0.328125 v 2.7890625 H 3.6585156 c -0.140625,0 -0.328125,0 -0.328125,0.1992188 0,0.1992187 0.1875,0.1992187 0.328125,0.1992187 H 6.4475781 V 0.504875 c 0,0.12890625 0,0.328125 0.1992188,0.328125 0.1992187,0 0.1992187,-0.19921875 0.1992187,-0.328125 z m 0,0"
         style="fill:#000000;fill-opacity:1;fill-rule:nonzero;stroke:none" />
      <path
         id="path14"
         d="m 13.235664,-2.3193438 c 0.04687,-0.1171875 0.04687,-0.140625 0.04687,-0.1757812 0,-0.023437 0,-0.046875 -0.04687,-0.1640625 L 11.48957,-7.2412188 c -0.05859,-0.1640625 -0.117187,-0.234375 -0.222656,-0.234375 -0.117187,0 -0.199219,0.09375 -0.199219,0.1992188 0,0.035156 0,0.058594 0.04687,0.1640625 l 1.757813,4.6171875 -1.757813,4.6054687 c -0.04687,0.1171875 -0.04687,0.1289063 -0.04687,0.1875 0,0.1054688 0.08203,0.1992188 0.199219,0.1992188 0.128906,0 0.164063,-0.1054688 0.210938,-0.1992188 z m 0,0"
         style="fill:#000000;fill-opacity:1;fill-rule:nonzero;stroke:none" />
    </g>
    <g
       id="g14"
       aria-label="|+⟩"
       transform="matrix(1.3333333,0,0,1.3333333,97.150667,14.389333)">
      <path
         id="path15"
         d="m 1.5832891,-7.1123125 c 0,-0.1757813 0,-0.3632813 -0.1992188,-0.3632813 -0.1992187,0 -0.1992187,0.1875 -0.1992187,0.3632813 v 9.2460937 c 0,0.1757813 0,0.3632813 0.1992187,0.3632813 0.1992188,0 0.1992188,-0.1875 0.1992188,-0.3632813 z m 0,0"
         style="fill:#000000;fill-opacity:1;fill-rule:nonzero;stroke:none" />
      <path
         id="path16"
         d="m 6.8450078,-2.2959063 h 2.7773438 c 0.140625,0 0.328125,0 0.328125,-0.1992187 0,-0.1992188 -0.1875,-0.1992188 -0.328125,-0.1992188 H 6.8450078 v -2.7890625 c 0,-0.1289062 0,-0.328125 -0.1992187,-0.328125 -0.1992188,0 -0.1992188,0.1992188 -0.1992188,0.328125 v 2.7890625 H 3.6575078 c -0.140625,0 -0.328125,0 -0.328125,0.1992188 0,0.1992187 0.1875,0.1992187 0.328125,0.1992187 H 6.4465703 V 0.504875 c 0,0.12890625 0,0.328125 0.1992188,0.328125 0.1992187,0 0.1992187,-0.19921875 0.1992187,-0.328125 z m 0,0"
         style="fill:#000000;fill-opacity:1;fill-rule:nonzero;stroke:none" />
      <path
         id="path17"
         d="m 13.234656,-2.3193438 c 0.04687,-0.1171875 0.04687,-0.140625 0.04687,-0.1757812 0,-0.023437 0,-0.046875 -0.04687,-0.1640625 l -1.746093,-4.5820313 c -0.05859,-0.1640625 -0.117188,-0.234375 -0.222657,-0.234375 -0.117187,0 -0.199218,0.09375 -0.199218,0.1992188 0,0.035156 0,0.058594 0.04687,0.1640625 l 1.757812,4.6171875 -1.757812,4.6054687 c -0.04687,0.1171875 -0.04687,0.1289063 -0.04687,0.1875 0,0.1054688 0.08203,0.1992188 0.199218,0.1992188 0.128907,0 0.164063,-0.1054688 0.210938,-0.1992188 z m 0,0"
         style="fill:#000000;fill-opacity:1;fill-rule:nonzero;stroke:none" />
    </g>
    <g
       id="g17"
       aria-label="|+⟩"
       transform="matrix(1.3333333,0,0,1.3333333,4.4266667,38.885333)">
      <path
         id="path18"
         d="m 1.5813672,-7.1122422 c 0,-0.1757812 0,-0.3632812 -0.1992188,-0.3632812 -0.1992187,0 -0.1992187,0.1875 -0.1992187,0.3632812 v 9.2460938 c 0,0.1757812 0,0.3632812 0.1992187,0.3632812 0.1992188,0 0.1992188,-0.1875 0.1992188,-0.3632812 z m 0,0"
         style="fill:#000000;fill-opacity:1;fill-rule:nonzero;stroke:none" />
      <path
         id="path19"
         d="m 6.8460156,-2.2958359 h 2.7773438 c 0.140625,0 0.328125,0 0.328125,-0.1992188 0,-0.1992187 -0.1875,-0.1992187 -0.328125,-0.1992187 H 6.8460156 v -2.7890625 c 0,-0.1289063 0,-0.328125 -0.1992187,-0.328125 -0.1992188,0 -0.1992188,0.1992187 -0.1992188,0.328125 v 2.7890625 H 3.6585156 c -0.140625,0 -0.328125,0 -0.328125,0.1992187 0,0.1992188 0.1875,0.1992188 0.328125,0.1992188 h 2.7890625 v 2.80078121 c 0,0.12890625 0,0.328125 0.1992188,0.328125 0.1992187,0 0.1992187,-0.19921875 0.1992187,-0.328125 z m 0,0"
         style="fill:#000000;fill-opacity:1;fill-rule:nonzero;stroke:none" />
      <path
         id="path20"
         d="m 13.235664,-2.3192734 c 0.04687,-0.1171875 0.04687,-0.140625 0.04687,-0.1757813 0,-0.023437 0,-0.046875 -0.04687,-0.1640625 L 11.48957,-7.2411484 c -0.05859,-0.1640625 -0.117187,-0.234375 -0.222656,-0.234375 -0.117187,0 -0.199219,0.09375 -0.199219,0.1992187 0,0.035156 0,0.058594 0.04687,0.1640625 l 1.757813,4.6171875 -1.757813,4.6054688 c -0.04687,0.1171875 -0.04687,0.1289062 -0.04687,0.1875 0,0.1054687 0.08203,0.1992187 0.199219,0.1992187 0.128906,0 0.164063,-0.1054687 0.210938,-0.1992187 z m 0,0"
         style="fill:#000000;fill-opacity:1;fill-rule:nonzero;stroke:none" />
    </g>
    <g
       id="g20"
       aria-label="|+⟩"
       transform="matrix(1.3333333,0,0,1.3333333,97.150667,38.885333)">
      <path
         id="path21"
         d="m 1.5832891,-7.1122422 c 0,-0.1757812 0,-0.3632812 -0.1992188,-0.3632812 -0.1992187,0 -0.1992187,0.1875 -0.1992187,0.3632812 v 9.2460938 c 0,0.1757812 0,0.3632812 0.1992187,0.3632812 0.1992188,0 0.1992188,-0.1875 0.1992188,-0.3632812 z m 0,0"
         style="fill:#000000;fill-opacity:1;fill-rule:nonzero;stroke:none" />
      <path
         id="path22"
         d="m 6.8450078,-2.2958359 h 2.7773438 c 0.140625,0 0.328125,0 0.328125,-0.1992188 0,-0.1992187 -0.1875,-0.1992187 -0.328125,-0.1992187 H 6.8450078 v -2.7890625 c 0,-0.1289063 0,-0.328125 -0.1992187,-0.328125 -0.1992188,0 -0.1992188,0.1992187 -0.1992188,0.328125 v 2.7890625 H 3.6575078 c -0.140625,0 -0.328125,0 -0.328125,0.1992187 0,0.1992188 0.1875,0.1992188 0.328125,0.1992188 h 2.7890625 v 2.80078121 c 0,0.12890625 0,0.328125 0.1992188,0.328125 0.1992187,0 0.1992187,-0.19921875 0.1992187,-0.328125 z m 0,0"
         style="fill:#000000;fill-opacity:1;fill-rule:nonzero;stroke:none" />
      <path
         id="path23"
         d="m 13.234656,-2.3192734 c 0.04687,-0.1171875 0.04687,-0.140625 0.04687,-0.1757813 0,-0.023437 0,-0.046875 -0.04687,-0.1640625 l -1.746093,-4.5820312 c -0.05859,-0.1640625 -0.117188,-0.234375 -0.222657,-0.234375 -0.117187,0 -0.199218,0.09375 -0.199218,0.1992187 0,0.035156 0,0.058594 0.04687,0.1640625 l 1.757812,4.6171875 -1.757812,4.6054688 c -0.04687,0.1171875 -0.04687,0.1289062 -0.04687,0.1875 0,0.1054687 0.08203,0.1992187 0.199218,0.1992187 0.128907,0 0.164063,-0.1054687 0.210938,-0.1992187 z m 0,0"
         style="fill:#000000;fill-opacity:1;fill-rule:nonzero;stroke:none" />
    </g>
  </g>
</svg>
