<?xml version="1.0" encoding="UTF-8" standalone="no"?>
<!-- Created with Inkscape (http://www.inkscape.org/) -->

<svg
   version="1.1"
   id="svg1"
   width="345.78543"
   height="152.33913"
   viewBox="0 0 345.78543 152.33913"
   xmlns="http://www.w3.org/2000/svg"
   xmlns:svg="http://www.w3.org/2000/svg">
  <defs
     id="defs1">
    <clipPath
       clipPathUnits="userSpaceOnUse"
       id="clipPath60">
      <path
         d="M 101.28395,39.70892 H 121.2095 V 54.65307 H 101.28395 Z"
         transform="translate(2.5e-6)"
         id="path60" />
    </clipPath>
    <clipPath
       clipPathUnits="userSpaceOnUse"
       id="clipPath62">
      <path
         d="M 101.28395,39.70892 H 121.2095 V 54.65307 H 101.28395 Z"
         transform="translate(2.5e-6)"
         id="path62" />
    </clipPath>
    <clipPath
       clipPathUnits="userSpaceOnUse"
       id="clipPath64">
      <path
         d="M 101.28395,39.70892 H 121.2095 V 54.65307 H 101.28395 Z"
         transform="matrix(0.64240066,-0.76642042,0.76642042,0.64240066,-112.99874,56.773709)"
         id="path64" />
    </clipPath>
    <clipPath
       clipPathUnits="userSpaceOnUse"
       id="clipPath73">
      <path
         d="M 101.28395,8.51581 H 121.2095 V 23.45996 H 101.28395 Z"
         transform="translate(2.5e-6)"
         id="path73" />
    </clipPath>
    <clipPath
       clipPathUnits="userSpaceOnUse"
       id="clipPath75">
      <path
         d="M 101.28395,8.51581 H 121.2095 V 23.45996 H 101.28395 Z"
         transform="translate(2.5e-6)"
         id="path75" />
    </clipPath>
    <clipPath
       clipPathUnits="userSpaceOnUse"
       id="clipPath77">
      <path
         d="M 101.28395,8.51581 H 121.2095 V 23.45996 H 101.28395 Z"
         transform="matrix(0.64240066,-0.76642042,0.76642042,0.64240066,-89.091697,76.81219)"
         id="path77" />
    </clipPath>
    <clipPath
       clipPathUnits="userSpaceOnUse"
       id="clipPath86">
      <path
         d="M 101.28395,-22.6773 H 121.2095 V -7.73315 H 101.28395 Z"
         transform="translate(2.5e-6)"
         id="path86" />
    </clipPath>
    <clipPath
       clipPathUnits="userSpaceOnUse"
       id="clipPath88">
      <path
         d="M 101.28395,-22.6773 H 121.2095 V -7.73315 H 101.28395 Z"
         transform="translate(2.5e-6)"
         id="path88" />
    </clipPath>
    <clipPath
       clipPathUnits="userSpaceOnUse"
       id="clipPath90">
      <path
         d="M 101.28395,-22.6773 H 121.2095 V -7.73315 H 101.28395 Z"
         transform="matrix(0.64240066,-0.76642042,0.76642042,0.64240066,-65.184661,96.850665)"
         id="path90" />
    </clipPath>
  </defs>
  <g
     id="g1"
     transform="translate(-6.0039063,-6.3531022)">
    <path
       id="path1"
       d="m -107.0361,47.181 h -14.1734"
       style="fill:none;stroke:#000000;stroke-width:0.79701;stroke-linecap:round;stroke-linejoin:miter;stroke-miterlimit:10;stroke-dasharray:none;stroke-opacity:1"
       transform="matrix(1.3333333,0,0,-1.3333333,189.64533,82.522667)" />
    <path
       id="path2"
       d="M -63.69325,45.48027 V -38.92627"
       style="fill:none;stroke:#000000;stroke-width:0.79701;stroke-linecap:round;stroke-linejoin:miter;stroke-miterlimit:10;stroke-dasharray:none;stroke-opacity:1"
       transform="matrix(1.3333333,0,0,-1.3333333,189.64533,82.522667)" />
    <path
       id="path3"
       d="M -65.394,47.181 H -89.9749"
       style="fill:none;stroke:#000000;stroke-width:0.79701;stroke-linecap:round;stroke-linejoin:miter;stroke-miterlimit:10;stroke-dasharray:none;stroke-opacity:1"
       transform="matrix(1.3333333,0,0,-1.3333333,189.64533,82.522667)" />
    <path
       id="path4"
       d="M -25.30338,47.181 H -61.99252"
       style="fill:none;stroke:#000000;stroke-width:0.79701;stroke-linecap:round;stroke-linejoin:miter;stroke-miterlimit:10;stroke-dasharray:none;stroke-opacity:1"
       transform="matrix(1.3333333,0,0,-1.3333333,189.64533,82.522667)" />
    <path
       id="path5"
       d="M -25.30338,47.181 H -61.99252"
       style="fill:none;stroke:#000000;stroke-width:0.79701;stroke-linecap:round;stroke-linejoin:miter;stroke-miterlimit:10;stroke-dasharray:none;stroke-opacity:1"
       transform="matrix(1.3333333,0,0,-1.3333333,189.64533,82.522667)" />
    <path
       id="path6"
       d="M 13.08647,47.181 H -25.30338"
       style="fill:none;stroke:#000000;stroke-width:0.79701;stroke-linecap:round;stroke-linejoin:miter;stroke-miterlimit:10;stroke-dasharray:none;stroke-opacity:1"
       transform="matrix(1.3333333,0,0,-1.3333333,189.64533,82.522667)" />
    <path
       id="path7"
       d="M 13.08647,47.181 H -25.30338"
       style="fill:none;stroke:#000000;stroke-width:0.79701;stroke-linecap:round;stroke-linejoin:miter;stroke-miterlimit:10;stroke-dasharray:none;stroke-opacity:1"
       transform="matrix(1.3333333,0,0,-1.3333333,189.64533,82.522667)" />
    <path
       id="path8"
       d="M 39.36812,47.181 H 13.08647"
       style="fill:none;stroke:#000000;stroke-width:0.79701;stroke-linecap:round;stroke-linejoin:miter;stroke-miterlimit:10;stroke-dasharray:none;stroke-opacity:1"
       transform="matrix(1.3333333,0,0,-1.3333333,189.64533,82.522667)" />
    <path
       id="path9"
       d="M 39.36812,47.181 H 13.08647"
       style="fill:none;stroke:#000000;stroke-width:0.79701;stroke-linecap:round;stroke-linejoin:miter;stroke-miterlimit:10;stroke-dasharray:none;stroke-opacity:1"
       transform="matrix(1.3333333,0,0,-1.3333333,189.64533,82.522667)" />
    <path
       id="path10"
       d="M 53.54152,47.181 H 39.36812"
       style="fill:none;stroke:#000000;stroke-width:0.79701;stroke-linecap:round;stroke-linejoin:miter;stroke-miterlimit:10;stroke-dasharray:none;stroke-opacity:1"
       transform="matrix(1.3333333,0,0,-1.3333333,189.64533,82.522667)" />
    <path
       id="path11"
       d="M 101.28395,47.181 H 87.11055"
       style="fill:none;stroke:#000000;stroke-width:0.79701;stroke-linecap:round;stroke-linejoin:miter;stroke-miterlimit:10;stroke-dasharray:none;stroke-opacity:1"
       transform="matrix(1.3333333,0,0,-1.3333333,189.64533,82.522667)" />
    <path
       id="path12"
       d="m -107.0361,15.98788 h -14.1734"
       style="fill:none;stroke:#000000;stroke-width:0.79701;stroke-linecap:round;stroke-linejoin:miter;stroke-miterlimit:10;stroke-dasharray:none;stroke-opacity:1"
       transform="matrix(1.3333333,0,0,-1.3333333,189.64533,82.522667)" />
    <path
       id="path13"
       d="M -63.69325,15.98788 H -89.9749"
       style="fill:none;stroke:#000000;stroke-width:0.79701;stroke-linecap:round;stroke-linejoin:miter;stroke-miterlimit:10;stroke-dasharray:none;stroke-opacity:1"
       transform="matrix(1.3333333,0,0,-1.3333333,189.64533,82.522667)" />
    <path
       id="path14"
       d="M -63.69325,15.98788 H -89.9749"
       style="fill:none;stroke:#000000;stroke-width:0.79701;stroke-linecap:round;stroke-linejoin:miter;stroke-miterlimit:10;stroke-dasharray:none;stroke-opacity:1"
       transform="matrix(1.3333333,0,0,-1.3333333,189.64533,82.522667)" />
    <path
       id="path15"
       d="M -25.30338,14.28714 V -38.92627"
       style="fill:none;stroke:#000000;stroke-width:0.79701;stroke-linecap:round;stroke-linejoin:miter;stroke-miterlimit:10;stroke-dasharray:none;stroke-opacity:1"
       transform="matrix(1.3333333,0,0,-1.3333333,189.64533,82.522667)" />
    <path
       id="path16"
       d="M -27.00412,15.98788 H -63.69325"
       style="fill:none;stroke:#000000;stroke-width:0.79701;stroke-linecap:round;stroke-linejoin:miter;stroke-miterlimit:10;stroke-dasharray:none;stroke-opacity:1"
       transform="matrix(1.3333333,0,0,-1.3333333,189.64533,82.522667)" />
    <path
       id="path17"
       d="M 13.08647,15.98788 H -23.60265"
       style="fill:none;stroke:#000000;stroke-width:0.79701;stroke-linecap:round;stroke-linejoin:miter;stroke-miterlimit:10;stroke-dasharray:none;stroke-opacity:1"
       transform="matrix(1.3333333,0,0,-1.3333333,189.64533,82.522667)" />
    <path
       id="path18"
       d="M 13.08647,15.98788 H -23.60265"
       style="fill:none;stroke:#000000;stroke-width:0.79701;stroke-linecap:round;stroke-linejoin:miter;stroke-miterlimit:10;stroke-dasharray:none;stroke-opacity:1"
       transform="matrix(1.3333333,0,0,-1.3333333,189.64533,82.522667)" />
    <path
       id="path19"
       d="M 39.36812,15.98788 H 13.08647"
       style="fill:none;stroke:#000000;stroke-width:0.79701;stroke-linecap:round;stroke-linejoin:miter;stroke-miterlimit:10;stroke-dasharray:none;stroke-opacity:1"
       transform="matrix(1.3333333,0,0,-1.3333333,189.64533,82.522667)" />
    <path
       id="path20"
       d="M 39.36812,15.98788 H 13.08647"
       style="fill:none;stroke:#000000;stroke-width:0.79701;stroke-linecap:round;stroke-linejoin:miter;stroke-miterlimit:10;stroke-dasharray:none;stroke-opacity:1"
       transform="matrix(1.3333333,0,0,-1.3333333,189.64533,82.522667)" />
    <path
       id="path21"
       d="M 53.54152,15.98788 H 39.36812"
       style="fill:none;stroke:#000000;stroke-width:0.79701;stroke-linecap:round;stroke-linejoin:miter;stroke-miterlimit:10;stroke-dasharray:none;stroke-opacity:1"
       transform="matrix(1.3333333,0,0,-1.3333333,189.64533,82.522667)" />
    <path
       id="path22"
       d="M 53.54152,15.98788 H 39.36812"
       style="fill:none;stroke:#000000;stroke-width:0.79701;stroke-linecap:round;stroke-linejoin:miter;stroke-miterlimit:10;stroke-dasharray:none;stroke-opacity:1"
       transform="matrix(1.3333333,0,0,-1.3333333,189.64533,82.522667)" />
    <path
       id="path23"
       d="M 101.28395,15.98788 H 87.11055"
       style="fill:none;stroke:#000000;stroke-width:0.79701;stroke-linecap:round;stroke-linejoin:miter;stroke-miterlimit:10;stroke-dasharray:none;stroke-opacity:1"
       transform="matrix(1.3333333,0,0,-1.3333333,189.64533,82.522667)" />
    <path
       id="path24"
       d="m -107.0361,-15.20523 h -14.1734"
       style="fill:none;stroke:#000000;stroke-width:0.79701;stroke-linecap:round;stroke-linejoin:miter;stroke-miterlimit:10;stroke-dasharray:none;stroke-opacity:1"
       transform="matrix(1.3333333,0,0,-1.3333333,189.64533,82.522667)" />
    <path
       id="path25"
       d="M -63.69325,-15.20523 H -89.9749"
       style="fill:none;stroke:#000000;stroke-width:0.79701;stroke-linecap:round;stroke-linejoin:miter;stroke-miterlimit:10;stroke-dasharray:none;stroke-opacity:1"
       transform="matrix(1.3333333,0,0,-1.3333333,189.64533,82.522667)" />
    <path
       id="path26"
       d="M -63.69325,-15.20523 H -89.9749"
       style="fill:none;stroke:#000000;stroke-width:0.79701;stroke-linecap:round;stroke-linejoin:miter;stroke-miterlimit:10;stroke-dasharray:none;stroke-opacity:1"
       transform="matrix(1.3333333,0,0,-1.3333333,189.64533,82.522667)" />
    <path
       id="path27"
       d="M -25.30338,-15.20523 H -63.69325"
       style="fill:none;stroke:#000000;stroke-width:0.79701;stroke-linecap:round;stroke-linejoin:miter;stroke-miterlimit:10;stroke-dasharray:none;stroke-opacity:1"
       transform="matrix(1.3333333,0,0,-1.3333333,189.64533,82.522667)" />
    <path
       id="path28"
       d="M -25.30338,-15.20523 H -63.69325"
       style="fill:none;stroke:#000000;stroke-width:0.79701;stroke-linecap:round;stroke-linejoin:miter;stroke-miterlimit:10;stroke-dasharray:none;stroke-opacity:1"
       transform="matrix(1.3333333,0,0,-1.3333333,189.64533,82.522667)" />
    <path
       id="path29"
       d="M 13.08647,-16.90596 V -38.92627"
       style="fill:none;stroke:#000000;stroke-width:0.79701;stroke-linecap:round;stroke-linejoin:miter;stroke-miterlimit:10;stroke-dasharray:none;stroke-opacity:1"
       transform="matrix(1.3333333,0,0,-1.3333333,189.64533,82.522667)" />
    <path
       id="path30"
       d="M 11.38574,-15.20523 H -25.30338"
       style="fill:none;stroke:#000000;stroke-width:0.79701;stroke-linecap:round;stroke-linejoin:miter;stroke-miterlimit:10;stroke-dasharray:none;stroke-opacity:1"
       transform="matrix(1.3333333,0,0,-1.3333333,189.64533,82.522667)" />
    <path
       id="path31"
       d="M 39.36812,-15.20523 H 14.78722"
       style="fill:none;stroke:#000000;stroke-width:0.79701;stroke-linecap:round;stroke-linejoin:miter;stroke-miterlimit:10;stroke-dasharray:none;stroke-opacity:1"
       transform="matrix(1.3333333,0,0,-1.3333333,189.64533,82.522667)" />
    <path
       id="path32"
       d="M 39.36812,-15.20523 H 14.78722"
       style="fill:none;stroke:#000000;stroke-width:0.79701;stroke-linecap:round;stroke-linejoin:miter;stroke-miterlimit:10;stroke-dasharray:none;stroke-opacity:1"
       transform="matrix(1.3333333,0,0,-1.3333333,189.64533,82.522667)" />
    <path
       id="path33"
       d="M 53.54152,-15.20523 H 39.36812"
       style="fill:none;stroke:#000000;stroke-width:0.79701;stroke-linecap:round;stroke-linejoin:miter;stroke-miterlimit:10;stroke-dasharray:none;stroke-opacity:1"
       transform="matrix(1.3333333,0,0,-1.3333333,189.64533,82.522667)" />
    <path
       id="path34"
       d="M 53.54152,-15.20523 H 39.36812"
       style="fill:none;stroke:#000000;stroke-width:0.79701;stroke-linecap:round;stroke-linejoin:miter;stroke-miterlimit:10;stroke-dasharray:none;stroke-opacity:1"
       transform="matrix(1.3333333,0,0,-1.3333333,189.64533,82.522667)" />
    <path
       id="path35"
       d="M 101.28395,-15.20523 H 87.11055"
       style="fill:none;stroke:#000000;stroke-width:0.79701;stroke-linecap:round;stroke-linejoin:miter;stroke-miterlimit:10;stroke-dasharray:none;stroke-opacity:1"
       transform="matrix(1.3333333,0,0,-1.3333333,189.64533,82.522667)" />
    <path
       id="path36"
       d="m -98.5055,-47.82747 h -22.704"
       style="fill:none;stroke:#000000;stroke-width:0.79701;stroke-linecap:round;stroke-linejoin:miter;stroke-miterlimit:10;stroke-dasharray:none;stroke-opacity:1"
       transform="matrix(1.3333333,0,0,-1.3333333,189.64533,82.522667)" />
    <path
       id="path37"
       d="m -98.5055,-47.82747 h -22.704"
       style="fill:none;stroke:#000000;stroke-width:0.79701;stroke-linecap:round;stroke-linejoin:miter;stroke-miterlimit:10;stroke-dasharray:none;stroke-opacity:1"
       transform="matrix(1.3333333,0,0,-1.3333333,189.64533,82.522667)" />
    <path
       id="path38"
       d="m -75.8015,-47.82747 h -22.704"
       style="fill:none;stroke:#000000;stroke-width:0.79701;stroke-linecap:round;stroke-linejoin:miter;stroke-miterlimit:10;stroke-dasharray:none;stroke-opacity:1"
       transform="matrix(1.3333333,0,0,-1.3333333,189.64533,82.522667)" />
    <path
       id="path39"
       d="m -37.41162,-47.82747 h -14.1734"
       style="fill:none;stroke:#000000;stroke-width:0.79701;stroke-linecap:round;stroke-linejoin:miter;stroke-miterlimit:10;stroke-dasharray:none;stroke-opacity:1"
       transform="matrix(1.3333333,0,0,-1.3333333,189.64533,82.522667)" />
    <path
       id="path40"
       d="M 0.97824,-47.82747 H -13.19514"
       style="fill:none;stroke:#000000;stroke-width:0.79701;stroke-linecap:round;stroke-linejoin:miter;stroke-miterlimit:10;stroke-dasharray:none;stroke-opacity:1"
       transform="matrix(1.3333333,0,0,-1.3333333,189.64533,82.522667)" />
    <path
       id="path41"
       d="M 39.36812,-47.82747 H 25.19472"
       style="fill:none;stroke:#000000;stroke-width:0.79701;stroke-linecap:round;stroke-linejoin:miter;stroke-miterlimit:10;stroke-dasharray:none;stroke-opacity:1"
       transform="matrix(1.3333333,0,0,-1.3333333,189.64533,82.522667)" />
    <path
       id="path42"
       d="M 39.36812,-47.82747 H 25.19472"
       style="fill:none;stroke:#000000;stroke-width:0.79701;stroke-linecap:round;stroke-linejoin:miter;stroke-miterlimit:10;stroke-dasharray:none;stroke-opacity:1"
       transform="matrix(1.3333333,0,0,-1.3333333,189.64533,82.522667)" />
    <path
       id="path43"
       d="M 70.32603,-47.82747 H 39.36812"
       style="fill:none;stroke:#000000;stroke-width:0.79701;stroke-linecap:round;stroke-linejoin:miter;stroke-miterlimit:10;stroke-dasharray:none;stroke-opacity:1"
       transform="matrix(1.3333333,0,0,-1.3333333,189.64533,82.522667)" />
    <path
       id="path44"
       d="M 70.32603,-47.82747 H 39.36812"
       style="fill:none;stroke:#000000;stroke-width:0.79701;stroke-linecap:round;stroke-linejoin:miter;stroke-miterlimit:10;stroke-dasharray:none;stroke-opacity:1"
       transform="matrix(1.3333333,0,0,-1.3333333,189.64533,82.522667)" />
    <path
       id="path45"
       d="M 111.24673,-47.82747 H 70.32603"
       style="fill:none;stroke:#000000;stroke-width:0.79701;stroke-linecap:round;stroke-linejoin:miter;stroke-miterlimit:10;stroke-dasharray:none;stroke-opacity:1"
       transform="matrix(1.3333333,0,0,-1.3333333,189.64533,82.522667)" />
    <path
       id="path46"
       d="M 111.24673,-47.82747 H 70.32603"
       style="fill:none;stroke:#000000;stroke-width:0.79701;stroke-linecap:round;stroke-linejoin:miter;stroke-miterlimit:10;stroke-dasharray:none;stroke-opacity:1"
       transform="matrix(1.3333333,0,0,-1.3333333,189.64533,82.522667)" />
    <path
       id="path47"
       d="M 1.70073,0 C 1.70073,0.93929 0.93929,1.70073 0,1.70073 -0.93929,1.70073 -1.70073,0.93929 -1.70073,0 c 0,-0.93929 0.76144,-1.70073 1.70073,-1.70073 0.93929,0 1.70073,0.76144 1.70073,1.70073 z"
       style="fill:#000000;fill-opacity:1;fill-rule:nonzero;stroke:#000000;stroke-width:0.79701;stroke-linecap:butt;stroke-linejoin:miter;stroke-miterlimit:10;stroke-dasharray:none;stroke-opacity:1"
       transform="matrix(1.3333333,0,0,-1.3333333,104.72267,19.614667)" />
    <path
       id="path48"
       d="M 1.70073,0 C 1.70073,0.93929 0.93929,1.70073 0,1.70073 -0.93929,1.70073 -1.70073,0.93929 -1.70073,0 c 0,-0.93929 0.76144,-1.70073 1.70073,-1.70073 0.93929,0 1.70073,0.76144 1.70073,1.70073 z"
       style="fill:#000000;fill-opacity:1;fill-rule:nonzero;stroke:#000000;stroke-width:0.79701;stroke-linecap:butt;stroke-linejoin:miter;stroke-miterlimit:10;stroke-dasharray:none;stroke-opacity:1"
       transform="matrix(1.3333333,0,0,-1.3333333,155.908,61.205333)" />
    <path
       id="path49"
       d="M 1.70073,0 C 1.70073,0.93929 0.93929,1.70073 0,1.70073 -0.93929,1.70073 -1.70073,0.93929 -1.70073,0 c 0,-0.93929 0.76144,-1.70073 1.70073,-1.70073 0.93929,0 1.70073,0.76144 1.70073,1.70073 z"
       style="fill:#000000;fill-opacity:1;fill-rule:nonzero;stroke:#000000;stroke-width:0.79701;stroke-linecap:butt;stroke-linejoin:miter;stroke-miterlimit:10;stroke-dasharray:none;stroke-opacity:1"
       transform="matrix(1.3333333,0,0,-1.3333333,207.09467,102.796)" />
    <g
       id="g49"
       aria-label="|0⟩"
       transform="matrix(1.3333333,0,0,1.3333333,6.9146667,22.936)">
      <path
         id="path50"
         d="m 1.5815781,-7.1121563 c 0,-0.1757812 0,-0.3632812 -0.1992187,-0.3632812 -0.1992188,0 -0.1992188,0.1875 -0.1992188,0.3632812 v 9.2460938 c 0,0.1757812 0,0.3632812 0.1992188,0.3632812 0.1992187,0 0.1992187,-0.1875 0.1992187,-0.3632812 z m 0,0"
         style="fill:#000000;fill-opacity:1;fill-rule:nonzero;stroke:none" />
      <path
         id="path51"
         d="m 7.3501328,-3.186375 c 0,-0.796875 -0.046875,-1.59375 -0.3984375,-2.3320313 -0.4570312,-0.9609375 -1.2773437,-1.1132812 -1.6875,-1.1132812 -0.5976562,0 -1.3359375,0.2578125 -1.734375,1.1835937 -0.328125,0.6914063 -0.375,1.4648438 -0.375,2.2617188 0,0.75 0.046875,1.640625 0.4453125,2.40234375 0.4335938,0.80859375 1.1601563,1.0078125 1.6523438,1.0078125 0.5390625,0 1.2890625,-0.2109375 1.734375,-1.16015625 0.3164062,-0.6914063 0.3632812,-1.4648438 0.3632812,-2.25 z m -2.0976562,3.1875 c -0.3867188,0 -0.984375,-0.24609375 -1.1601563,-1.2070313 -0.1054687,-0.5976562 -0.1054687,-1.5117187 -0.1054687,-2.0976562 0,-0.6445313 0,-1.3007813 0.082031,-1.8398438 0.1875,-1.1835937 0.9257813,-1.265625 1.1835938,-1.265625 0.328125,0 0.984375,0.1757813 1.171875,1.1601563 0.09375,0.5625 0.09375,1.3125 0.09375,1.9453125 0,0.75 0,1.4179687 -0.1054688,2.0625 -0.1523437,0.9375 -0.7148437,1.2421875 -1.160156,1.2421875 z m 0,0"
         style="fill:#000000;fill-opacity:1;fill-rule:nonzero;stroke:none" />
      <path
         id="path52"
         d="m 10.46732,-2.3191875 c 0.04687,-0.1171875 0.04687,-0.140625 0.04687,-0.1757813 0,-0.023437 0,-0.046875 -0.04687,-0.1640625 L 8.7212266,-7.2410625 c -0.058594,-0.1640625 -0.1171875,-0.234375 -0.2226563,-0.234375 -0.1171875,0 -0.1992187,0.09375 -0.1992187,0.1992187 0,0.035156 0,0.058594 0.046875,0.1640625 L 10.104039,-2.4949688 8.3462266,2.1105 c -0.046875,0.1171875 -0.046875,0.1289062 -0.046875,0.1875 0,0.1054687 0.082031,0.1992187 0.1992187,0.1992187 0.1289063,0 0.1640625,-0.1054687 0.2109375,-0.1992187 z m 0,0"
         style="fill:#000000;fill-opacity:1;fill-rule:nonzero;stroke:none" />
    </g>
    <path
       id="path53"
       d="m -107.0361,39.79196 h 17.0612 v 14.77808 h -17.0612 z"
       style="fill:#ffffff;fill-opacity:1;fill-rule:nonzero;stroke:#000000;stroke-width:0.79701;stroke-linecap:butt;stroke-linejoin:miter;stroke-miterlimit:10;stroke-dasharray:none;stroke-opacity:1"
       transform="matrix(1.3333333,0,0,-1.3333333,189.64533,82.522667)" />
    <path
       id="path54"
       d="m 7.6050391,-6.0358984 c 0.082031,-0.3632813 0.1054687,-0.4570313 0.8320312,-0.4570313 0.2578125,0 0.3398438,0 0.3398438,-0.1992187 0,-0.1171875 -0.1054688,-0.1171875 -0.140625,-0.1171875 -0.28125,0 -0.9960938,0.035156 -1.2773438,0.035156 -0.28125,0 -0.9960937,-0.035156 -1.2773437,-0.035156 -0.082031,0 -0.1992188,0 -0.1992188,0.1992187 0,0.1171875 0.09375,0.1171875 0.28125,0.1171875 0.023437,0 0.2109375,0 0.375,0.011719 0.1875,0.023437 0.2695313,0.035156 0.2695313,0.1640625 0,0.035156 0,0.058594 -0.035156,0.1875 l -0.5976562,2.4375 H 3.1401953 l 0.5859375,-2.34375 c 0.09375,-0.3632813 0.1171875,-0.4570313 0.8320313,-0.4570313 0.2578125,0 0.3398437,0 0.3398437,-0.1992187 0,-0.1171875 -0.1054687,-0.1171875 -0.140625,-0.1171875 -0.2695312,0 -0.9960937,0.035156 -1.265625,0.035156 -0.2929687,0 -0.9960937,-0.035156 -1.2890625,-0.035156 -0.082031,0 -0.1875,0 -0.1875,0.1992187 0,0.1171875 0.082031,0.1171875 0.28125,0.1171875 0.011719,0 0.1992188,0 0.375,0.011719 0.1757813,0.023437 0.2695313,0.035156 0.2695313,0.1640625 0,0.035156 -0.011719,0.070312 -0.046875,0.1875 l -1.3359375,5.35546871 c -0.09375,0.38671875 -0.1171875,0.46875 -0.90234379,0.46875 -0.17578125,0 -0.26953125,0 -0.26953125,0.19921875 0,0.1054687525 0.1171875,0.1054687525 0.140625,0.1054687525 0.28125,0 0.98437504,-0.0351562525 1.26562504,-0.0351562525 0.2109375,0 0.4335937,0.01171875 0.6328125,0.01171875 0.2226562,0 0.4453125,0.0234375025 0.65625,0.0234375025 0.070312,0 0.1992187,0 0.1992187,-0.1992187525 0,-0.10546875 -0.09375,-0.10546875 -0.28125,-0.10546875 -0.375,0 -0.6445312,0 -0.6445312,-0.1875 0,-0.0585938 0.011719,-0.10546875 0.023437,-0.1640625 l 0.679688,-2.73046911 h 3.0351562 c -0.4101562,1.6523437 -0.6445312,2.60156246 -0.6796875,2.75390621 -0.1054687,0.31640625 -0.2929687,0.328125 -0.9140625,0.328125 -0.1523437,0 -0.234375,0 -0.234375,0.19921875 0,0.1054687525 0.1171875,0.1054687525 0.140625,0.1054687525 0.28125,0 0.984375,-0.0351562525 1.265625,-0.0351562525 0.2109375,0 0.421875,0.01171875 0.6328125,0.01171875 0.2226563,0 0.4335938,0.0234375025 0.6445313,0.0234375025 0.082031,0 0.1992187,0 0.1992187,-0.1992187525 0,-0.10546875 -0.082031,-0.10546875 -0.2695312,-0.10546875 -0.375,0 -0.65625,0 -0.65625,-0.1875 0,-0.0585938 0.023437,-0.10546875 0.035156,-0.1640625 z m 0,0"
       style="fill:#000000;fill-opacity:1;fill-rule:nonzero;stroke:none"
       aria-label="H"
       transform="matrix(1.3333333,0,0,1.3333333,52.246667,24.153333)" />
    <path
       id="path55"
       d="M 53.54152,-24.75287 H 87.11055 V 56.72867 H 53.54152 Z"
       style="fill:#ffffff;fill-opacity:1;fill-rule:nonzero;stroke:#000000;stroke-width:0.79701;stroke-linecap:butt;stroke-linejoin:miter;stroke-miterlimit:10;stroke-dasharray:none;stroke-opacity:1"
       transform="matrix(1.3333333,0,0,-1.3333333,189.64533,82.522667)" />
    <g
       id="g55"
       aria-label="QFT&#10;†"
       transform="matrix(1.3333333,0,0,1.3333333,266.34667,66.038667)">
      <path
         id="path56"
         d="M 3.2116797,-0.16376563 C 2.6726172,-0.36298438 1.5593359,-1.0895469 1.5593359,-3.3747031 c 0,-2.5898438 1.3945313,-3.3984375 2.3085938,-3.3984375 0.9609375,0 2.3203125,0.8554687 2.3203125,3.3984375 0,0.7734375 -0.1171875,2.1796875 -1.171875,2.95312497 -0.2226563,-0.55078125 -0.5390625,-1.05468747 -1.125,-1.05468747 -0.515625,0 -0.8203125,0.4335937 -0.8203125,0.84374997 0,0.26953125 0.1289062,0.45703125 0.140625,0.46875 z m 1.5351562,-0.09375 c -0.328125,0.1875 -0.65625,0.22265625 -0.8671875,0.22265625 -0.515625,0 -0.5859375,-0.45703125 -0.5859375,-0.59765625 0,-0.29296875 0.1992188,-0.62109377 0.5976563,-0.62109377 0.5273437,0 0.75,0.42187502 0.8554687,0.99609377 z m 0.4101563,0.1875 c 1.1835937,-0.52734375 2.0273437,-1.80468747 2.0273437,-3.30468747 0,-2.0390625 -1.5,-3.6445313 -3.3164062,-3.6445313 -1.78125,0 -3.30468751,1.59375 -3.30468751,3.6445313 0,2.015625 1.50000001,3.59765622 3.31640621,3.59765622 0.3046875,0 0.65625,-0.0585938 0.9375,-0.15234375 0.1523438,0.94921873 0.2929688,1.86328123 1.21875,1.86328123 1.0195313,0 1.2070313,-1.32421873 1.2070313,-1.82812498 0,-0.105468745 0,-0.2109375 -0.1054688,-0.2109375 -0.09375,0 -0.1054687,0.0703125 -0.1171875,0.17578125 -0.058594,0.5390625 -0.4804687,0.83203125 -0.9023437,0.83203125 -0.46875,0 -0.7148438,-0.33984375 -0.9609375,-0.97265625 z M 13.550547,-6.7731406 H 8.0778906 v 0.3046875 h 0.234375 c 0.7734375,0 0.796875,0.1171875 0.796875,0.46875 v 5.22656247 c 0,0.3515625 -0.023437,0.46875 -0.796875,0.46875 H 8.0778906 V 2.96875e-4 c 0.3515625,-0.035156255 1.125,-0.035156255 1.5117188,-0.035156255 0.4101562,0 1.3124996,0 1.6757816,0.035156255 V -0.30439063 h -0.328125 c -0.9492191,0 -0.9492191,-0.12890625 -0.9492191,-0.48046875 V -3.2340781 h 0.8554691 c 0.960937,0 1.054687,0.3164062 1.054687,1.1601562 h 0.257813 v -2.6367187 h -0.257813 c 0,0.8320312 -0.09375,1.1601562 -1.054687,1.1601562 H 9.9880469 v -2.5195312 c 0,-0.328125 0.023437,-0.3984375 0.4921871,-0.3984375 h 1.195313 c 1.488281,0 1.746094,0.5625 1.898437,1.9335937 h 0.257813 z m 7.335937,0.035156 h -6.082031 l -0.1875,2.2382813 h 0.246094 c 0.140625,-1.6054688 0.292969,-1.9335938 1.792969,-1.9335938 0.175781,0 0.433593,0 0.539062,0.023437 0.210938,0.035156 0.210938,0.140625 0.210938,0.375 v 5.25000002 c 0,0.33984375 0,0.48046875 -1.054688,0.48046875 H 15.952891 V 2.96875e-4 c 0.410156,-0.035156255 1.429687,-0.035156255 1.886718,-0.035156255 0.457032,0 1.488282,0 1.898438,0.035156255 V -0.30439063 h -0.398438 c -1.054687,0 -1.054687,-0.140625 -1.054687,-0.48046875 V -6.0348594 c 0,-0.1992187 0,-0.3398437 0.1875,-0.375 0.105469,-0.023437 0.375,-0.023437 0.5625,-0.023437 1.5,0 1.652344,0.328125 1.792969,1.9335938 h 0.246093 z m 0,0"
         style="fill:#000000;fill-opacity:1;fill-rule:nonzero;stroke:none" />
      <path
         id="path57"
         d="m 23.359141,-7.2623984 c 0.105468,0.011719 0.175781,0.023437 0.386718,0.082031 0.222657,0.058594 0.386719,0.1054688 0.515625,0.1054688 0.28125,0 0.304688,-0.2109375 0.304688,-0.2695313 0,-0.058594 -0.02344,-0.28125 -0.304688,-0.28125 -0.128906,0 -0.292968,0.046875 -0.515625,0.1054688 -0.210937,0.058594 -0.28125,0.070312 -0.386718,0.082031 0.01172,-0.2460937 0.05859,-0.5390625 0.09375,-0.75 0.03516,-0.140625 0.09375,-0.5039062 0.09375,-0.75 0,-0.1992187 -0.09375,-0.3164062 -0.269532,-0.3164062 -0.152343,0 -0.269531,0.082031 -0.269531,0.3164062 0,0.234375 0.04687,0.5859375 0.09375,0.8203125 0.01172,0.082031 0.08203,0.421875 0.09375,0.6796875 -0.105469,-0.011719 -0.175781,-0.023437 -0.386719,-0.082031 -0.222656,-0.058594 -0.386718,-0.1054688 -0.527343,-0.1054688 -0.269532,0 -0.292969,0.2109375 -0.292969,0.28125 0,0.046875 0.02344,0.2695313 0.292969,0.2695313 0.140625,0 0.304687,-0.046875 0.527343,-0.1054688 0.210938,-0.058594 0.28125,-0.070312 0.386719,-0.082031 -0.01172,0.1757812 -0.07031,0.3984375 -0.105469,0.5507812 -0.08203,0.4335938 -0.08203,0.4804688 -0.08203,0.84375 0,1.3476563 0.128906,2.7773438 0.152344,2.90625 0,0.070312 0.02344,0.1054688 0.117187,0.1054688 0.105469,0 0.105469,-0.035156 0.128907,-0.140625 0,0 0.04687,-0.609375 0.08203,-1.03125 0.03516,-0.6210938 0.05859,-1.2304688 0.05859,-1.8398438 0,-0.3632812 0,-0.4101562 -0.09375,-0.8554687 -0.01172,-0.082031 -0.08203,-0.3632813 -0.09375,-0.5390625 z m 0,0"
         style="fill:#000000;fill-opacity:1;fill-rule:nonzero;stroke:none" />
    </g>
    <path
       id="path58"
       d="M 101.28395,39.70892 H 121.2095 V 54.65307 H 101.28395 Z"
       style="fill:#ffffff;fill-opacity:1;fill-rule:nonzero;stroke:none"
       transform="matrix(1.3333333,0,0,-1.3333333,189.64533,82.522667)" />
    <path
       id="path59"
       d="m 104.1188,45.48027 c 3.57349,4.25865 10.68236,4.25865 14.25586,0"
       style="fill:none;stroke:#000000;stroke-width:0.79701;stroke-linecap:butt;stroke-linejoin:miter;stroke-miterlimit:10;stroke-dasharray:none;stroke-opacity:1"
       transform="matrix(1.3333333,0,0,-1.3333333,189.64533,82.522667)"
       clip-path="url(#clipPath60)" />
    <path
       id="path61"
       d="m 111.24672,44.34616 4.84712,5.78296"
       style="fill:none;stroke:#000000;stroke-width:0.79701;stroke-linecap:butt;stroke-linejoin:miter;stroke-miterlimit:10;stroke-dasharray:none;stroke-opacity:1"
       transform="matrix(1.3333333,0,0,-1.3333333,189.64533,82.522667)"
       clip-path="url(#clipPath62)" />
    <path
       id="path63"
       d="M 1.92412,0 C 1.68782,0.06175 0.64917,0.41174 0,0.79262 V -0.79262 C 0.64917,-0.41174 1.68782,-0.06175 1.92412,0 Z"
       style="fill:#000000;fill-opacity:1;fill-rule:nonzero;stroke:#000000;stroke-width:0.78903;stroke-linecap:butt;stroke-linejoin:miter;stroke-miterlimit:10;stroke-dasharray:none;stroke-opacity:1"
       transform="matrix(0.85646667,-1.0218133,-1.0218133,-0.85646667,344.43712,15.68384)"
       clip-path="url(#clipPath64)" />
    <path
       id="path65"
       d="M 101.28395,39.70892 H 121.2095 V 54.65307 H 101.28395 Z"
       style="fill:none;stroke:#000000;stroke-width:0.79701;stroke-linecap:butt;stroke-linejoin:miter;stroke-miterlimit:10;stroke-dasharray:none;stroke-opacity:1"
       transform="matrix(1.3333333,0,0,-1.3333333,189.64533,82.522667)" />
    <g
       id="g65"
       aria-label="|0⟩"
       transform="matrix(1.3333333,0,0,1.3333333,6.9146667,64.526667)">
      <path
         id="path66"
         d="m 1.5815781,-7.1127734 c 0,-0.1757813 0,-0.3632813 -0.1992187,-0.3632813 -0.1992188,0 -0.1992188,0.1875 -0.1992188,0.3632813 v 9.2460937 c 0,0.1757813 0,0.3632813 0.1992188,0.3632813 0.1992187,0 0.1992187,-0.1875 0.1992187,-0.3632813 z m 0,0"
         style="fill:#000000;fill-opacity:1;fill-rule:nonzero;stroke:none" />
      <path
         id="path67"
         d="m 7.3501328,-3.1869922 c 0,-0.796875 -0.046875,-1.59375 -0.3984375,-2.3320312 -0.4570312,-0.9609375 -1.2773437,-1.1132813 -1.6875,-1.1132813 -0.5976562,0 -1.3359375,0.2578125 -1.734375,1.1835938 -0.328125,0.6914062 -0.375,1.4648437 -0.375,2.2617187 0,0.75 0.046875,1.640625 0.4453125,2.40234376 0.4335938,0.80859375 1.1601563,1.0078125 1.6523438,1.0078125 0.5390625,0 1.2890625,-0.2109375 1.734375,-1.16015625 C 7.3032578,-1.6283984 7.3501328,-2.4018359 7.3501328,-3.1869922 Z M 5.2524766,5.078125e-4 c -0.3867188,0 -0.984375,-0.2460937525 -1.1601563,-1.2070312125 -0.1054687,-0.5976563 -0.1054687,-1.5117188 -0.1054687,-2.0976563 0,-0.6445312 0,-1.3007812 0.082031,-1.8398437 0.1875,-1.1835938 0.9257813,-1.265625 1.1835938,-1.265625 0.328125,0 0.984375,0.1757812 1.171875,1.1601562 0.09375,0.5625 0.09375,1.3125 0.09375,1.9453125 0,0.75 0,1.4179688 -0.1054688,2.0625 C 6.2602891,-0.30417969 5.6977891,5.078125e-4 5.2524766,5.078125e-4 Z m 0,0"
         style="fill:#000000;fill-opacity:1;fill-rule:nonzero;stroke:none" />
      <path
         id="path68"
         d="m 10.46732,-2.3198047 c 0.04687,-0.1171875 0.04687,-0.140625 0.04687,-0.1757812 0,-0.023437 0,-0.046875 -0.04687,-0.1640625 L 8.7212266,-7.2416797 c -0.058594,-0.1640625 -0.1171875,-0.234375 -0.2226563,-0.234375 -0.1171875,0 -0.1992187,0.09375 -0.1992187,0.1992188 0,0.035156 0,0.058594 0.046875,0.1640625 l 1.7578124,4.6171875 -1.7578124,4.6054687 c -0.046875,0.1171875 -0.046875,0.1289063 -0.046875,0.1875 0,0.1054688 0.082031,0.1992188 0.1992187,0.1992188 0.1289063,0 0.1640625,-0.1054688 0.2109375,-0.1992188 z m 0,0"
         style="fill:#000000;fill-opacity:1;fill-rule:nonzero;stroke:none" />
    </g>
    <path
       id="path69"
       d="m -107.0361,8.59885 h 17.0612 v 14.77808 h -17.0612 z"
       style="fill:#ffffff;fill-opacity:1;fill-rule:nonzero;stroke:#000000;stroke-width:0.79701;stroke-linecap:butt;stroke-linejoin:miter;stroke-miterlimit:10;stroke-dasharray:none;stroke-opacity:1"
       transform="matrix(1.3333333,0,0,-1.3333333,189.64533,82.522667)" />
    <path
       id="path70"
       d="m 7.6050391,-6.0365156 c 0.082031,-0.3632813 0.1054687,-0.4570313 0.8320312,-0.4570313 0.2578125,0 0.3398438,0 0.3398438,-0.1992187 0,-0.1171875 -0.1054688,-0.1171875 -0.140625,-0.1171875 -0.28125,0 -0.9960938,0.035156 -1.2773438,0.035156 -0.28125,0 -0.9960937,-0.035156 -1.2773437,-0.035156 -0.082031,0 -0.1992188,0 -0.1992188,0.1992187 0,0.1171875 0.09375,0.1171875 0.28125,0.1171875 0.023437,0 0.2109375,0 0.375,0.011719 0.1875,0.023437 0.2695313,0.035156 0.2695313,0.1640625 0,0.035156 0,0.058594 -0.035156,0.1875 l -0.5976562,2.4375 H 3.1401953 l 0.5859375,-2.34375 c 0.09375,-0.3632813 0.1171875,-0.4570313 0.8320313,-0.4570313 0.2578125,0 0.3398437,0 0.3398437,-0.1992187 0,-0.1171875 -0.1054687,-0.1171875 -0.140625,-0.1171875 -0.2695312,0 -0.9960937,0.035156 -1.265625,0.035156 -0.2929687,0 -0.9960937,-0.035156 -1.2890625,-0.035156 -0.082031,0 -0.1875,0 -0.1875,0.1992187 0,0.1171875 0.082031,0.1171875 0.28125,0.1171875 0.011719,0 0.1992188,0 0.375,0.011719 0.1757813,0.023437 0.2695313,0.035156 0.2695313,0.1640625 0,0.035156 -0.011719,0.070312 -0.046875,0.1875 l -1.3359375,5.35546873 c -0.09375,0.38671875 -0.1171875,0.46875 -0.90234379,0.46875 -0.17578125,0 -0.26953125,0 -0.26953125,0.19921875 0,0.10546875 0.1171875,0.10546875 0.140625,0.10546875 0.28125,0 0.98437504,-0.03515625 1.26562504,-0.03515625 0.2109375,0 0.4335937,0.01171875 0.6328125,0.01171875 0.2226562,0 0.4453125,0.0234375 0.65625,0.0234375 0.070312,0 0.1992187,0 0.1992187,-0.19921875 0,-0.10546875 -0.09375,-0.10546875 -0.28125,-0.10546875 -0.375,0 -0.6445312,0 -0.6445312,-0.1875 0,-0.0585937 0.011719,-0.10546875 0.023437,-0.1640625 l 0.679688,-2.73046913 h 3.0351562 c -0.4101562,1.6523437 -0.6445312,2.60156248 -0.6796875,2.75390623 -0.1054687,0.31640625 -0.2929687,0.328125 -0.9140625,0.328125 -0.1523437,0 -0.234375,0 -0.234375,0.19921875 0,0.10546875 0.1171875,0.10546875 0.140625,0.10546875 0.28125,0 0.984375,-0.03515625 1.265625,-0.03515625 0.2109375,0 0.421875,0.01171875 0.6328125,0.01171875 0.2226563,0 0.4335938,0.0234375 0.6445313,0.0234375 0.082031,0 0.1992187,0 0.1992187,-0.19921875 0,-0.10546875 -0.082031,-0.10546875 -0.2695312,-0.10546875 -0.375,0 -0.65625,0 -0.65625,-0.1875 0,-0.0585937 0.023437,-0.10546875 0.035156,-0.1640625 z m 0,0"
       style="fill:#000000;fill-opacity:1;fill-rule:nonzero;stroke:none"
       aria-label="H"
       transform="matrix(1.3333333,0,0,1.3333333,52.246667,65.744)" />
    <path
       id="path71"
       d="M 101.28395,8.51581 H 121.2095 V 23.45996 H 101.28395 Z"
       style="fill:#ffffff;fill-opacity:1;fill-rule:nonzero;stroke:none"
       transform="matrix(1.3333333,0,0,-1.3333333,189.64533,82.522667)" />
    <path
       id="path72"
       d="m 104.1188,14.28714 c 3.57349,4.25865 10.68236,4.25865 14.25586,0"
       style="fill:none;stroke:#000000;stroke-width:0.79701;stroke-linecap:butt;stroke-linejoin:miter;stroke-miterlimit:10;stroke-dasharray:none;stroke-opacity:1"
       transform="matrix(1.3333333,0,0,-1.3333333,189.64533,82.522667)"
       clip-path="url(#clipPath73)" />
    <path
       id="path74"
       d="m 111.24672,13.15303 4.84712,5.78297"
       style="fill:none;stroke:#000000;stroke-width:0.79701;stroke-linecap:butt;stroke-linejoin:miter;stroke-miterlimit:10;stroke-dasharray:none;stroke-opacity:1"
       transform="matrix(1.3333333,0,0,-1.3333333,189.64533,82.522667)"
       clip-path="url(#clipPath75)" />
    <path
       id="path76"
       d="M 1.92412,0 C 1.68782,0.06175 0.64917,0.41174 0,0.79262 V -0.79262 C 0.64917,-0.41174 1.68782,-0.06175 1.92412,0 Z"
       style="fill:#000000;fill-opacity:1;fill-rule:nonzero;stroke:#000000;stroke-width:0.78903;stroke-linecap:butt;stroke-linejoin:miter;stroke-miterlimit:10;stroke-dasharray:none;stroke-opacity:1"
       transform="matrix(0.85646667,-1.0218133,-1.0218133,-0.85646667,344.43712,57.274667)"
       clip-path="url(#clipPath77)" />
    <path
       id="path78"
       d="M 101.28395,8.51581 H 121.2095 V 23.45996 H 101.28395 Z"
       style="fill:none;stroke:#000000;stroke-width:0.79701;stroke-linecap:butt;stroke-linejoin:miter;stroke-miterlimit:10;stroke-dasharray:none;stroke-opacity:1"
       transform="matrix(1.3333333,0,0,-1.3333333,189.64533,82.522667)" />
    <g
       id="g78"
       aria-label="|0⟩"
       transform="matrix(1.3333333,0,0,1.3333333,6.9146667,106.116)">
      <path
         id="path79"
         d="m 1.5815781,-7.1123906 c 0,-0.1757813 0,-0.3632813 -0.1992187,-0.3632813 -0.1992188,0 -0.1992188,0.1875 -0.1992188,0.3632813 v 9.2460937 c 0,0.1757813 0,0.3632813 0.1992188,0.3632813 0.1992187,0 0.1992187,-0.1875 0.1992187,-0.3632813 z m 0,0"
         style="fill:#000000;fill-opacity:1;fill-rule:nonzero;stroke:none" />
      <path
         id="path80"
         d="m 7.3501328,-3.1866094 c 0,-0.796875 -0.046875,-1.59375 -0.3984375,-2.3320312 -0.4570312,-0.9609375 -1.2773437,-1.1132813 -1.6875,-1.1132813 -0.5976562,0 -1.3359375,0.2578125 -1.734375,1.1835938 -0.328125,0.6914062 -0.375,1.4648437 -0.375,2.2617187 0,0.75 0.046875,1.640625 0.4453125,2.40234377 0.4335938,0.80859375 1.1601563,1.0078125 1.6523438,1.0078125 0.5390625,0 1.2890625,-0.2109375 1.734375,-1.16015625 C 7.3032578,-1.6280156 7.3501328,-2.4014531 7.3501328,-3.1866094 Z M 5.2524766,8.90625e-4 c -0.3867188,0 -0.984375,-0.246093755 -1.1601563,-1.207031225 -0.1054687,-0.5976563 -0.1054687,-1.5117188 -0.1054687,-2.0976563 0,-0.6445312 0,-1.3007812 0.082031,-1.8398437 0.1875,-1.1835938 0.9257813,-1.265625 1.1835938,-1.265625 0.328125,0 0.984375,0.1757812 1.171875,1.1601562 0.09375,0.5625 0.09375,1.3125 0.09375,1.9453125 0,0.75 0,1.4179688 -0.1054688,2.0625 C 6.2602891,-0.30379688 5.6977891,8.90625e-4 5.2524766,8.90625e-4 Z m 0,0"
         style="fill:#000000;fill-opacity:1;fill-rule:nonzero;stroke:none" />
      <path
         id="path81"
         d="m 10.46732,-2.3194219 c 0.04687,-0.1171875 0.04687,-0.140625 0.04687,-0.1757812 0,-0.023437 0,-0.046875 -0.04687,-0.1640625 L 8.7212266,-7.2412969 c -0.058594,-0.1640625 -0.1171875,-0.234375 -0.2226563,-0.234375 -0.1171875,0 -0.1992187,0.09375 -0.1992187,0.1992188 0,0.035156 0,0.058594 0.046875,0.1640625 l 1.7578124,4.6171875 -1.7578124,4.6054687 c -0.046875,0.1171875 -0.046875,0.1289063 -0.046875,0.1875 0,0.1054688 0.082031,0.1992188 0.1992187,0.1992188 0.1289063,0 0.1640625,-0.1054688 0.2109375,-0.1992188 z m 0,0"
         style="fill:#000000;fill-opacity:1;fill-rule:nonzero;stroke:none" />
    </g>
    <path
       id="path82"
       d="m -107.0361,-22.59427 h 17.0612 v 14.77808 h -17.0612 z"
       style="fill:#ffffff;fill-opacity:1;fill-rule:nonzero;stroke:#000000;stroke-width:0.79701;stroke-linecap:butt;stroke-linejoin:miter;stroke-miterlimit:10;stroke-dasharray:none;stroke-opacity:1"
       transform="matrix(1.3333333,0,0,-1.3333333,189.64533,82.522667)" />
    <path
       id="path83"
       d="m 7.6050391,-6.0342031 c 0.082031,-0.3632813 0.1054687,-0.4570313 0.8320312,-0.4570313 0.2578125,0 0.3398438,0 0.3398438,-0.1992187 0,-0.1171875 -0.1054688,-0.1171875 -0.140625,-0.1171875 -0.28125,0 -0.9960938,0.035156 -1.2773438,0.035156 -0.28125,0 -0.9960937,-0.035156 -1.2773437,-0.035156 -0.082031,0 -0.1992188,0 -0.1992188,0.1992187 0,0.1171875 0.09375,0.1171875 0.28125,0.1171875 0.023437,0 0.2109375,0 0.375,0.011719 0.1875,0.023437 0.2695313,0.035156 0.2695313,0.1640625 0,0.035156 0,0.058594 -0.035156,0.1875 l -0.5976562,2.4375 H 3.1401953 l 0.5859375,-2.34375 c 0.09375,-0.3632813 0.1171875,-0.4570313 0.8320313,-0.4570313 0.2578125,0 0.3398437,0 0.3398437,-0.1992187 0,-0.1171875 -0.1054687,-0.1171875 -0.140625,-0.1171875 -0.2695312,0 -0.9960937,0.035156 -1.265625,0.035156 -0.2929687,0 -0.9960937,-0.035156 -1.2890625,-0.035156 -0.082031,0 -0.1875,0 -0.1875,0.1992187 0,0.1171875 0.082031,0.1171875 0.28125,0.1171875 0.011719,0 0.1992188,0 0.375,0.011719 0.1757813,0.023437 0.2695313,0.035156 0.2695313,0.1640625 0,0.035156 -0.011719,0.070312 -0.046875,0.1875 l -1.3359375,5.35546872 c -0.09375,0.38671875 -0.1171875,0.46875 -0.90234379,0.46875 -0.17578125,0 -0.26953125,0 -0.26953125,0.19921875 0,0.105468755 0.1171875,0.105468755 0.140625,0.105468755 0.28125,0 0.98437504,-0.035156255 1.26562504,-0.035156255 0.2109375,0 0.4335937,0.01171875 0.6328125,0.01171875 0.2226562,0 0.4453125,0.023437505 0.65625,0.023437505 0.070312,0 0.1992187,0 0.1992187,-0.199218755 0,-0.10546875 -0.09375,-0.10546875 -0.28125,-0.10546875 -0.375,0 -0.6445312,0 -0.6445312,-0.1875 0,-0.0585937 0.011719,-0.10546875 0.023437,-0.1640625 l 0.679688,-2.73046912 h 3.0351562 c -0.4101562,1.6523437 -0.6445312,2.60156247 -0.6796875,2.75390622 -0.1054687,0.31640625 -0.2929687,0.328125 -0.9140625,0.328125 -0.1523437,0 -0.234375,0 -0.234375,0.19921875 0,0.105468755 0.1171875,0.105468755 0.140625,0.105468755 0.28125,0 0.984375,-0.035156255 1.265625,-0.035156255 0.2109375,0 0.421875,0.01171875 0.6328125,0.01171875 0.2226563,0 0.4335938,0.023437505 0.6445313,0.023437505 0.082031,0 0.1992187,0 0.1992187,-0.199218755 0,-0.10546875 -0.082031,-0.10546875 -0.2695312,-0.10546875 -0.375,0 -0.65625,0 -0.65625,-0.1875 0,-0.0585937 0.023437,-0.10546875 0.035156,-0.1640625 z m 0,0"
       style="fill:#000000;fill-opacity:1;fill-rule:nonzero;stroke:none"
       aria-label="H"
       transform="matrix(1.3333333,0,0,1.3333333,52.246667,107.33467)" />
    <path
       id="path84"
       d="M 101.28395,-22.6773 H 121.2095 V -7.73315 H 101.28395 Z"
       style="fill:#ffffff;fill-opacity:1;fill-rule:nonzero;stroke:none"
       transform="matrix(1.3333333,0,0,-1.3333333,189.64533,82.522667)" />
    <path
       id="path85"
       d="m 104.1188,-16.90596 c 3.57349,4.25865 10.68236,4.25865 14.25586,0"
       style="fill:none;stroke:#000000;stroke-width:0.79701;stroke-linecap:butt;stroke-linejoin:miter;stroke-miterlimit:10;stroke-dasharray:none;stroke-opacity:1"
       transform="matrix(1.3333333,0,0,-1.3333333,189.64533,82.522667)"
       clip-path="url(#clipPath86)" />
    <path
       id="path87"
       d="m 111.24672,-18.04007 4.84712,5.78296"
       style="fill:none;stroke:#000000;stroke-width:0.79701;stroke-linecap:butt;stroke-linejoin:miter;stroke-miterlimit:10;stroke-dasharray:none;stroke-opacity:1"
       transform="matrix(1.3333333,0,0,-1.3333333,189.64533,82.522667)"
       clip-path="url(#clipPath88)" />
    <path
       id="path89"
       d="M 1.92412,0 C 1.68782,0.06175 0.64917,0.41174 0,0.79262 V -0.79262 C 0.64917,-0.41174 1.68782,-0.06175 1.92412,0 Z"
       style="fill:#000000;fill-opacity:1;fill-rule:nonzero;stroke:#000000;stroke-width:0.78903;stroke-linecap:butt;stroke-linejoin:miter;stroke-miterlimit:10;stroke-dasharray:none;stroke-opacity:1"
       transform="matrix(0.85646667,-1.0218133,-1.0218133,-0.85646667,344.43712,98.86548)"
       clip-path="url(#clipPath90)" />
    <path
       id="path91"
       d="M 101.28395,-22.6773 H 121.2095 V -7.73315 H 101.28395 Z"
       style="fill:none;stroke:#000000;stroke-width:0.79701;stroke-linecap:butt;stroke-linejoin:miter;stroke-miterlimit:10;stroke-dasharray:none;stroke-opacity:1"
       transform="matrix(1.3333333,0,0,-1.3333333,189.64533,82.522667)" />
    <g
       id="g91"
       aria-label="|ψ⟩"
       transform="matrix(1.3333333,0,0,1.3333333,4.4266667,149.612)">
      <path
         id="path92"
         d="m 1.5813672,-7.1123203 c 0,-0.1757813 0,-0.3632813 -0.1992188,-0.3632813 -0.1992187,0 -0.1992187,0.1875 -0.1992187,0.3632813 v 9.2460937 c 0,0.1757813 0,0.3632813 0.1992187,0.3632813 0.1992188,0 0.1992188,-0.1875 0.1992188,-0.3632813 z m 0,0"
         style="fill:#000000;fill-opacity:1;fill-rule:nonzero;stroke:none" />
      <path
         id="path93"
         d="m 7.5725781,-6.6552891 c 0.011719,-0.035156 0.023437,-0.09375 0.023437,-0.1523437 0,-0.09375 -0.070312,-0.1054688 -0.1171875,-0.1054688 -0.09375,0 -0.1054687,0.023437 -0.1523437,0.1992188 l -1.6523438,6.58593749 c -0.75,-0.09375 -1.1367187,-0.45703125 -1.1367187,-1.11328129 0,-0.1992187 0,-0.4570312 0.5390625,-1.8515625 0.046875,-0.1289062 0.1171875,-0.2929687 0.1171875,-0.4921875 0,-0.4453125 -0.328125,-0.8203125 -0.8203125,-0.8203125 -0.9492188,0 -1.3125,1.453125 -1.3125,1.5351563 0,0.1054687 0.09375,0.1054687 0.1171875,0.1054687 0.09375,0 0.1054687,-0.023437 0.1523437,-0.1875 0.2695313,-0.9375 0.6679688,-1.2304687 1.0078125,-1.2304687 0.082031,0 0.2578125,0 0.2578125,0.3164062 0,0.2578125 -0.1054687,0.515625 -0.234375,0.8554688 -0.4804687,1.2539062 -0.4804687,1.5117187 -0.4804687,1.6875 0,0.94921874 0.7851562,1.35937499 1.734375,1.41796874 -0.082031,0.3515625 -0.082031,0.375 -0.2226563,0.90234375 C 5.3694531,1.1025234 5.1702344,1.9111172 5.1702344,1.9462734 c 0,0.011719 0,0.09375 0.1171875,0.09375 0.023437,0 0.070312,0 0.09375,-0.035156 0.023437,-0.023437 0.082031,-0.2695313 0.1171875,-0.4101563 l 0.375,-1.48828121 c 0.375,0 1.2421875,0 2.1796875,-1.06640625 0.4101562,-0.45703124 0.6210937,-0.89062504 0.7265625,-1.19531254 0.09375,-0.2460937 0.3164062,-1.1132812 0.3164062,-1.546875 0,-0.5625 -0.2695312,-0.703125 -0.4453125,-0.703125 -0.2460937,0 -0.4921875,0.2578125 -0.4921875,0.4804688 0,0.1289062 0.058594,0.1875 0.1523438,0.2695312 0.1054687,0.1054688 0.3515625,0.3632813 0.3515625,0.84375 0,0.6445313 -0.515625,1.453125 -0.8671875,1.81640629 -0.8789063,0.890625 -1.5117188,0.890625 -1.875,0.890625 z m 0,0"
         style="fill:#000000;fill-opacity:1;fill-rule:nonzero;stroke:none" />
      <path
         id="path94"
         d="m 12.33332,-2.3193516 c 0.04687,-0.1171875 0.04687,-0.140625 0.04687,-0.1757812 0,-0.023437 0,-0.046875 -0.04687,-0.1640625 l -1.746093,-4.5820313 c -0.05859,-0.1640625 -0.117188,-0.234375 -0.222657,-0.234375 -0.117187,0 -0.199218,0.09375 -0.199218,0.1992188 0,0.035156 0,0.058594 0.04687,0.1640625 l 1.757812,4.6171875 -1.757812,4.6054687 c -0.04687,0.1171875 -0.04687,0.1289063 -0.04687,0.1875 0,0.1054688 0.08203,0.1992188 0.199218,0.1992188 0.128907,0 0.164063,-0.1054688 0.210938,-0.1992188 z m 0,0"
         style="fill:#000000;fill-opacity:1;fill-rule:nonzero;stroke:none" />
    </g>
    <path
       id="path95"
       d="m -75.8015,-56.72867 h 24.21648 v 17.80238 H -75.8015 Z"
       style="fill:#ffffff;fill-opacity:1;fill-rule:nonzero;stroke:#000000;stroke-width:0.79701;stroke-linecap:butt;stroke-linejoin:miter;stroke-miterlimit:10;stroke-dasharray:none;stroke-opacity:1"
       transform="matrix(1.3333333,0,0,-1.3333333,189.64533,82.522667)" />
    <g
       id="g95"
       aria-label="U&#10;2&#10;0"
       transform="matrix(1.3333333,0,0,1.3333333,93.892,152.84667)">
      <path
         id="path96"
         d="m 6.3270938,-5.7531641 c 0.09375,-0.4101562 0.28125,-0.7148437 1.078125,-0.7382812 0.046875,0 0.1640625,-0.011719 0.1640625,-0.1992188 0,-0.011719 0,-0.1171875 -0.1289063,-0.1171875 -0.328125,0 -0.6796875,0.035156 -1.0195312,0.035156 -0.3398438,0 -0.703125,-0.035156 -1.03125,-0.035156 -0.058594,0 -0.1757813,0 -0.1757813,0.1992188 0,0.1171875 0.09375,0.1171875 0.1757813,0.1171875 0.5625,0.011719 0.6796875,0.2109375 0.6796875,0.4335937 0,0.035156 -0.023437,0.1757813 -0.035156,0.2109375 L 5.1435,-2.2961328 c -0.3398437,1.33593749 -1.4882812,2.20312499 -2.484375,2.20312499 -0.6796875,0 -1.21875,-0.43359375 -1.21875,-1.28906249 0,-0.023437 0,-0.3398438 0.1171875,-0.7734375 L 2.5185,-6.0344141 c 0.09375,-0.3632812 0.1054688,-0.4570312 0.8320313,-0.4570312 0.2695312,0 0.3398437,0 0.3398437,-0.1992188 0,-0.1171875 -0.1054687,-0.1171875 -0.140625,-0.1171875 -0.2695312,0 -0.9960937,0.035156 -1.265625,0.035156 -0.2929687,0 -0.9960937,-0.035156 -1.2890625,-0.035156 -0.0820313,0 -0.1875,0 -0.1875,0.1992188 0,0.1171875 0.09375,0.1171875 0.28125,0.1171875 0.011719,0 0.2109375,0 0.375,0.011719 0.1757813,0.023437 0.2695313,0.035156 0.2695313,0.1640625 0,0.058594 -0.1054688,0.4804688 -0.1757813,0.703125 l -0.2109375,0.878906 c -0.09375,0.3867187 -0.57421875,2.2734375 -0.609375,2.4609375 -0.0703125,0.28125 -0.0703125,0.4335937 -0.0703125,0.5742187 0,1.21875004 0.9023438,1.92187504 1.9570313,1.92187504 1.2539062,0 2.484375,-1.125 2.8125,-2.44921874 z m 0,0"
         style="fill:#000000;fill-opacity:1;fill-rule:nonzero;stroke:none" />
      <path
         id="path97"
         d="m 11.404242,-4.8830469 h -0.234375 c -0.02344,0.1523438 -0.08203,0.5625 -0.175781,0.6328125 -0.05859,0.035156 -0.597656,0.035156 -0.691406,0.035156 H 9.0136172 c 0.7382812,-0.6445313 0.984375,-0.84375 1.3945308,-1.171875 0.515625,-0.4101563 0.996094,-0.84375 0.996094,-1.5 0,-0.84375 -0.738281,-1.359375 -1.6289061,-1.359375 -0.8671875,0 -1.453125,0.609375 -1.453125,1.2421875 0,0.3632812 0.3046875,0.3984375 0.375,0.3984375 0.1640625,0 0.375,-0.1171875 0.375,-0.375 0,-0.1289063 -0.058594,-0.3632813 -0.421875,-0.3632813 0.2226563,-0.5039062 0.6914063,-0.65625 1.0195313,-0.65625 0.7031248,0 1.0664058,0.5507813 1.0664058,1.1132813 0,0.609375 -0.433593,1.0898437 -0.65625,1.3359375 l -1.6874996,1.6640625 c -0.070312,0.058594 -0.070312,0.070312 -0.070312,0.2695312 h 2.8828126 z m 0,0"
         style="fill:#000000;fill-opacity:1;fill-rule:nonzero;stroke:none" />
      <path
         id="path98"
         d="m 14.846625,-8.2170313 c 0,-0.3632812 0,-1.7226562 -1.289062,-1.7226562 -1.300782,0 -1.300782,1.359375 -1.300782,1.7226562 0,0.3632813 0,1.6992188 1.300782,1.6992188 1.289062,0 1.289062,-1.3359375 1.289062,-1.6992188 z m -1.289062,1.5351563 c -0.1875,0 -0.609375,-0.058594 -0.738282,-0.5625 -0.05859,-0.2695313 -0.07031,-0.6210938 -0.07031,-1.03125 0,-0.375 0,-0.7148438 0.08203,-0.9960938 0.128906,-0.421875 0.503906,-0.5039062 0.726563,-0.5039062 0.363281,0 0.621093,0.1875 0.726562,0.5390625 0.07031,0.2578125 0.07031,0.6679687 0.07031,0.9609375 0,0.3398437 0,0.7382812 -0.07031,1.0429687 -0.128906,0.4804688 -0.527344,0.5507813 -0.726562,0.5507813 z m 0,0"
         style="fill:#000000;fill-opacity:1;fill-rule:nonzero;stroke:none" />
    </g>
    <path
       id="path99"
       d="m -37.41162,-56.72867 h 24.21648 v 17.80238 h -24.21648 z"
       style="fill:#ffffff;fill-opacity:1;fill-rule:nonzero;stroke:#000000;stroke-width:0.79701;stroke-linecap:butt;stroke-linejoin:miter;stroke-miterlimit:10;stroke-dasharray:none;stroke-opacity:1"
       transform="matrix(1.3333333,0,0,-1.3333333,189.64533,82.522667)" />
    <g
       id="g99"
       aria-label="U&#10;2&#10;1"
       transform="matrix(1.3333333,0,0,1.3333333,145.07733,152.84667)">
      <path
         id="path100"
         d="m 6.3287188,-5.7531641 c 0.09375,-0.4101562 0.28125,-0.7148437 1.078125,-0.7382812 0.046875,0 0.1640625,-0.011719 0.1640625,-0.1992188 0,-0.011719 0,-0.1171875 -0.1289063,-0.1171875 -0.328125,0 -0.6796875,0.035156 -1.0195312,0.035156 -0.3398438,0 -0.703125,-0.035156 -1.03125,-0.035156 -0.058594,0 -0.1757813,0 -0.1757813,0.1992188 0,0.1171875 0.09375,0.1171875 0.1757813,0.1171875 0.5625,0.011719 0.6796875,0.2109375 0.6796875,0.4335937 0,0.035156 -0.023437,0.1757813 -0.035156,0.2109375 l -0.890625,3.5507813 c -0.3398437,1.33593749 -1.4882812,2.20312499 -2.484375,2.20312499 -0.6796875,0 -1.21875,-0.43359375 -1.21875,-1.28906249 0,-0.023437 0,-0.3398438 0.1171875,-0.7734375 L 2.520125,-6.0344141 c 0.09375,-0.3632812 0.1054688,-0.4570312 0.8320313,-0.4570312 0.2695312,0 0.3398437,0 0.3398437,-0.1992188 0,-0.1171875 -0.1054687,-0.1171875 -0.140625,-0.1171875 -0.2695312,0 -0.9960937,0.035156 -1.265625,0.035156 -0.2929687,0 -0.9960937,-0.035156 -1.2890625,-0.035156 -0.0820313,0 -0.1875,0 -0.1875,0.1992188 0,0.1171875 0.09375,0.1171875 0.28125,0.1171875 0.011719,0 0.2109375,0 0.375,0.011719 0.1757813,0.023437 0.2695313,0.035156 0.2695313,0.1640625 0,0.058594 -0.1054688,0.4804688 -0.1757813,0.703125 L 1.34825,-4.7336328 c -0.09375,0.3867187 -0.57421875,2.2734375 -0.609375,2.4609375 -0.0703125,0.28125 -0.0703125,0.4335937 -0.0703125,0.5742187 0,1.21875004 0.9023438,1.92187504 1.9570313,1.92187504 1.2539062,0 2.484375,-1.125 2.8125,-2.44921874 z m 0,0"
         style="fill:#000000;fill-opacity:1;fill-rule:nonzero;stroke:none" />
      <path
         id="path101"
         d="m 11.405867,-4.8830469 h -0.234375 c -0.02344,0.1523438 -0.08203,0.5625 -0.175781,0.6328125 -0.05859,0.035156 -0.597656,0.035156 -0.691406,0.035156 H 9.0152422 c 0.7382812,-0.6445313 0.984375,-0.84375 1.3945308,-1.171875 0.515625,-0.4101563 0.996094,-0.84375 0.996094,-1.5 0,-0.84375 -0.738281,-1.359375 -1.6289061,-1.359375 -0.8671875,0 -1.453125,0.609375 -1.453125,1.2421875 0,0.3632812 0.3046875,0.3984375 0.375,0.3984375 0.1640625,0 0.375,-0.1171875 0.375,-0.375 0,-0.1289063 -0.058594,-0.3632813 -0.421875,-0.3632813 0.2226563,-0.5039062 0.6914063,-0.65625 1.0195313,-0.65625 0.7031248,0 1.0664058,0.5507813 1.0664058,1.1132813 0,0.609375 -0.433593,1.0898437 -0.65625,1.3359375 l -1.6874996,1.6640625 c -0.070312,0.058594 -0.070312,0.070312 -0.070312,0.2695312 h 2.8828126 z m 0,0"
         style="fill:#000000;fill-opacity:1;fill-rule:nonzero;stroke:none" />
      <path
         id="path102"
         d="m 13.840438,-9.7873438 c 0,-0.1523437 -0.01172,-0.1523437 -0.175782,-0.1523437 -0.351562,0.3164062 -0.902343,0.3164062 -1.007812,0.3164062 h -0.08203 v 0.2226563 h 0.08203 c 0.117187,0 0.433594,-0.011719 0.726562,-0.140625 v 2.484375 c 0,0.1640625 0,0.2109375 -0.527343,0.2109375 h -0.246094 v 0.2226562 c 0.269531,-0.023437 0.714844,-0.023437 1.007812,-0.023437 0.28125,0 0.726563,0 0.996094,0.023437 v -0.2226562 h -0.246094 c -0.527343,0 -0.527343,-0.046875 -0.527343,-0.2109375 z m 0,0"
         style="fill:#000000;fill-opacity:1;fill-rule:nonzero;stroke:none" />
    </g>
    <path
       id="path103"
       d="m 0.97824,-56.72867 h 24.21648 v 17.80238 H 0.97824 Z"
       style="fill:#ffffff;fill-opacity:1;fill-rule:nonzero;stroke:#000000;stroke-width:0.79701;stroke-linecap:butt;stroke-linejoin:miter;stroke-miterlimit:10;stroke-dasharray:none;stroke-opacity:1"
       transform="matrix(1.3333333,0,0,-1.3333333,189.64533,82.522667)" />
    <g
       id="g103"
       aria-label="U&#10;2&#10;2"
       transform="matrix(1.3333333,0,0,1.3333333,196.26267,152.84667)">
      <path
         id="path104"
         d="m 6.3274141,-5.7531641 c 0.09375,-0.4101562 0.28125,-0.7148437 1.078125,-0.7382812 0.046875,0 0.1640625,-0.011719 0.1640625,-0.1992188 0,-0.011719 0,-0.1171875 -0.1289063,-0.1171875 -0.328125,0 -0.6796875,0.035156 -1.0195312,0.035156 -0.3398438,0 -0.703125,-0.035156 -1.03125,-0.035156 -0.058594,0 -0.1757813,0 -0.1757813,0.1992188 0,0.1171875 0.09375,0.1171875 0.1757813,0.1171875 0.5625,0.011719 0.6796875,0.2109375 0.6796875,0.4335937 0,0.035156 -0.023437,0.1757813 -0.035156,0.2109375 l -0.890625,3.5507813 c -0.3398437,1.33593749 -1.4882812,2.20312499 -2.484375,2.20312499 -0.6796875,0 -1.21875,-0.43359375 -1.21875,-1.28906249 0,-0.023437 0,-0.3398438 0.1171875,-0.7734375 l 0.9609375,-3.8789063 c 0.09375,-0.3632812 0.1054688,-0.4570312 0.8320313,-0.4570312 0.2695312,0 0.3398437,0 0.3398437,-0.1992188 0,-0.1171875 -0.1054687,-0.1171875 -0.140625,-0.1171875 -0.2695312,0 -0.9960937,0.035156 -1.265625,0.035156 -0.2929687,0 -0.9960937,-0.035156 -1.28906249,-0.035156 -0.0820313,0 -0.1875,0 -0.1875,0.1992188 0,0.1171875 0.09375,0.1171875 0.28124999,0.1171875 0.011719,0 0.2109375,0 0.375,0.011719 0.1757813,0.023437 0.2695313,0.035156 0.2695313,0.1640625 0,0.058594 -0.1054688,0.4804688 -0.1757813,0.703125 l -0.2109375,0.8789063 c -0.09375,0.3867187 -0.57421874,2.2734375 -0.60937499,2.4609375 -0.0703125,0.28125 -0.0703125,0.4335937 -0.0703125,0.5742187 0,1.21875004 0.90234379,1.92187504 1.95703129,1.92187504 1.2539062,0 2.484375,-1.125 2.8125,-2.44921874 z m 0,0"
         style="fill:#000000;fill-opacity:1;fill-rule:nonzero;stroke:none" />
      <path
         id="path105"
         d="m 11.404563,-4.8830469 h -0.234375 c -0.02344,0.1523438 -0.08203,0.5625 -0.175782,0.6328125 -0.05859,0.035156 -0.597656,0.035156 -0.691406,0.035156 H 9.0139375 c 0.7382813,-0.6445313 0.984375,-0.84375 1.3945315,-1.171875 0.515625,-0.4101563 0.996094,-0.84375 0.996094,-1.5 0,-0.84375 -0.738282,-1.359375 -1.6289067,-1.359375 -0.8671875,0 -1.453125,0.609375 -1.453125,1.2421875 0,0.3632812 0.3046875,0.3984375 0.375,0.3984375 0.1640625,0 0.375,-0.1171875 0.375,-0.375 0,-0.1289063 -0.058594,-0.3632813 -0.421875,-0.3632813 0.2226562,-0.5039062 0.6914062,-0.65625 1.0195312,-0.65625 0.7031255,0 1.0664065,0.5507813 1.0664065,1.1132813 0,0.609375 -0.433594,1.0898437 -0.65625,1.3359375 l -1.6875002,1.6640625 c -0.070312,0.058594 -0.070312,0.070312 -0.070312,0.2695312 h 2.8828122 z m 0,0"
         style="fill:#000000;fill-opacity:1;fill-rule:nonzero;stroke:none" />
      <path
         id="path106"
         d="m 14.788352,-7.5842188 h -0.210938 c -0.01172,0.09375 -0.05859,0.3984375 -0.140625,0.4570313 -0.03516,0.023437 -0.457031,0.023437 -0.527344,0.023437 H 12.92507 c 0.328125,-0.2460938 0.703125,-0.515625 0.996094,-0.7148438 0.457031,-0.3164062 0.867188,-0.5976562 0.867188,-1.125 0,-0.6445312 -0.597657,-0.9960937 -1.3125,-0.9960937 -0.667969,0 -1.160157,0.3867187 -1.160157,0.8789062 0,0.2578125 0.210938,0.3046875 0.28125,0.3046875 0.140625,0 0.292969,-0.09375 0.292969,-0.2929687 0,-0.1875 -0.128906,-0.28125 -0.28125,-0.2929688 0.140625,-0.234375 0.433594,-0.375 0.761719,-0.375 0.480469,0 0.890625,0.28125 0.890625,0.7734375 0,0.421875 -0.292969,0.7382813 -0.679688,1.0546875 l -1.207031,1.03125 c -0.04687,0.046875 -0.05859,0.046875 -0.05859,0.082031 v 0.1523437 h 2.308594 z m 0,0"
         style="fill:#000000;fill-opacity:1;fill-rule:nonzero;stroke:none" />
    </g>
  </g>
</svg>
