<?xml version="1.0" encoding="UTF-8" standalone="no"?>
<!-- Created with Inkscape (http://www.inkscape.org/) -->

<svg
   version="1.1"
   id="svg1"
   width="144.90419"
   height="20.988213"
   viewBox="0 0 144.90419 20.988213"
   xmlns="http://www.w3.org/2000/svg"
   xmlns:svg="http://www.w3.org/2000/svg">
  <defs
     id="defs1">
    <clipPath
       clipPathUnits="userSpaceOnUse"
       id="clipPath12">
      <path
         d="M 26.88695,-7.47208 H 46.8125 V 7.47207 H 26.88695 Z"
         id="path12" />
    </clipPath>
    <clipPath
       clipPathUnits="userSpaceOnUse"
       id="clipPath14">
      <path
         d="M 26.88695,-7.47208 H 46.8125 V 7.47207 H 26.88695 Z"
         id="path14" />
    </clipPath>
    <clipPath
       clipPathUnits="userSpaceOnUse"
       id="clipPath16">
      <path
         d="M 26.88695,-7.47208 H 46.8125 V 7.47207 H 26.88695 Z"
         transform="matrix(0.64240066,-0.76642042,0.76642042,0.64240066,-29.045549,30.063433)"
         id="path16" />
    </clipPath>
  </defs>
  <g
     id="g1"
     transform="translate(-6.0078125,-9.1192333)">
    <path
       id="path1"
       d="M -32.63911,0 H -46.81252"
       style="fill:none;stroke:#000000;stroke-width:0.79701;stroke-linecap:round;stroke-linejoin:miter;stroke-miterlimit:10;stroke-dasharray:none;stroke-opacity:1"
       transform="matrix(1.3333333,0,0,-1.3333333,87.964,19.613333)" />
    <path
       id="path2"
       d="m -18.46571,0 h -14.1734"
       style="fill:none;stroke:#000000;stroke-width:0.79701;stroke-linecap:round;stroke-linejoin:miter;stroke-miterlimit:10;stroke-dasharray:none;stroke-opacity:1"
       transform="matrix(1.3333333,0,0,-1.3333333,87.964,19.613333)" />
    <path
       id="path3"
       d="M 12.71355,0 H -1.45984"
       style="fill:none;stroke:#000000;stroke-width:0.79701;stroke-linecap:round;stroke-linejoin:miter;stroke-miterlimit:10;stroke-dasharray:none;stroke-opacity:1"
       transform="matrix(1.3333333,0,0,-1.3333333,87.964,19.613333)" />
    <path
       id="path4"
       d="M 26.88695,0 H 12.71355"
       style="fill:none;stroke:#000000;stroke-width:0.79701;stroke-linecap:round;stroke-linejoin:miter;stroke-miterlimit:10;stroke-dasharray:none;stroke-opacity:1"
       transform="matrix(1.3333333,0,0,-1.3333333,87.964,19.613333)" />
    <g
       id="g4"
       aria-label="|0⟩"
       transform="matrix(1.3333333,0,0,1.3333333,4.428,22.934667)">
      <path
         id="path5"
         d="m 1.5832969,-7.1140859 c 0,-0.1757813 0,-0.3632813 -0.1992188,-0.3632813 -0.1992187,0 -0.1992187,0.1875 -0.1992187,0.3632813 v 9.2460937 c 0,0.1757813 0,0.3632813 0.1992187,0.3632813 0.1992188,0 0.1992188,-0.1875 0.1992188,-0.3632813 z m 0,0"
         style="fill:#000000;fill-opacity:1;fill-rule:nonzero;stroke:none" />
      <path
         id="path6"
         d="m 7.3489219,-3.1883047 c 0,-0.796875 -0.046875,-1.59375 -0.3984375,-2.3320312 -0.4570313,-0.9609375 -1.2773438,-1.1132813 -1.6875,-1.1132813 -0.5976563,0 -1.3359375,0.2578125 -1.734375,1.1835938 -0.328125,0.6914062 -0.375,1.4648437 -0.375,2.2617187 0,0.75 0.046875,1.640625 0.4453125,2.40234376 0.4335937,0.80859375 1.1601562,1.0078125 1.6523437,1.0078125 0.5390625,0 1.2890625,-0.2109375 1.734375,-1.16015625 C 7.3020469,-1.6297109 7.3489219,-2.4031484 7.3489219,-3.1883047 Z M 5.2512656,-8.046875e-4 c -0.3867187,0 -0.984375,-0.2460937525 -1.1601562,-1.2070312125 -0.1054688,-0.5976563 -0.1054688,-1.5117188 -0.1054688,-2.0976563 0,-0.6445312 0,-1.3007812 0.082031,-1.8398437 0.1875,-1.1835938 0.9257812,-1.265625 1.1835937,-1.265625 0.328125,0 0.984375,0.1757812 1.171875,1.1601562 0.09375,0.5625 0.09375,1.3125 0.09375,1.9453125 0,0.75 0,1.4179688 -0.1054687,2.0625 -0.1523438,0.93750001 -0.7148438,1.2421875125 -1.160156,1.2421875125 z m 0,0"
         style="fill:#000000;fill-opacity:1;fill-rule:nonzero;stroke:none" />
      <path
         id="path7"
         d="m 10.466109,-2.3211172 c 0.04687,-0.1171875 0.04687,-0.140625 0.04687,-0.1757812 0,-0.023437 0,-0.046875 -0.04687,-0.1640625 L 8.7200156,-7.2429922 c -0.058594,-0.1640625 -0.1171875,-0.234375 -0.2226562,-0.234375 -0.1171875,0 -0.1992188,0.09375 -0.1992188,0.1992188 0,0.035156 0,0.058594 0.046875,0.1640625 l 1.7578124,4.6171875 -1.7578124,4.6054687 c -0.046875,0.1171875 -0.046875,0.1289063 -0.046875,0.1875 0,0.1054688 0.082031,0.1992188 0.1992188,0.1992188 0.1289062,0 0.1640625,-0.1054688 0.2109375,-0.1992188 z m 0,0"
         style="fill:#000000;fill-opacity:1;fill-rule:nonzero;stroke:none" />
    </g>
    <path
       id="path8"
       d="M -18.46571,-7.38904 H -1.45984 V 7.38904 h -17.00587 z"
       style="fill:#ffffff;fill-opacity:1;fill-rule:nonzero;stroke:#000000;stroke-width:0.79701;stroke-linecap:butt;stroke-linejoin:miter;stroke-miterlimit:10;stroke-dasharray:none;stroke-opacity:1"
       transform="matrix(1.3333333,0,0,-1.3333333,87.964,19.613333)" />
    <path
       id="path9"
       d="M 4.8283125,-4.0895859 3.9962812,-6.0817734 c -0.035156,-0.070312 -0.046875,-0.1171875 -0.046875,-0.1289063 0,-0.058594 0.1640625,-0.2460937 0.5859375,-0.28125 0.09375,-0.011719 0.1992188,-0.023437 0.1992188,-0.1875 0,-0.1289062 -0.1171875,-0.1289062 -0.1523438,-0.1289062 -0.4101562,0 -0.8320312,0.035156 -1.2539062,0.035156 -0.2460938,0 -0.8671875,-0.035156 -1.1132813,-0.035156 -0.058594,0 -0.1875,0 -0.1875,0.1992187 0,0.1171875 0.1054688,0.1171875 0.234375,0.1171875 0.5976563,0 0.65625,0.09375 0.75,0.3164063 l 1.171875,2.7773437 -2.0976562,2.2617188 -0.1289063,0.1054687 c -0.4921875,0.52734376 -0.96093745,0.69140626 -1.4648437,0.72656251 -0.12890625,0 -0.22265625,0 -0.22265625,0.19921875 0,0 0,0.1054687525 0.12890625,0.1054687525 0.3046875,0 0.6328125,-0.0351562525 0.9375,-0.0351562525 0.3632812,0 0.7617187,0.0351562525 1.1132812,0.0351562525 0.058594,0 0.1757813,0 0.1757813,-0.1992187525 0,-0.10546875 -0.09375,-0.10546875 -0.1171875,-0.10546875 -0.082031,-0.0117188 -0.3984375,-0.0351563 -0.3984375,-0.31640625 0,-0.15234375 0.1523437,-0.31640625 0.2695312,-0.44531246 l 1.0195313,-1.078125 0.890625,-0.9726563 1.0078125,2.37890626 c 0.046875,0.10546875 0.046875,0.1171875 0.046875,0.140625 0,0.0820313 -0.1875,0.24609375 -0.5742188,0.29296875 -0.1054687,0 -0.1992187,0.0117188 -0.1992187,0.1875 0,0.1171875025 0.1171875,0.1171875025 0.1523437,0.1171875025 0.28125,0 0.9726563,-0.0351562525 1.2539063,-0.0351562525 0.2460937,0 0.8554687,0.0351562525 1.1015625,0.0351562525 0.070312,0 0.1992187,0 0.1992187,-0.1875000025 0,-0.1171875 -0.1054687,-0.1171875 -0.1875,-0.1171875 -0.6679687,-0.0117188 -0.6796875,-0.046875 -0.8554687,-0.4453125 C 5.8478437,-1.6755234 5.179875,-3.2223984 4.9455,-3.8200547 c 0.6796875,-0.703125 1.734375,-1.8867187 2.0507812,-2.1679687 0.28125,-0.234375 0.6679688,-0.4804688 1.265625,-0.5039063 0.1289063,-0.011719 0.2109375,-0.011719 0.2109375,-0.1992187 0,-0.011719 0,-0.1171875 -0.1289062,-0.1171875 -0.2929688,0 -0.6210938,0.035156 -0.9375,0.035156 -0.3632813,0 -0.7382813,-0.035156 -1.1015625,-0.035156 -0.058594,0 -0.1875,0 -0.1875,0.1992187 0,0.070312 0.046875,0.1054688 0.1171875,0.1171875 0.09375,0.011719 0.3984375,0.023437 0.3984375,0.3046875 0,0.140625 -0.1054688,0.2695313 -0.1875,0.3632813 z m 0,0"
       style="fill:#000000;fill-opacity:1;fill-rule:nonzero;stroke:none"
       aria-label="X"
       transform="matrix(1.3333333,0,0,1.3333333,68.656,24.152)" />
    <path
       id="path10"
       d="M 26.88695,-7.47208 H 46.8125 V 7.47207 H 26.88695 Z"
       style="fill:#ffffff;fill-opacity:1;fill-rule:nonzero;stroke:none"
       transform="matrix(1.3333333,0,0,-1.3333333,87.964,19.613333)" />
    <path
       id="path11"
       d="m 29.72179,-1.70073 c 3.5735,4.25863 10.68237,4.25863 14.25587,0"
       style="fill:none;stroke:#000000;stroke-width:0.79701;stroke-linecap:butt;stroke-linejoin:miter;stroke-miterlimit:10;stroke-dasharray:none;stroke-opacity:1"
       transform="matrix(1.3333333,0,0,-1.3333333,87.964,19.613333)"
       clip-path="url(#clipPath12)" />
    <path
       id="path13"
       d="M 36.84973,-2.83484 41.69682,2.9481"
       style="fill:none;stroke:#000000;stroke-width:0.79701;stroke-linecap:butt;stroke-linejoin:miter;stroke-miterlimit:10;stroke-dasharray:none;stroke-opacity:1"
       transform="matrix(1.3333333,0,0,-1.3333333,87.964,19.613333)"
       clip-path="url(#clipPath14)" />
    <path
       id="path15"
       d="M 1.92412,0 C 1.68782,0.06175 0.64917,0.41174 0,0.79262 V -0.79262 C 0.64917,-0.41174 1.68782,-0.06175 1.92412,0 Z"
       style="fill:#000000;fill-opacity:1;fill-rule:nonzero;stroke:#000000;stroke-width:0.78903;stroke-linecap:butt;stroke-linejoin:miter;stroke-miterlimit:10;stroke-dasharray:none;stroke-opacity:1"
       transform="matrix(0.85646667,-1.0218133,-1.0218133,-0.85646667,143.55976,15.682533)"
       clip-path="url(#clipPath16)" />
    <path
       id="path17"
       d="M 26.88695,-7.47208 H 46.8125 V 7.47207 H 26.88695 Z"
       style="fill:none;stroke:#000000;stroke-width:0.79701;stroke-linecap:butt;stroke-linejoin:miter;stroke-miterlimit:10;stroke-dasharray:none;stroke-opacity:1"
       transform="matrix(1.3333333,0,0,-1.3333333,87.964,19.613333)" />
  </g>
</svg>
