<?xml version="1.0" encoding="UTF-8" standalone="no"?>
<!-- Created with Inkscape (http://www.inkscape.org/) -->

<svg
   version="1.1"
   id="svg1"
   width="137.44922"
   height="20.766787"
   viewBox="0 0 137.44922 20.766786"
   xmlns="http://www.w3.org/2000/svg"
   xmlns:svg="http://www.w3.org/2000/svg">
  <defs
     id="defs1" />
  <g
     id="g1"
     transform="translate(-6.0039063,-3.8966069)">
    <path
       id="path1"
       d="m -22.67633,0 h -14.1734"
       style="fill:none;stroke:#000000;stroke-width:0.79701;stroke-linecap:round;stroke-linejoin:miter;stroke-miterlimit:10;stroke-dasharray:none;stroke-opacity:1"
       transform="matrix(1.3333333,0,0,-1.3333333,74.68,14.28)" />
    <path
       id="path2"
       d="m -8.50293,0 h -14.1734"
       style="fill:none;stroke:#000000;stroke-width:0.79701;stroke-linecap:round;stroke-linejoin:miter;stroke-miterlimit:10;stroke-dasharray:none;stroke-opacity:1"
       transform="matrix(1.3333333,0,0,-1.3333333,74.68,14.28)" />
    <path
       id="path3"
       d="M 22.67633,0 H 8.50293"
       style="fill:none;stroke:#000000;stroke-width:0.79701;stroke-linecap:round;stroke-linejoin:miter;stroke-miterlimit:10;stroke-dasharray:none;stroke-opacity:1"
       transform="matrix(1.3333333,0,0,-1.3333333,74.68,14.28)" />
    <path
       id="path4"
       d="M 36.84973,0 H 22.67633"
       style="fill:none;stroke:#000000;stroke-width:0.79701;stroke-linecap:round;stroke-linejoin:miter;stroke-miterlimit:10;stroke-dasharray:none;stroke-opacity:1"
       transform="matrix(1.3333333,0,0,-1.3333333,74.68,14.28)" />
    <g
       id="g4"
       aria-label="|0⟩"
       transform="matrix(1.3333333,0,0,1.3333333,4.4266667,17.6)">
      <path
         id="path5"
         d="m 1.5813672,-7.1121094 c 0,-0.1757812 0,-0.3632812 -0.1992188,-0.3632812 -0.1992187,0 -0.1992187,0.1875 -0.1992187,0.3632812 v 9.2460938 c 0,0.1757812 0,0.3632812 0.1992187,0.3632812 0.1992188,0 0.1992188,-0.1875 0.1992188,-0.3632812 z m 0,0"
         style="fill:#000000;fill-opacity:1;fill-rule:nonzero;stroke:none" />
      <path
         id="path6"
         d="m 7.3499219,-3.1863281 c 0,-0.796875 -0.046875,-1.59375 -0.3984375,-2.3320313 -0.4570313,-0.9609375 -1.2773438,-1.1132812 -1.6875,-1.1132812 -0.5976563,0 -1.3359375,0.2578125 -1.734375,1.1835937 -0.328125,0.6914063 -0.375,1.4648438 -0.375,2.2617188 0,0.75 0.046875,1.640625 0.4453125,2.40234372 0.4335937,0.80859375 1.1601562,1.0078125 1.6523437,1.0078125 0.5390625,0 1.2890625,-0.2109375 1.734375,-1.16015625 C 7.3030469,-1.6277344 7.3499219,-2.4011719 7.3499219,-3.1863281 Z M 5.2522656,0.00117187 c -0.3867187,0 -0.984375,-0.24609375 -1.1601562,-1.20703127 -0.1054688,-0.5976562 -0.1054688,-1.5117187 -0.1054688,-2.0976562 0,-0.6445313 0,-1.3007813 0.082031,-1.8398438 0.1875,-1.1835937 0.9257812,-1.265625 1.1835937,-1.265625 0.328125,0 0.984375,0.1757813 1.171875,1.1601563 0.09375,0.5625 0.09375,1.3125 0.09375,1.9453125 0,0.75 0,1.4179687 -0.1054687,2.0625 -0.1523438,0.93749997 -0.7148438,1.24218747 -1.160156,1.24218747 z m 0,0"
         style="fill:#000000;fill-opacity:1;fill-rule:nonzero;stroke:none" />
      <path
         id="path7"
         d="m 10.467109,-2.3191406 c 0.04687,-0.1171875 0.04687,-0.140625 0.04687,-0.1757813 0,-0.023437 0,-0.046875 -0.04687,-0.1640625 L 8.7210156,-7.2410156 c -0.058594,-0.1640625 -0.1171875,-0.234375 -0.2226562,-0.234375 -0.1171875,0 -0.1992188,0.09375 -0.1992188,0.1992187 0,0.035156 0,0.058594 0.046875,0.1640625 l 1.7578124,4.6171875 -1.7578124,4.6054688 c -0.046875,0.1171875 -0.046875,0.1289062 -0.046875,0.1875 0,0.1054687 0.082031,0.1992187 0.1992188,0.1992187 0.1289062,0 0.1640625,-0.1054687 0.2109375,-0.1992187 z m 0,0"
         style="fill:#000000;fill-opacity:1;fill-rule:nonzero;stroke:none" />
    </g>
    <path
       id="path8"
       d="M -8.50293,-7.38904 H 8.50294 V 7.38904 H -8.50293 Z"
       style="fill:#ffffff;fill-opacity:1;fill-rule:nonzero;stroke:#000000;stroke-width:0.79701;stroke-linecap:butt;stroke-linejoin:miter;stroke-miterlimit:10;stroke-dasharray:none;stroke-opacity:1"
       transform="matrix(1.3333333,0,0,-1.3333333,74.68,14.28)" />
    <path
       id="path9"
       d="M 4.8283125,-4.0905391 3.9962813,-6.0827266 c -0.035156,-0.070312 -0.046875,-0.1171875 -0.046875,-0.1289062 0,-0.058594 0.1640625,-0.2460938 0.5859375,-0.28125 0.09375,-0.011719 0.1992187,-0.023437 0.1992187,-0.1875 0,-0.1289063 -0.1171875,-0.1289063 -0.1523437,-0.1289063 -0.4101563,0 -0.8320313,0.035156 -1.2539063,0.035156 -0.2460937,0 -0.8671875,-0.035156 -1.1132812,-0.035156 -0.058594,0 -0.1875,0 -0.1875,0.1992188 0,0.1171875 0.1054687,0.1171875 0.234375,0.1171875 0.5976562,0 0.65625,0.09375 0.75,0.3164062 l 1.171875,2.7773438 -2.0976563,2.2617187 -0.1289062,0.1054688 c -0.4921875,0.52734374 -0.96093755,0.69140624 -1.4648438,0.72656249 -0.12890625,0 -0.22265625,0 -0.22265625,0.19921875 0,0 0,0.1054687475 0.12890625,0.1054687475 0.3046875,0 0.6328125,-0.0351562475 0.9375,-0.0351562475 0.3632813,0 0.7617188,0.0351562475 1.1132813,0.0351562475 0.058594,0 0.1757812,0 0.1757812,-0.1992187475 0,-0.10546875 -0.09375,-0.10546875 -0.1171875,-0.10546875 -0.082031,-0.0117188 -0.3984375,-0.0351563 -0.3984375,-0.31640625 0,-0.15234375 0.1523438,-0.31640625 0.2695313,-0.44531254 l 1.0195312,-1.078125 0.890625,-0.9726562 1.0078125,2.37890624 c 0.046875,0.10546875 0.046875,0.1171875 0.046875,0.140625 0,0.0820313 -0.1875,0.24609375 -0.5742187,0.29296875 -0.1054688,0 -0.1992188,0.0117188 -0.1992188,0.1875 0,0.1171874975 0.1171875,0.1171874975 0.1523438,0.1171874975 0.28125,0 0.9726562,-0.0351562475 1.2539062,-0.0351562475 0.2460938,0 0.8554688,0.0351562475 1.1015625,0.0351562475 0.070312,0 0.1992188,0 0.1992188,-0.1874999975 0,-0.1171875 -0.1054688,-0.1171875 -0.1875,-0.1171875 -0.6679688,-0.0117188 -0.6796875,-0.046875 -0.8554688,-0.4453125 C 5.8478438,-1.6764766 5.179875,-3.2233516 4.9455,-3.8210078 c 0.6796875,-0.703125 1.734375,-1.8867188 2.0507813,-2.1679688 0.28125,-0.234375 0.6679687,-0.4804687 1.265625,-0.5039062 0.1289062,-0.011719 0.2109375,-0.011719 0.2109375,-0.1992188 0,-0.011719 0,-0.1171875 -0.1289063,-0.1171875 -0.2929687,0 -0.6210937,0.035156 -0.9375,0.035156 -0.3632812,0 -0.7382812,-0.035156 -1.1015625,-0.035156 -0.058594,0 -0.1875,0 -0.1875,0.1992188 0,0.070312 0.046875,0.1054687 0.1171875,0.1171875 0.09375,0.011719 0.3984375,0.023437 0.3984375,0.3046875 0,0.140625 -0.1054687,0.2695312 -0.1875,0.3632812 z m 0,0"
       style="fill:#000000;fill-opacity:1;fill-rule:nonzero;stroke:none"
       aria-label="X"
       transform="matrix(1.3333333,0,0,1.3333333,68.656,18.817333)" />
    <g
       id="g9"
       aria-label="|1⟩"
       transform="matrix(1.3333333,0,0,1.3333333,129.43467,17.6)">
      <path
         id="path10"
         d="m 1.5812266,-7.1121094 c 0,-0.1757812 0,-0.3632812 -0.1992188,-0.3632812 -0.1992187,0 -0.1992187,0.1875 -0.1992187,0.3632812 v 9.2460938 c 0,0.1757812 0,0.3632812 0.1992187,0.3632812 0.1992188,0 0.1992188,-0.1875 0.1992188,-0.3632812 z m 0,0"
         style="fill:#000000;fill-opacity:1;fill-rule:nonzero;stroke:none" />
      <path
         id="path11"
         d="m 5.6974375,-6.3738281 c 0,-0.234375 0,-0.2578125 -0.234375,-0.2578125 -0.609375,0.6328125 -1.4882812,0.6328125 -1.8046875,0.6328125 v 0.3164062 c 0.1992188,0 0.7851563,0 1.3007813,-0.2578125 v 5.15625002 c 0,0.3515625 -0.035156,0.48046875 -0.9257813,0.48046875 H 3.7169688 v 0.3046875 C 4.0685313,-0.03398438 4.924,-0.03398438 5.3224375,-0.03398438 c 0.3984375,0 1.265625,0 1.6171875,0.03515625 v -0.3046875 H 6.6232188 c -0.9023438,0 -0.9257813,-0.1171875 -0.9257813,-0.48046875 z m 0,0"
         style="fill:#000000;fill-opacity:1;fill-rule:nonzero;stroke:none" />
      <path
         id="path12"
         d="m 10.466969,-2.3191406 c 0.04687,-0.1171875 0.04687,-0.140625 0.04687,-0.1757813 0,-0.023437 0,-0.046875 -0.04687,-0.1640625 L 8.720875,-7.2410156 c -0.058594,-0.1640625 -0.1171875,-0.234375 -0.2226562,-0.234375 -0.1171875,0 -0.1992188,0.09375 -0.1992188,0.1992187 0,0.035156 0,0.058594 0.046875,0.1640625 l 1.757813,4.6171875 -1.757813,4.6054688 C 8.299,2.2277344 8.299,2.2394531 8.299,2.2980469 c 0,0.1054687 0.082031,0.1992187 0.1992188,0.1992187 0.1289062,0 0.1640625,-0.1054687 0.2109375,-0.1992187 z m 0,0"
         style="fill:#000000;fill-opacity:1;fill-rule:nonzero;stroke:none" />
    </g>
  </g>
</svg>
