<?xml version="1.0" encoding="UTF-8" standalone="no"?>
<!-- Created with Inkscape (http://www.inkscape.org/) -->

<svg
   version="1.1"
   id="svg1"
   width="161.80338"
   height="20.766787"
   viewBox="0 0 161.80338 20.766786"
   xmlns="http://www.w3.org/2000/svg"
   xmlns:svg="http://www.w3.org/2000/svg">
  <defs
     id="defs1" />
  <g
     id="g1"
     transform="translate(-6.0078125,-3.8966069)">
    <path
       id="path1"
       d="M -38.9765,0 H -53.14989"
       style="fill:none;stroke:#000000;stroke-width:0.79701;stroke-linecap:round;stroke-linejoin:miter;stroke-miterlimit:10;stroke-dasharray:none;stroke-opacity:1"
       transform="matrix(1.3333333,0,0,-1.3333333,96.413333,14.28)" />
    <path
       id="path2"
       d="m -7.74188,0 h -14.1734"
       style="fill:none;stroke:#000000;stroke-width:0.79701;stroke-linecap:round;stroke-linejoin:miter;stroke-miterlimit:10;stroke-dasharray:none;stroke-opacity:1"
       transform="matrix(1.3333333,0,0,-1.3333333,96.413333,14.28)" />
    <path
       id="path3"
       d="M 21.91528,0 H 7.74188"
       style="fill:none;stroke:#000000;stroke-width:0.79701;stroke-linecap:round;stroke-linejoin:miter;stroke-miterlimit:10;stroke-dasharray:none;stroke-opacity:1"
       transform="matrix(1.3333333,0,0,-1.3333333,96.413333,14.28)" />
    <path
       id="path4"
       d="M 53.14989,0 H 38.9765"
       style="fill:none;stroke:#000000;stroke-width:0.79701;stroke-linecap:round;stroke-linejoin:miter;stroke-miterlimit:10;stroke-dasharray:none;stroke-opacity:1"
       transform="matrix(1.3333333,0,0,-1.3333333,96.413333,14.28)" />
    <g
       id="g4"
       aria-label="|0⟩"
       transform="matrix(1.3333333,0,0,1.3333333,4.428,17.6)">
      <path
         id="path5"
         d="m 1.5832969,-7.1121094 c 0,-0.1757812 0,-0.3632812 -0.1992188,-0.3632812 -0.1992187,0 -0.1992187,0.1875 -0.1992187,0.3632812 v 9.2460938 c 0,0.1757812 0,0.3632812 0.1992187,0.3632812 0.1992188,0 0.1992188,-0.1875 0.1992188,-0.3632812 z m 0,0"
         style="fill:#000000;fill-opacity:1;fill-rule:nonzero;stroke:none" />
      <path
         id="path6"
         d="m 7.3489219,-3.1863281 c 0,-0.796875 -0.046875,-1.59375 -0.3984375,-2.3320313 -0.4570313,-0.9609375 -1.2773438,-1.1132812 -1.6875,-1.1132812 -0.5976563,0 -1.3359375,0.2578125 -1.734375,1.1835937 -0.328125,0.6914063 -0.375,1.4648438 -0.375,2.2617188 0,0.75 0.046875,1.640625 0.4453125,2.40234372 0.4335937,0.80859375 1.1601562,1.0078125 1.6523437,1.0078125 0.5390625,0 1.2890625,-0.2109375 1.734375,-1.16015625 C 7.3020469,-1.6277344 7.3489219,-2.4011719 7.3489219,-3.1863281 Z M 5.2512656,0.00117187 c -0.3867187,0 -0.984375,-0.24609375 -1.1601562,-1.20703127 -0.1054688,-0.5976562 -0.1054688,-1.5117187 -0.1054688,-2.0976562 0,-0.6445313 0,-1.3007813 0.082031,-1.8398438 0.1875,-1.1835937 0.9257812,-1.265625 1.1835937,-1.265625 0.328125,0 0.984375,0.1757813 1.171875,1.1601563 0.09375,0.5625 0.09375,1.3125 0.09375,1.9453125 0,0.75 0,1.4179687 -0.1054687,2.0625 -0.1523438,0.93749997 -0.7148438,1.24218747 -1.160156,1.24218747 z m 0,0"
         style="fill:#000000;fill-opacity:1;fill-rule:nonzero;stroke:none" />
      <path
         id="path7"
         d="m 10.466109,-2.3191406 c 0.04687,-0.1171875 0.04687,-0.140625 0.04687,-0.1757813 0,-0.023437 0,-0.046875 -0.04687,-0.1640625 L 8.7200156,-7.2410156 c -0.058594,-0.1640625 -0.1171875,-0.234375 -0.2226562,-0.234375 -0.1171875,0 -0.1992188,0.09375 -0.1992188,0.1992187 0,0.035156 0,0.058594 0.046875,0.1640625 l 1.7578124,4.6171875 -1.7578124,4.6054688 c -0.046875,0.1171875 -0.046875,0.1289062 -0.046875,0.1875 0,0.1054687 0.082031,0.1992187 0.1992188,0.1992187 0.1289062,0 0.1640625,-0.1054687 0.2109375,-0.1992187 z m 0,0"
         style="fill:#000000;fill-opacity:1;fill-rule:nonzero;stroke:none" />
    </g>
    <path
       id="path8"
       d="m -38.9765,-7.38904 h 17.0612 V 7.38904 h -17.0612 z"
       style="fill:#ffffff;fill-opacity:1;fill-rule:nonzero;stroke:#000000;stroke-width:0.79701;stroke-linecap:butt;stroke-linejoin:miter;stroke-miterlimit:10;stroke-dasharray:none;stroke-opacity:1"
       transform="matrix(1.3333333,0,0,-1.3333333,96.413333,14.28)" />
    <path
       id="path9"
       d="m 7.6048281,-6.0358516 c 0.082031,-0.3632812 0.1054688,-0.4570312 0.8320313,-0.4570312 0.2578125,0 0.3398437,0 0.3398437,-0.1992188 0,-0.1171875 -0.1054687,-0.1171875 -0.140625,-0.1171875 -0.28125,0 -0.9960937,0.035156 -1.2773437,0.035156 -0.28125,0 -0.9960938,-0.035156 -1.2773438,-0.035156 -0.082031,0 -0.1992187,0 -0.1992187,0.1992188 0,0.1171875 0.09375,0.1171875 0.28125,0.1171875 0.023437,0 0.2109375,0 0.375,0.011719 0.1875,0.023437 0.2695312,0.035156 0.2695312,0.1640625 0,0.035156 0,0.058594 -0.035156,0.1875 l -0.5976563,2.4375 H 3.1399844 l 0.5859375,-2.34375 c 0.09375,-0.3632812 0.1171875,-0.4570312 0.8320312,-0.4570312 0.2578125,0 0.3398438,0 0.3398438,-0.1992188 0,-0.1171875 -0.1054688,-0.1171875 -0.140625,-0.1171875 -0.2695313,0 -0.9960938,0.035156 -1.265625,0.035156 -0.2929688,0 -0.9960938,-0.035156 -1.2890625,-0.035156 -0.082031,0 -0.1875,0 -0.1875,0.1992188 0,0.1171875 0.082031,0.1171875 0.28125,0.1171875 0.011719,0 0.1992187,0 0.375,0.011719 0.1757812,0.023437 0.2695312,0.035156 0.2695312,0.1640625 0,0.035156 -0.011719,0.070312 -0.046875,0.1875 l -1.3359375,5.35546879 c -0.09375,0.38671875 -0.1171875,0.46875 -0.90234372,0.46875 -0.17578125,0 -0.26953125,0 -0.26953125,0.19921875 0,0.1054687475 0.1171875,0.1054687475 0.140625,0.1054687475 0.28125,0 0.98437497,-0.0351562475 1.26562497,-0.0351562475 0.2109375,0 0.4335938,0.01171875 0.6328125,0.01171875 0.2226563,0 0.4453125,0.0234374975 0.65625,0.0234374975 0.070312,0 0.1992188,0 0.1992188,-0.1992187475 0,-0.10546875 -0.09375,-0.10546875 -0.28125,-0.10546875 -0.375,0 -0.6445313,0 -0.6445313,-0.1875 0,-0.0585938 0.011719,-0.10546875 0.023437,-0.1640625 l 0.679688,-2.73046939 h 3.0351563 c -0.4101563,1.6523438 -0.6445313,2.60156254 -0.6796875,2.75390629 -0.1054688,0.31640625 -0.2929688,0.328125 -0.9140625,0.328125 -0.1523438,0 -0.234375,0 -0.234375,0.19921875 0,0.1054687475 0.1171875,0.1054687475 0.140625,0.1054687475 0.28125,0 0.984375,-0.0351562475 1.265625,-0.0351562475 0.2109375,0 0.421875,0.01171875 0.6328125,0.01171875 0.2226562,0 0.4335937,0.0234374975 0.6445312,0.0234374975 0.082031,0 0.1992188,0 0.1992188,-0.1992187475 0,-0.10546875 -0.082031,-0.10546875 -0.2695313,-0.10546875 -0.375,0 -0.65625,0 -0.65625,-0.1875 0,-0.0585938 0.023437,-0.10546875 0.035156,-0.1640625 z m 0,0"
       style="fill:#000000;fill-opacity:1;fill-rule:nonzero;stroke:none"
       aria-label="H"
       transform="matrix(1.3333333,0,0,1.3333333,49.758667,18.817333)" />
    <path
       id="path10"
       d="M -7.74188,-7.38904 H 7.7419 V 7.38904 H -7.74188 Z"
       style="fill:#ffffff;fill-opacity:1;fill-rule:nonzero;stroke:#000000;stroke-width:0.79701;stroke-linecap:butt;stroke-linejoin:miter;stroke-miterlimit:10;stroke-dasharray:none;stroke-opacity:1"
       transform="matrix(1.3333333,0,0,-1.3333333,96.413333,14.28)" />
    <path
       id="path11"
       d="m 7.1706328,-6.5631953 c 0.011719,-0.046875 0.035156,-0.09375 0.035156,-0.1523438 0,-0.09375 -0.058594,-0.09375 -0.2578125,-0.09375 H 2.7526641 c -0.2460938,0 -0.2578125,0.011719 -0.3164063,0.1992188 l -0.5390625,1.7929687 c -0.023437,0.058594 -0.035156,0.1289063 -0.035156,0.140625 0,0.011719 0,0.1171875 0.1171875,0.1171875 0.09375,0 0.1171875,-0.070312 0.1289062,-0.1054687 0.3867188,-1.171875 0.9023438,-1.828125 2.4492188,-1.828125 H 6.186258 l -5.56640624,6.22265624 c 0,0.0117188 -0.046875,0.15234375 -0.046875,0.17578125 0,0.0937499975 0.0703125,0.0937499975 0.2578125,0.0937499975 H 5.1550078 c 0.2460938,0 0.2578125,-0.0117187475 0.3164063,-0.1992187475 l 0.703125,-2.20312504 c 0.011719,-0.035156 0.035156,-0.1054687 0.035156,-0.1523437 0,-0.046875 -0.035156,-0.1054688 -0.1289062,-0.1054688 -0.082031,0 -0.09375,0.035156 -0.1640625,0.2460938 -0.4335938,1.359375 -0.9140625,2.07421874 -2.6132813,2.07421874 H 1.6042266 Z m 0,0"
       style="fill:#000000;fill-opacity:1;fill-rule:nonzero;stroke:none"
       aria-label="Z"
       transform="matrix(1.3333333,0,0,1.3333333,91.404,18.817333)" />
    <path
       id="path12"
       d="m 21.91528,-7.38904 h 17.0612 V 7.38904 h -17.0612 z"
       style="fill:#ffffff;fill-opacity:1;fill-rule:nonzero;stroke:#000000;stroke-width:0.79701;stroke-linecap:butt;stroke-linejoin:miter;stroke-miterlimit:10;stroke-dasharray:none;stroke-opacity:1"
       transform="matrix(1.3333333,0,0,-1.3333333,96.413333,14.28)" />
    <path
       id="path13"
       d="m 7.6044531,-6.0358516 c 0.082031,-0.3632812 0.1054688,-0.4570312 0.8320313,-0.4570312 0.2578125,0 0.3398437,0 0.3398437,-0.1992188 0,-0.1171875 -0.1054687,-0.1171875 -0.140625,-0.1171875 -0.28125,0 -0.9960937,0.035156 -1.2773437,0.035156 -0.28125,0 -0.9960938,-0.035156 -1.2773438,-0.035156 -0.082031,0 -0.1992187,0 -0.1992187,0.1992188 0,0.1171875 0.09375,0.1171875 0.28125,0.1171875 0.023437,0 0.2109375,0 0.375,0.011719 0.1875,0.023437 0.2695312,0.035156 0.2695312,0.1640625 0,0.035156 0,0.058594 -0.035156,0.1875 l -0.5976563,2.4375 H 3.1396094 l 0.5859375,-2.34375 c 0.09375,-0.3632812 0.1171875,-0.4570312 0.8320312,-0.4570312 0.2578125,0 0.3398438,0 0.3398438,-0.1992188 0,-0.1171875 -0.1054688,-0.1171875 -0.140625,-0.1171875 -0.2695313,0 -0.9960938,0.035156 -1.265625,0.035156 -0.2929688,0 -0.9960938,-0.035156 -1.2890625,-0.035156 -0.082031,0 -0.1875,0 -0.1875,0.1992188 0,0.1171875 0.082031,0.1171875 0.28125,0.1171875 0.011719,0 0.1992187,0 0.375,0.011719 0.1757812,0.023437 0.2695312,0.035156 0.2695312,0.1640625 0,0.035156 -0.011719,0.070312 -0.046875,0.1875 l -1.3359375,5.35546879 c -0.09375,0.38671875 -0.1171875,0.46875 -0.90234372,0.46875 -0.17578125,0 -0.26953125,0 -0.26953125,0.19921875 0,0.1054687475 0.1171875,0.1054687475 0.140625,0.1054687475 0.28125,0 0.98437497,-0.0351562475 1.26562497,-0.0351562475 0.2109375,0 0.4335938,0.01171875 0.6328125,0.01171875 0.2226563,0 0.4453125,0.0234374975 0.65625,0.0234374975 0.070312,0 0.1992188,0 0.1992188,-0.1992187475 0,-0.10546875 -0.09375,-0.10546875 -0.28125,-0.10546875 -0.375,0 -0.6445313,0 -0.6445313,-0.1875 0,-0.0585938 0.011719,-0.10546875 0.023437,-0.1640625 l 0.679688,-2.73046939 h 3.0351563 c -0.4101563,1.6523438 -0.6445313,2.60156254 -0.6796875,2.75390629 -0.1054688,0.31640625 -0.2929688,0.328125 -0.9140625,0.328125 -0.1523438,0 -0.234375,0 -0.234375,0.19921875 0,0.1054687475 0.1171875,0.1054687475 0.140625,0.1054687475 0.28125,0 0.984375,-0.0351562475 1.265625,-0.0351562475 0.2109375,0 0.421875,0.01171875 0.6328125,0.01171875 0.2226562,0 0.4335937,0.0234374975 0.6445312,0.0234374975 0.082031,0 0.1992188,0 0.1992188,-0.1992187475 0,-0.10546875 -0.082031,-0.10546875 -0.2695313,-0.10546875 -0.375,0 -0.65625,0 -0.65625,-0.1875 0,-0.0585938 0.023437,-0.10546875 0.035156,-0.1640625 z m 0,0"
       style="fill:#000000;fill-opacity:1;fill-rule:nonzero;stroke:none"
       aria-label="H"
       transform="matrix(1.3333333,0,0,1.3333333,130.94667,18.817333)" />
  </g>
</svg>
