<?xml version="1.0" encoding="UTF-8" standalone="no"?>
<!-- Created with Inkscape (http://www.inkscape.org/) -->

<svg
   version="1.1"
   id="svg1"
   width="141.21092"
   height="20.766787"
   viewBox="0 0 141.21092 20.766786"
   xmlns="http://www.w3.org/2000/svg"
   xmlns:svg="http://www.w3.org/2000/svg">
  <defs
     id="defs1" />
  <g
     id="g1"
     transform="translate(-6.0078125,-3.8966069)">
    <path
       id="path1"
       d="M -22.704,0 H -36.8774"
       style="fill:none;stroke:#000000;stroke-width:0.79701;stroke-linecap:round;stroke-linejoin:miter;stroke-miterlimit:10;stroke-dasharray:none;stroke-opacity:1"
       transform="matrix(1.3333333,0,0,-1.3333333,74.717333,14.28)" />
    <path
       id="path2"
       d="M -8.5306,0 H -22.704"
       style="fill:none;stroke:#000000;stroke-width:0.79701;stroke-linecap:round;stroke-linejoin:miter;stroke-miterlimit:10;stroke-dasharray:none;stroke-opacity:1"
       transform="matrix(1.3333333,0,0,-1.3333333,74.717333,14.28)" />
    <path
       id="path3"
       d="M 22.704,0 H 8.5306"
       style="fill:none;stroke:#000000;stroke-width:0.79701;stroke-linecap:round;stroke-linejoin:miter;stroke-miterlimit:10;stroke-dasharray:none;stroke-opacity:1"
       transform="matrix(1.3333333,0,0,-1.3333333,74.717333,14.28)" />
    <path
       id="path4"
       d="M 36.8774,0 H 22.704"
       style="fill:none;stroke:#000000;stroke-width:0.79701;stroke-linecap:round;stroke-linejoin:miter;stroke-miterlimit:10;stroke-dasharray:none;stroke-opacity:1"
       transform="matrix(1.3333333,0,0,-1.3333333,74.717333,14.28)" />
    <g
       id="g4"
       aria-label="|0⟩"
       transform="matrix(1.3333333,0,0,1.3333333,4.428,17.6)">
      <path
         id="path5"
         d="m 1.5832969,-7.1121094 c 0,-0.1757812 0,-0.3632812 -0.1992188,-0.3632812 -0.1992187,0 -0.1992187,0.1875 -0.1992187,0.3632812 v 9.2460938 c 0,0.1757812 0,0.3632812 0.1992187,0.3632812 0.1992188,0 0.1992188,-0.1875 0.1992188,-0.3632812 z m 0,0"
         style="fill:#000000;fill-opacity:1;fill-rule:nonzero;stroke:none" />
      <path
         id="path6"
         d="m 7.3489219,-3.1863281 c 0,-0.796875 -0.046875,-1.59375 -0.3984375,-2.3320313 -0.4570313,-0.9609375 -1.2773438,-1.1132812 -1.6875,-1.1132812 -0.5976563,0 -1.3359375,0.2578125 -1.734375,1.1835937 -0.328125,0.6914063 -0.375,1.4648438 -0.375,2.2617188 0,0.75 0.046875,1.640625 0.4453125,2.40234372 0.4335937,0.80859375 1.1601562,1.0078125 1.6523437,1.0078125 0.5390625,0 1.2890625,-0.2109375 1.734375,-1.16015625 C 7.3020469,-1.6277344 7.3489219,-2.4011719 7.3489219,-3.1863281 Z M 5.2512656,0.00117187 c -0.3867187,0 -0.984375,-0.24609375 -1.1601562,-1.20703127 -0.1054688,-0.5976562 -0.1054688,-1.5117187 -0.1054688,-2.0976562 0,-0.6445313 0,-1.3007813 0.082031,-1.8398438 0.1875,-1.1835937 0.9257812,-1.265625 1.1835937,-1.265625 0.328125,0 0.984375,0.1757813 1.171875,1.1601563 0.09375,0.5625 0.09375,1.3125 0.09375,1.9453125 0,0.75 0,1.4179687 -0.1054687,2.0625 -0.1523438,0.93749997 -0.7148438,1.24218747 -1.160156,1.24218747 z m 0,0"
         style="fill:#000000;fill-opacity:1;fill-rule:nonzero;stroke:none" />
      <path
         id="path7"
         d="m 10.466109,-2.3191406 c 0.04687,-0.1171875 0.04687,-0.140625 0.04687,-0.1757813 0,-0.023437 0,-0.046875 -0.04687,-0.1640625 L 8.7200156,-7.2410156 c -0.058594,-0.1640625 -0.1171875,-0.234375 -0.2226562,-0.234375 -0.1171875,0 -0.1992188,0.09375 -0.1992188,0.1992187 0,0.035156 0,0.058594 0.046875,0.1640625 l 1.7578124,4.6171875 -1.7578124,4.6054688 c -0.046875,0.1171875 -0.046875,0.1289062 -0.046875,0.1875 0,0.1054687 0.082031,0.1992187 0.1992188,0.1992187 0.1289062,0 0.1640625,-0.1054687 0.2109375,-0.1992187 z m 0,0"
         style="fill:#000000;fill-opacity:1;fill-rule:nonzero;stroke:none" />
    </g>
    <path
       id="path8"
       d="M -8.5306,-7.38904 H 8.5306 V 7.38904 H -8.5306 Z"
       style="fill:#ffffff;fill-opacity:1;fill-rule:nonzero;stroke:#000000;stroke-width:0.79701;stroke-linecap:butt;stroke-linejoin:miter;stroke-miterlimit:10;stroke-dasharray:none;stroke-opacity:1"
       transform="matrix(1.3333333,0,0,-1.3333333,74.717333,14.28)" />
    <path
       id="path9"
       d="m 7.6056563,-6.0358516 c 0.082031,-0.3632812 0.1054687,-0.4570312 0.8320312,-0.4570312 0.2578125,0 0.3398438,0 0.3398438,-0.1992188 0,-0.1171875 -0.1054688,-0.1171875 -0.140625,-0.1171875 -0.28125,0 -0.9960938,0.035156 -1.2773438,0.035156 -0.28125,0 -0.9960937,-0.035156 -1.2773437,-0.035156 -0.082031,0 -0.1992188,0 -0.1992188,0.1992188 0,0.1171875 0.09375,0.1171875 0.28125,0.1171875 0.023437,0 0.2109375,0 0.375,0.011719 0.1875,0.023437 0.2695313,0.035156 0.2695313,0.1640625 0,0.035156 0,0.058594 -0.035156,0.1875 l -0.5976562,2.4375 H 3.1408125 l 0.5859375,-2.34375 c 0.09375,-0.3632812 0.1171875,-0.4570312 0.8320313,-0.4570312 0.2578125,0 0.3398437,0 0.3398437,-0.1992188 0,-0.1171875 -0.1054687,-0.1171875 -0.140625,-0.1171875 -0.2695312,0 -0.9960937,0.035156 -1.265625,0.035156 -0.2929687,0 -0.9960937,-0.035156 -1.2890625,-0.035156 -0.082031,0 -0.1875,0 -0.1875,0.1992188 0,0.1171875 0.082031,0.1171875 0.28125,0.1171875 0.011719,0 0.1992188,0 0.375,0.011719 0.1757813,0.023437 0.2695313,0.035156 0.2695313,0.1640625 0,0.035156 -0.011719,0.070312 -0.046875,0.1875 l -1.3359375,5.35546879 c -0.09375,0.38671875 -0.1171875,0.46875 -0.9023438,0.46875 -0.17578125,0 -0.26953125,0 -0.26953125,0.19921875 0,0.1054687475 0.1171875,0.1054687475 0.140625,0.1054687475 0.28125,0 0.98437505,-0.0351562475 1.26562505,-0.0351562475 0.2109375,0 0.4335937,0.01171875 0.6328125,0.01171875 0.2226562,0 0.4453125,0.0234374975 0.65625,0.0234374975 0.070312,0 0.1992187,0 0.1992187,-0.1992187475 0,-0.10546875 -0.09375,-0.10546875 -0.28125,-0.10546875 -0.375,0 -0.6445312,0 -0.6445312,-0.1875 0,-0.0585938 0.011719,-0.10546875 0.023437,-0.1640625 l 0.679688,-2.73046939 h 3.0351562 c -0.4101562,1.6523438 -0.6445312,2.60156254 -0.6796875,2.75390629 -0.1054687,0.31640625 -0.2929687,0.328125 -0.9140625,0.328125 -0.1523437,0 -0.234375,0 -0.234375,0.19921875 0,0.1054687475 0.1171875,0.1054687475 0.140625,0.1054687475 0.28125,0 0.984375,-0.0351562475 1.265625,-0.0351562475 0.2109375,0 0.421875,0.01171875 0.6328125,0.01171875 0.2226563,0 0.4335938,0.0234374975 0.6445313,0.0234374975 0.082031,0 0.1992187,0 0.1992187,-0.1992187475 0,-0.10546875 -0.082031,-0.10546875 -0.2695312,-0.10546875 -0.375,0 -0.65625,0 -0.65625,-0.1875 0,-0.0585938 0.023437,-0.10546875 0.035156,-0.1640625 z m 0,0"
       style="fill:#000000;fill-opacity:1;fill-rule:nonzero;stroke:none"
       aria-label="H"
       transform="matrix(1.3333333,0,0,1.3333333,68.656,18.817333)" />
    <g
       id="g9"
       aria-label="|+⟩"
       transform="matrix(1.3333333,0,0,1.3333333,129.50933,17.6)">
      <path
         id="path10"
         d="m 1.5808906,-7.1121094 c 0,-0.1757812 0,-0.3632812 -0.1992187,-0.3632812 -0.1992188,0 -0.1992188,0.1875 -0.1992188,0.3632812 v 9.2460938 c 0,0.1757812 0,0.3632812 0.1992188,0.3632812 0.1992187,0 0.1992187,-0.1875 0.1992187,-0.3632812 z m 0,0"
         style="fill:#000000;fill-opacity:1;fill-rule:nonzero;stroke:none" />
      <path
         id="path11"
         d="m 6.8455391,-2.2957031 h 2.7773437 c 0.140625,0 0.328125,0 0.328125,-0.1992188 0,-0.1992187 -0.1875,-0.1992187 -0.328125,-0.1992187 H 6.8455391 v -2.7890625 c 0,-0.1289063 0,-0.328125 -0.1992188,-0.328125 -0.1992187,0 -0.1992187,0.1992187 -0.1992187,0.328125 v 2.7890625 H 3.6580391 c -0.140625,0 -0.328125,0 -0.328125,0.1992187 0,0.1992188 0.1875,0.1992188 0.328125,0.1992188 h 2.7890625 v 2.80078122 c 0,0.12890625 0,0.328125 0.1992187,0.328125 0.1992188,0 0.1992188,-0.19921875 0.1992188,-0.328125 z m 0,0"
         style="fill:#000000;fill-opacity:1;fill-rule:nonzero;stroke:none" />
      <path
         id="path12"
         d="m 13.235187,-2.3191406 c 0.04687,-0.1171875 0.04687,-0.140625 0.04687,-0.1757813 0,-0.023437 0,-0.046875 -0.04687,-0.1640625 l -1.746093,-4.5820312 c -0.05859,-0.1640625 -0.117188,-0.234375 -0.222657,-0.234375 -0.117187,0 -0.199218,0.09375 -0.199218,0.1992187 0,0.035156 0,0.058594 0.04687,0.1640625 l 1.757812,4.6171875 -1.757812,4.6054688 c -0.04687,0.1171875 -0.04687,0.1289062 -0.04687,0.1875 0,0.1054687 0.08203,0.1992187 0.199218,0.1992187 0.128907,0 0.164063,-0.1054687 0.210938,-0.1992187 z m 0,0"
         style="fill:#000000;fill-opacity:1;fill-rule:nonzero;stroke:none" />
    </g>
  </g>
</svg>
