<?xml version="1.0" encoding="UTF-8" standalone="no"?>
<!-- Created with Inkscape (http://www.inkscape.org/) -->

<svg
   version="1.1"
   id="svg1"
   width="142.80078"
   height="20.766787"
   viewBox="0 0 142.80078 20.766786"
   xmlns="http://www.w3.org/2000/svg"
   xmlns:svg="http://www.w3.org/2000/svg">
  <defs
     id="defs1" />
  <g
     id="g1"
     transform="translate(-6.0039063,-3.8966069)">
    <path
       id="path1"
       d="m -21.91528,0 h -14.1734"
       style="fill:none;stroke:#000000;stroke-width:0.79701;stroke-linecap:round;stroke-linejoin:miter;stroke-miterlimit:10;stroke-dasharray:none;stroke-opacity:1"
       transform="matrix(1.3333333,0,0,-1.3333333,77.354667,14.28)" />
    <path
       id="path2"
       d="m -7.74188,0 h -14.1734"
       style="fill:none;stroke:#000000;stroke-width:0.79701;stroke-linecap:round;stroke-linejoin:miter;stroke-miterlimit:10;stroke-dasharray:none;stroke-opacity:1"
       transform="matrix(1.3333333,0,0,-1.3333333,77.354667,14.28)" />
    <path
       id="path3"
       d="M 21.91528,0 H 7.74188"
       style="fill:none;stroke:#000000;stroke-width:0.79701;stroke-linecap:round;stroke-linejoin:miter;stroke-miterlimit:10;stroke-dasharray:none;stroke-opacity:1"
       transform="matrix(1.3333333,0,0,-1.3333333,77.354667,14.28)" />
    <path
       id="path4"
       d="M 36.08868,0 H 21.91528"
       style="fill:none;stroke:#000000;stroke-width:0.79701;stroke-linecap:round;stroke-linejoin:miter;stroke-miterlimit:10;stroke-dasharray:none;stroke-opacity:1"
       transform="matrix(1.3333333,0,0,-1.3333333,77.354667,14.28)" />
    <g
       id="g4"
       aria-label="|+⟩"
       transform="matrix(1.3333333,0,0,1.3333333,4.4266667,17.6)">
      <path
         id="path5"
         d="m 1.5813672,-7.1121094 c 0,-0.1757812 0,-0.3632812 -0.1992188,-0.3632812 -0.1992187,0 -0.1992187,0.1875 -0.1992187,0.3632812 v 9.2460938 c 0,0.1757812 0,0.3632812 0.1992187,0.3632812 0.1992188,0 0.1992188,-0.1875 0.1992188,-0.3632812 z m 0,0"
         style="fill:#000000;fill-opacity:1;fill-rule:nonzero;stroke:none" />
      <path
         id="path6"
         d="m 6.8460156,-2.2957031 h 2.7773438 c 0.140625,0 0.328125,0 0.328125,-0.1992188 0,-0.1992187 -0.1875,-0.1992187 -0.328125,-0.1992187 H 6.8460156 v -2.7890625 c 0,-0.1289063 0,-0.328125 -0.1992187,-0.328125 -0.1992188,0 -0.1992188,0.1992187 -0.1992188,0.328125 v 2.7890625 H 3.6585156 c -0.140625,0 -0.328125,0 -0.328125,0.1992187 0,0.1992188 0.1875,0.1992188 0.328125,0.1992188 h 2.7890625 v 2.80078122 c 0,0.12890625 0,0.328125 0.1992188,0.328125 0.1992187,0 0.1992187,-0.19921875 0.1992187,-0.328125 z m 0,0"
         style="fill:#000000;fill-opacity:1;fill-rule:nonzero;stroke:none" />
      <path
         id="path7"
         d="m 13.235664,-2.3191406 c 0.04687,-0.1171875 0.04687,-0.140625 0.04687,-0.1757813 0,-0.023437 0,-0.046875 -0.04687,-0.1640625 L 11.48957,-7.2410156 c -0.05859,-0.1640625 -0.117187,-0.234375 -0.222656,-0.234375 -0.117187,0 -0.199219,0.09375 -0.199219,0.1992187 0,0.035156 0,0.058594 0.04687,0.1640625 l 1.757813,4.6171875 -1.757813,4.6054688 c -0.04687,0.1171875 -0.04687,0.1289062 -0.04687,0.1875 0,0.1054687 0.08203,0.1992187 0.199219,0.1992187 0.128906,0 0.164063,-0.1054687 0.210938,-0.1992187 z m 0,0"
         style="fill:#000000;fill-opacity:1;fill-rule:nonzero;stroke:none" />
    </g>
    <path
       id="path8"
       d="M -7.74188,-7.38904 H 7.7419 V 7.38904 H -7.74188 Z"
       style="fill:#ffffff;fill-opacity:1;fill-rule:nonzero;stroke:#000000;stroke-width:0.79701;stroke-linecap:butt;stroke-linejoin:miter;stroke-miterlimit:10;stroke-dasharray:none;stroke-opacity:1"
       transform="matrix(1.3333333,0,0,-1.3333333,77.354667,14.28)" />
    <path
       id="path9"
       d="m 7.1726172,-6.5631953 c 0.011719,-0.046875 0.035156,-0.09375 0.035156,-0.1523438 0,-0.09375 -0.058594,-0.09375 -0.2578125,-0.09375 H 2.7546484 c -0.2460937,0 -0.2578125,0.011719 -0.3164062,0.1992188 l -0.5390625,1.7929687 c -0.023437,0.058594 -0.035156,0.1289063 -0.035156,0.140625 0,0.011719 0,0.1171875 0.1171875,0.1171875 0.09375,0 0.1171875,-0.070312 0.1289063,-0.1054687 0.3867187,-1.171875 0.9023437,-1.828125 2.4492187,-1.828125 h 1.6289063 l -5.56640626,6.22265624 c 0,0.0117188 -0.046875,0.15234375 -0.046875,0.17578125 0,0.0937499975 0.0703125,0.0937499975 0.2578125,0.0937499975 H 5.1569922 c 0.2460937,0 0.2578125,-0.0117187475 0.3164062,-0.1992187475 l 0.703125,-2.20312504 c 0.011719,-0.035156 0.035156,-0.1054687 0.035156,-0.1523437 0,-0.046875 -0.035156,-0.1054688 -0.1289063,-0.1054688 -0.082031,0 -0.09375,0.035156 -0.1640625,0.2460938 -0.4335937,1.359375 -0.9140625,2.07421874 -2.6132812,2.07421874 H 1.6062109 Z m 0,0"
       style="fill:#000000;fill-opacity:1;fill-rule:nonzero;stroke:none"
       aria-label="Z"
       transform="matrix(1.3333333,0,0,1.3333333,72.346667,18.817333)" />
    <path
       id="path10"
       d="m 1.5832734,-7.1121094 c 0,-0.1757812 0,-0.3632812 -0.1992187,-0.3632812 -0.1992188,0 -0.1992188,0.1875 -0.1992188,0.3632812 v 9.2460938 c 0,0.1757812 0,0.3632812 0.1992188,0.3632812 0.1992187,0 0.1992187,-0.1875 0.1992187,-0.3632812 z m 7.7460938,4.8164063 c 0.1757812,0 0.3515625,0 0.3515625,-0.1992188 0,-0.1992187 -0.1757813,-0.1992187 -0.3515625,-0.1992187 h -5.390625 c -0.1640625,0 -0.3398438,0 -0.3398438,0.1992187 0,0.1992188 0.1757813,0.1992188 0.3398438,0.1992188 z m 3.9052738,-0.023437 c 0.04687,-0.1171875 0.04687,-0.140625 0.04687,-0.1757813 0,-0.023437 0,-0.046875 -0.04687,-0.1640625 l -1.746094,-4.5820312 c -0.05859,-0.1640625 -0.117188,-0.234375 -0.222656,-0.234375 -0.117188,0 -0.199219,0.09375 -0.199219,0.1992187 0,0.035156 0,0.058594 0.04687,0.1640625 l 1.757812,4.6171875 -1.757812,4.6054688 c -0.04687,0.1171875 -0.04687,0.1289062 -0.04687,0.1875 0,0.1054687 0.08203,0.1992187 0.199219,0.1992187 0.128906,0 0.164062,-0.1054687 0.210937,-0.1992187 z m 0,0"
       style="fill:#000000;fill-opacity:1;fill-rule:nonzero;stroke:none"
       aria-label="|−⟩"
       transform="matrix(1.3333333,0,0,1.3333333,131.096,17.6)" />
  </g>
</svg>
