<?xml version="1.0" encoding="UTF-8" standalone="no"?>
<!-- Created with Inkscape (http://www.inkscape.org/) -->

<svg
   version="1.1"
   id="svg1"
   width="64.514381"
   height="63.353771"
   viewBox="0 0 64.514381 63.353771"
   xmlns="http://www.w3.org/2000/svg"
   xmlns:svg="http://www.w3.org/2000/svg">
  <defs
     id="defs1" />
  <g
     id="g1"
     transform="translate(-3.8961405,-3.8964738)">
    <path
       id="path1"
       d="m -9.62099,15.22292 h -14.1734"
       style="fill:none;stroke:#000000;stroke-width:0.79701;stroke-linecap:round;stroke-linejoin:miter;stroke-miterlimit:10;stroke-dasharray:none;stroke-opacity:1"
       transform="matrix(1.3333333,0,0,-1.3333333,36.153333,35.573333)" />
    <path
       id="path2"
       d="M 23.79439,15.22292 H 9.62099"
       style="fill:none;stroke:#000000;stroke-width:0.79701;stroke-linecap:round;stroke-linejoin:miter;stroke-miterlimit:10;stroke-dasharray:none;stroke-opacity:1"
       transform="matrix(1.3333333,0,0,-1.3333333,36.153333,35.573333)" />
    <path
       id="path3"
       d="m -9.62099,-15.22293 h -14.1734"
       style="fill:none;stroke:#000000;stroke-width:0.79701;stroke-linecap:round;stroke-linejoin:miter;stroke-miterlimit:10;stroke-dasharray:none;stroke-opacity:1"
       transform="matrix(1.3333333,0,0,-1.3333333,36.153333,35.573333)" />
    <path
       id="path4"
       d="m -9.62099,-15.22293 h -14.1734"
       style="fill:none;stroke:#000000;stroke-width:0.79701;stroke-linecap:round;stroke-linejoin:miter;stroke-miterlimit:10;stroke-dasharray:none;stroke-opacity:1"
       transform="matrix(1.3333333,0,0,-1.3333333,36.153333,35.573333)" />
    <path
       id="path5"
       d="M 23.79439,-15.22293 H 9.62099"
       style="fill:none;stroke:#000000;stroke-width:0.79701;stroke-linecap:round;stroke-linejoin:miter;stroke-miterlimit:10;stroke-dasharray:none;stroke-opacity:1"
       transform="matrix(1.3333333,0,0,-1.3333333,36.153333,35.573333)" />
    <path
       id="path6"
       d="M -9.62099,-23.35918 H 9.621 V 23.35914 H -9.62099 Z"
       style="fill:#ffffff;fill-opacity:1;fill-rule:nonzero;stroke:#000000;stroke-width:0.79701;stroke-linecap:butt;stroke-linejoin:miter;stroke-miterlimit:10;stroke-dasharray:none;stroke-opacity:1"
       transform="matrix(1.3333333,0,0,-1.3333333,36.153333,35.573333)" />
    <g
       id="g6"
       aria-label="U&#10;4"
       transform="matrix(1.3333333,0,0,1.3333333,28.638667,39.114667)">
      <path
         id="path7"
         d="m 6.3266641,-5.7549453 c 0.09375,-0.4101563 0.28125,-0.7148438 1.078125,-0.7382813 0.046875,0 0.1640625,-0.011719 0.1640625,-0.1992187 0,-0.011719 0,-0.1171875 -0.1289063,-0.1171875 -0.328125,0 -0.6796875,0.035156 -1.0195312,0.035156 -0.3398438,0 -0.703125,-0.035156 -1.03125,-0.035156 -0.058594,0 -0.1757813,0 -0.1757813,0.1992187 0,0.1171875 0.09375,0.1171875 0.1757813,0.1171875 0.5625,0.011719 0.6796875,0.2109375 0.6796875,0.4335938 0,0.035156 -0.023437,0.1757812 -0.035156,0.2109375 l -0.890625,3.5507812 c -0.3398437,1.33593754 -1.4882812,2.20312504 -2.484375,2.20312504 -0.6796875,0 -1.21875,-0.43359375 -1.21875,-1.28906254 0,-0.023437 0,-0.3398437 0.1171875,-0.7734375 l 0.9609375,-3.8789062 c 0.09375,-0.3632813 0.1054688,-0.4570313 0.8320313,-0.4570313 0.2695312,0 0.3398437,0 0.3398437,-0.1992187 0,-0.1171875 -0.1054687,-0.1171875 -0.140625,-0.1171875 -0.2695312,0 -0.9960937,0.035156 -1.265625,0.035156 -0.2929687,0 -0.9960937,-0.035156 -1.28906249,-0.035156 -0.0820313,0 -0.1875,0 -0.1875,0.1992187 0,0.1171875 0.09375,0.1171875 0.28124999,0.1171875 0.011719,0 0.2109375,0 0.375,0.011719 0.1757813,0.023437 0.2695313,0.035156 0.2695313,0.1640625 0,0.058594 -0.1054688,0.4804687 -0.1757813,0.703125 l -0.2109375,0.8789062 c -0.09375,0.3867188 -0.57421874,2.2734375 -0.60937499,2.4609375 -0.0703125,0.28125 -0.0703125,0.4335938 -0.0703125,0.5742188 0,1.21874999 0.90234379,1.92187499 1.95703129,1.92187499 1.2539062,0 2.484375,-1.125 2.8125,-2.44921879 z m 0,0"
         style="fill:#000000;fill-opacity:1;fill-rule:nonzero;stroke:none" />
      <path
         id="path8"
         d="M 10.49268,0.34759375 V 0.1015 H 9.7192422 v -3.1054687 c 0,-0.1523438 0,-0.1992188 -0.1523438,-0.1992188 -0.09375,0 -0.1171875,0 -0.1875,0.09375 L 7.0708047,0.1015 V 0.34759375 H 9.1215859 V 0.9218125 c 0,0.234375 0,0.328125 -0.5625,0.328125 h -0.1875 v 0.2460938 c 0.3515625,-0.011719 0.796875,-0.023437 1.0429688,-0.023437 0.2578125,0 0.7031253,0.011719 1.0546873,0.023437 V 1.2499375 h -0.1875 c -0.5624998,0 -0.5624998,-0.09375 -0.5624998,-0.328125 V 0.34759375 Z M 9.1684609,-2.4531875 V 0.1015 H 7.3286172 Z m 0,0"
         style="fill:#000000;fill-opacity:1;fill-rule:nonzero;stroke:none" />
    </g>
  </g>
</svg>
