<?xml version="1.0" encoding="UTF-8" standalone="no"?>
<!-- Created with Inkscape (http://www.inkscape.org/) -->

<svg
   version="1.1"
   id="svg1"
   width="77.760788"
   height="44.952988"
   viewBox="0 0 77.760788 44.952987"
   xmlns="http://www.w3.org/2000/svg"
   xmlns:svg="http://www.w3.org/2000/svg">
  <defs
     id="defs1">
    <clipPath
       clipPathUnits="userSpaceOnUse"
       id="clipPath8">
      <path
         d="M 4.22711,0 C 4.22711,2.3346 2.3346,4.22711 0,4.22711 -2.3346,4.22711 -4.22711,2.3346 -4.22711,0 c 0,-2.3346 1.89251,-4.22711 4.22711,-4.22711 2.3346,0 4.22711,1.89251 4.22711,4.22711 z"
         id="path8" />
    </clipPath>
    <clipPath
       clipPathUnits="userSpaceOnUse"
       id="clipPath12">
      <path
         d="M 8.83623,-16.658 H 28.76178 V -1.71385 H 8.83623 Z"
         id="path12" />
    </clipPath>
    <clipPath
       clipPathUnits="userSpaceOnUse"
       id="clipPath14">
      <path
         d="M 8.83623,-16.658 H 28.76178 V -1.71385 H 8.83623 Z"
         id="path14" />
    </clipPath>
    <clipPath
       clipPathUnits="userSpaceOnUse"
       id="clipPath16">
      <path
         d="M 8.83623,-16.658 H 28.76178 V -1.71385 H 8.83623 Z"
         transform="matrix(0.64240066,-0.76642042,0.76642042,0.64240066,-10.409506,22.130036)"
         id="path16" />
    </clipPath>
  </defs>
  <g
     id="g1"
     transform="translate(-3.8955943,-3.8956868)">
    <path
       id="path1"
       d="M -9.96277,12.85803 V -4.9588"
       style="fill:none;stroke:#000000;stroke-width:0.79701;stroke-linecap:round;stroke-linejoin:miter;stroke-miterlimit:10;stroke-dasharray:none;stroke-opacity:1"
       transform="matrix(1.3333333,0,0,-1.3333333,42.776,26.106667)" />
    <path
       id="path2"
       d="M -11.66351,14.55878 H -28.7618"
       style="fill:none;stroke:#000000;stroke-width:0.79701;stroke-linecap:round;stroke-linejoin:miter;stroke-miterlimit:10;stroke-dasharray:none;stroke-opacity:1"
       transform="matrix(1.3333333,0,0,-1.3333333,42.776,26.106667)" />
    <path
       id="path3"
       d="M 18.79901,14.55878 H -8.26204"
       style="fill:none;stroke:#000000;stroke-width:0.79701;stroke-linecap:round;stroke-linejoin:miter;stroke-miterlimit:10;stroke-dasharray:none;stroke-opacity:1"
       transform="matrix(1.3333333,0,0,-1.3333333,42.776,26.106667)" />
    <path
       id="path4"
       d="M -14.1899,-9.18593 H -28.7618"
       style="fill:none;stroke:#000000;stroke-width:0.79701;stroke-linecap:round;stroke-linejoin:miter;stroke-miterlimit:10;stroke-dasharray:none;stroke-opacity:1"
       transform="matrix(1.3333333,0,0,-1.3333333,42.776,26.106667)" />
    <path
       id="path5"
       d="M 8.83623,-9.18593 H -5.73566"
       style="fill:none;stroke:#000000;stroke-width:0.79701;stroke-linecap:round;stroke-linejoin:miter;stroke-miterlimit:10;stroke-dasharray:none;stroke-opacity:1"
       transform="matrix(1.3333333,0,0,-1.3333333,42.776,26.106667)" />
    <path
       id="path6"
       d="M 1.70073,0 C 1.70073,0.93929 0.93929,1.70073 0,1.70073 -0.93929,1.70073 -1.70073,0.93929 -1.70073,0 c 0,-0.93929 0.76144,-1.70073 1.70073,-1.70073 0.93929,0 1.70073,0.76144 1.70073,1.70073 z"
       style="fill:#000000;fill-opacity:1;fill-rule:nonzero;stroke:#000000;stroke-width:0.79701;stroke-linecap:butt;stroke-linejoin:miter;stroke-miterlimit:10;stroke-dasharray:none;stroke-opacity:1"
       transform="matrix(1.3333333,0,0,-1.3333333,29.492,6.6946667)" />
    <path
       id="path7"
       d="M 0,4.22711 V -4.22711 M -4.22711,0 h 8.45422"
       style="fill:none;stroke:#000000;stroke-width:0.79701;stroke-linecap:butt;stroke-linejoin:miter;stroke-miterlimit:10;stroke-dasharray:none;stroke-opacity:1"
       transform="matrix(1.3333333,0,0,-1.3333333,29.492,38.353333)"
       clip-path="url(#clipPath8)" />
    <path
       id="path9"
       d="M 4.22711,0 C 4.22711,2.3346 2.3346,4.22711 0,4.22711 -2.3346,4.22711 -4.22711,2.3346 -4.22711,0 c 0,-2.3346 1.89251,-4.22711 4.22711,-4.22711 2.3346,0 4.22711,1.89251 4.22711,4.22711 z"
       style="fill:none;stroke:#000000;stroke-width:0.79701;stroke-linecap:butt;stroke-linejoin:miter;stroke-miterlimit:10;stroke-dasharray:none;stroke-opacity:1"
       transform="matrix(1.3333333,0,0,-1.3333333,29.492,38.353333)" />
    <path
       id="path10"
       d="M 8.83623,-16.658 H 28.76178 V -1.71385 H 8.83623 Z"
       style="fill:#ffffff;fill-opacity:1;fill-rule:nonzero;stroke:none"
       transform="matrix(1.3333333,0,0,-1.3333333,42.776,26.106667)" />
    <path
       id="path11"
       d="m 11.67108,-10.88664 c 3.5735,4.25865 10.68237,4.25865 14.25588,0"
       style="fill:none;stroke:#000000;stroke-width:0.79701;stroke-linecap:butt;stroke-linejoin:miter;stroke-miterlimit:10;stroke-dasharray:none;stroke-opacity:1"
       transform="matrix(1.3333333,0,0,-1.3333333,42.776,26.106667)"
       clip-path="url(#clipPath12)" />
    <path
       id="path13"
       d="m 18.79901,-12.02075 4.84711,5.78295"
       style="fill:none;stroke:#000000;stroke-width:0.79701;stroke-linecap:butt;stroke-linejoin:miter;stroke-miterlimit:10;stroke-dasharray:none;stroke-opacity:1"
       transform="matrix(1.3333333,0,0,-1.3333333,42.776,26.106667)"
       clip-path="url(#clipPath14)" />
    <path
       id="path15"
       d="M 1.92412,0 C 1.68782,0.06175 0.64917,0.41174 0,0.79262 V -0.79262 C 0.64917,-0.41174 1.68782,-0.06175 1.92412,0 Z"
       style="fill:#000000;fill-opacity:1;fill-rule:nonzero;stroke:#000000;stroke-width:0.78903;stroke-linecap:butt;stroke-linejoin:miter;stroke-miterlimit:10;stroke-dasharray:none;stroke-opacity:1"
       transform="matrix(0.85646667,-1.0218133,-1.0218133,-0.85646667,74.30416,34.423733)"
       clip-path="url(#clipPath16)" />
    <path
       id="path17"
       d="M 8.83623,-16.658 H 28.76178 V -1.71385 H 8.83623 Z"
       style="fill:none;stroke:#000000;stroke-width:0.79701;stroke-linecap:butt;stroke-linejoin:miter;stroke-miterlimit:10;stroke-dasharray:none;stroke-opacity:1"
       transform="matrix(1.3333333,0,0,-1.3333333,42.776,26.106667)" />
  </g>
</svg>
